<svg xmlns="http://www.w3.org/2000/svg" xmlns:xlink="http://www.w3.org/1999/xlink" version="1.1" width="1000" height="1000" viewBox="0 0 1000 1000" xml:space="preserve">
<desc>Created with Fabric.js 3.5.0</desc>
<defs>
</defs>
<rect x="0" y="0" width="100%" height="100%" fill="rgba(255,255,255,0)"/>
<g transform="matrix(0.5 0 0 0.5 500 500)" id="595404">
<g style="" vector-effect="non-scaling-stroke">
		<g transform="matrix(1 0 0 1 0.25 414.357)" clip-path="url(#CLIPPATH_1)">
<clipPath id="CLIPPATH_1">
	<rect transform="matrix(1 0 0 1 -0.25 -414.357)" id="__lottie_element_2" x="-1000" y="-1000" rx="0" ry="0" width="2000" height="2000"/>
</clipPath>
<path style="stroke: none; stroke-width: 1; stroke-dasharray: none; stroke-linecap: butt; stroke-dashoffset: 0; stroke-linejoin: miter; stroke-miterlimit: 4; is-custom-font: none; font-file-url: none; fill: rgb(230,244,255); fill-rule: nonzero; opacity: 1;" transform=" translate(0, 0)" d="M 942.041015625 0.0020000000949949026 C 942.041015625 65.60199737548828 520.2739868164062 118.78099822998047 -0.0010000000474974513 118.78099822998047 C -520.2750244140625 118.78099822998047 -942.041015625 65.60199737548828 -942.041015625 0.0020000000949949026 C -942.041015625 -65.60099792480469 -520.2750244140625 -118.78099822998047 -0.0010000000474974513 -118.78099822998047 C 520.2739868164062 -118.78099822998047 942.041015625 -65.60099792480469 942.041015625 0.0020000000949949026 z" stroke-linecap="round"/>
</g>
		<g transform="matrix(1 0 0 1 -53.2759 314.8148)" clip-path="url(#CLIPPATH_2)">
<clipPath id="CLIPPATH_2">
	<rect transform="matrix(1 0 0 1 53.2759 -314.8148)" id="__lottie_element_2" x="-1000" y="-1000" rx="0" ry="0" width="2000" height="2000"/>
</clipPath>
<path style="stroke: none; stroke-width: 1; stroke-dasharray: none; stroke-linecap: butt; stroke-dashoffset: 0; stroke-linejoin: miter; stroke-miterlimit: 4; is-custom-font: none; font-file-url: none; fill: rgb(136,205,255); fill-rule: nonzero; opacity: 1;" transform=" translate(0.9409, -10.6679)" d="M -507.7919921875 113.23400115966797 C -533.051025390625 100.01799774169922 -537.7130126953125 28.19099998474121 -545.166015625 -16.26099967956543 C -548.406005859375 -35.5880012512207 -550.5449829101562 -56.180999755859375 -542.947998046875 -74.19499969482422 C -528.8410034179688 -107.6449966430664 -488.37701416015625 -118.71199798583984 -453.05499267578125 -124.16400146484375 C -162.76100158691406 -168.9720001220703 132.01300048828125 -113.73200225830078 423.70098876953125 -79.60600280761719 C 451.7749938964844 -76.3219985961914 481.177001953125 -72.7509994506836 504.3940124511719 -56.33300018310547 C 538.0640258789062 -32.52299880981445 550.5460205078125 13.91100025177002 544.9520263671875 55.28799819946289 C 541.822021484375 78.43399810791016 533.052978515625 102.01399993896484 515.0770263671875 116.51799774169922 C 498.7770080566406 129.6699981689453 477.3089904785156 133.63600158691406 456.75799560546875 136.84100341796875 C 338.4230041503906 155.29600524902344 218.3939971923828 162.46099853515625 98.75499725341797 158.21400451660156 C 48.88399887084961 156.44400024414062 -23.417999267578125 156.99200439453125 -73.26399993896484 159.39999389648438 C -271.3760070800781 168.9720001220703 -457.40301513671875 155.16900634765625 -507.7919921875 113.23400115966797 z" stroke-linecap="round"/>
</g>
		<g transform="matrix(1 0 0 1 -69.703 338.4299)" clip-path="url(#CLIPPATH_3)">
<clipPath id="CLIPPATH_3">
	<rect transform="matrix(1 0 0 1 69.703 -338.4299)" id="__lottie_element_2" x="-1000" y="-1000" rx="0" ry="0" width="2000" height="2000"/>
</clipPath>
<path style="stroke: none; stroke-width: 1; stroke-dasharray: none; stroke-linecap: butt; stroke-dashoffset: 0; stroke-linejoin: miter; stroke-miterlimit: 4; is-custom-font: none; font-file-url: none; fill: rgb(201,235,255); fill-rule: nonzero; opacity: 1;" transform=" translate(0, 0)" d="M 427.52899169921875 0 C 427.52899169921875 52.435001373291016 236.1179962158203 94.94100189208984 0 94.94100189208984 C -236.11700439453125 94.94100189208984 -427.52899169921875 52.435001373291016 -427.52899169921875 0 C -427.52899169921875 -52.43600082397461 -236.11700439453125 -94.94100189208984 0 -94.94100189208984 C 236.1179962158203 -94.94100189208984 427.52899169921875 -52.43600082397461 427.52899169921875 0 z" stroke-linecap="round"/>
</g>
		<g transform="matrix(0.9999 0.0108 -0.0108 0.9999 103.8892 -31.0134)" clip-path="url(#CLIPPATH_4)">
<clipPath id="CLIPPATH_4">
	<rect transform="matrix(0.9999 -0.0108 0.0108 0.9999 -103.5493 32.1318)" id="__lottie_element_2" x="-1000" y="-1000" rx="0" ry="0" width="2000" height="2000"/>
</clipPath>
<path style="stroke: none; stroke-width: 1; stroke-dasharray: none; stroke-linecap: butt; stroke-dashoffset: 0; stroke-linejoin: miter; stroke-miterlimit: 4; is-custom-font: none; font-file-url: none; fill: rgb(241,170,9); fill-rule: nonzero; opacity: 1;" transform=" translate(2.2921, -5.8853)" d="M 52.44599914550781 187.61199951171875 C 52.44599914550781 187.61199951171875 13.605999946594238 185.9340057373047 13.605999946594238 185.9340057373047 C -15.416000366210938 157.2550048828125 -30.152000427246094 129.91600036621094 -51.255001068115234 89.2030029296875 C -51.255001068115234 89.2030029296875 -125.78500366210938 -54.58399963378906 -125.78500366210938 -54.58399963378906 C -146.88699340820312 -95.2959976196289 -130.99099731445312 -145.40699768066406 -90.27899932861328 -166.50999450683594 C -49.566001892089844 -187.61300659179688 0.5440000295639038 -171.71499633789062 21.645999908447266 -131.0030059814453 C 21.645999908447266 -131.0030059814453 125.78600311279297 91.76200103759766 125.78600311279297 91.76200103759766 C 146.88800048828125 132.47500610351562 93.15799713134766 166.50900268554688 52.44599914550781 187.61199951171875 z" stroke-linecap="round"/>
</g>
		<g transform="matrix(1 0 0 1 -747.508 379.381)" clip-path="url(#CLIPPATH_5)">
<clipPath id="CLIPPATH_5">
	<rect transform="matrix(1 0 0 1 747.508 -379.381)" id="__lottie_element_2" x="-1000" y="-1000" rx="0" ry="0" width="2000" height="2000"/>
</clipPath>
<path style="stroke: none; stroke-width: 1; stroke-dasharray: none; stroke-linecap: butt; stroke-dashoffset: 0; stroke-linejoin: miter; stroke-miterlimit: 4; is-custom-font: none; font-file-url: none; fill: rgb(136,205,255); fill-rule: nonzero; opacity: 1;" transform=" translate(0, 0)" d="M -55.349998474121094 -53.99100112915039 C -55.349998474121094 -53.99100112915039 -38.48899841308594 53.99100112915039 -38.48899841308594 53.99100112915039 C -38.48899841308594 53.99100112915039 38.487998962402344 53.99100112915039 38.487998962402344 53.99100112915039 C 38.487998962402344 53.99100112915039 55.349998474121094 -53.99100112915039 55.349998474121094 -53.99100112915039 C 55.349998474121094 -53.99100112915039 -55.349998474121094 -53.99100112915039 -55.349998474121094 -53.99100112915039 z" stroke-linecap="round"/>
</g>
		<g transform="matrix(1 0 0 1 -684.195 379.382)" clip-path="url(#CLIPPATH_6)">
<clipPath id="CLIPPATH_6">
	<rect transform="matrix(1 0 0 1 684.195 -379.382)" id="__lottie_element_2" x="-1000" y="-1000" rx="0" ry="0" width="2000" height="2000"/>
</clipPath>
<path style="stroke: none; stroke-width: 1; stroke-dasharray: none; stroke-linecap: butt; stroke-dashoffset: 0; stroke-linejoin: miter; stroke-miterlimit: 4; is-custom-font: none; font-file-url: none; fill: rgb(136,205,255); fill-rule: nonzero; opacity: 1;" transform=" translate(0, 0)" d="M -12.744999885559082 34.974998474121094 C -15.958999633789062 34.974998474121094 -19.150999069213867 34.53799819946289 -22.229999542236328 33.67300033569336 C -22.229999542236328 33.67300033569336 -19.638999938964844 24.437999725341797 -19.638999938964844 24.437999725341797 C -17.402000427246094 25.065000534057617 -15.083000183105469 25.384000778198242 -12.744999885559082 25.384000778198242 C 1.2519999742507935 25.384000778198242 12.638999938964844 13.996999740600586 12.638999938964844 0 C 12.638999938964844 -13.996999740600586 1.2519999742507935 -25.384000778198242 -12.744999885559082 -25.384000778198242 C -12.744999885559082 -25.384000778198242 -12.744999885559082 -34.974998474121094 -12.744999885559082 -34.974998474121094 C 6.540999889373779 -34.974998474121094 22.229999542236328 -19.28700065612793 22.229999542236328 0 C 22.229999542236328 19.28700065612793 6.540999889373779 34.974998474121094 -12.744999885559082 34.974998474121094 z" stroke-linecap="round"/>
</g>
		<g transform="matrix(0.9999 0.0108 -0.0108 0.9999 -68.2327 -36.1173)" clip-path="url(#CLIPPATH_7)">
<clipPath id="CLIPPATH_7">
	<rect transform="matrix(0.9999 -0.0108 0.0108 0.9999 68.6176 35.3801)" id="__lottie_element_2" x="-1000" y="-1000" rx="0" ry="0" width="2000" height="2000"/>
</clipPath>
<path style="stroke: none; stroke-width: 1; stroke-dasharray: none; stroke-linecap: butt; stroke-dashoffset: 0; stroke-linejoin: miter; stroke-miterlimit: 4; is-custom-font: none; font-file-url: none; fill: rgb(255,188,16); fill-rule: nonzero; opacity: 1;" transform=" translate(0, 0)" d="M 231.45599365234375 251.95199584960938 C 231.45599365234375 251.95199584960938 -231.45599365234375 262.74200439453125 -231.45599365234375 262.74200439453125 C -231.45599365234375 262.74200439453125 -231.45599365234375 -59.507999420166016 -231.45599365234375 -59.507999420166016 C -231.45599365234375 -171.75100708007812 -140.46400451660156 -262.74200439453125 -28.22100067138672 -262.74200439453125 C -28.22100067138672 -262.74200439453125 7.568999767303467 -262.74200439453125 7.568999767303467 -262.74200439453125 C 119.81199645996094 -262.74200439453125 210.8040008544922 -171.75100708007812 210.8040008544922 -59.507999420166016 C 210.8040008544922 -59.507999420166016 231.45599365234375 251.95199584960938 231.45599365234375 251.95199584960938 z" stroke-linecap="round"/>
</g>
		<g transform="matrix(0.9999 0.0108 -0.0108 0.9999 149.3227 14.1753)" clip-path="url(#CLIPPATH_8)">
<clipPath id="CLIPPATH_8">
	<rect transform="matrix(0.9999 -0.0108 0.0108 0.9999 -149.4674 -12.5644)" id="__lottie_element_2" x="-1000" y="-1000" rx="0" ry="0" width="2000" height="2000"/>
</clipPath>
<path style="stroke: rgb(255,255,255); stroke-width: 3; stroke-dasharray: none; stroke-linecap: round; stroke-dashoffset: 0; stroke-linejoin: round; stroke-miterlimit: 4; is-custom-font: none; font-file-url: none; fill: rgb(0,0,0); fill-opacity: 0; fill-rule: nonzero; opacity: 1;" transform=" translate(0, 0.0005)" d="M -8.369000434875488 -128.59500122070312 C -8.369000434875488 -128.59500122070312 8.369000434875488 128.593994140625 8.369000434875488 128.593994140625" stroke-linecap="round"/>
</g>
		<g transform="matrix(0.9999 0.0108 -0.0108 0.9999 -300.5285 40.5342)" clip-path="url(#CLIPPATH_9)">
<clipPath id="CLIPPATH_9">
	<rect transform="matrix(0.9999 -0.0108 0.0108 0.9999 300.0736 -43.7709)" id="__lottie_element_2" x="-1000" y="-1000" rx="0" ry="0" width="2000" height="2000"/>
</clipPath>
<path style="stroke: rgb(255,255,255); stroke-width: 3; stroke-dasharray: none; stroke-linecap: butt; stroke-dashoffset: 0; stroke-linejoin: miter; stroke-miterlimit: 10; is-custom-font: none; font-file-url: none; fill: rgb(0,0,0); fill-opacity: 0; fill-rule: nonzero; opacity: 1;" transform=" translate(-1.5, -342.144)" d="M 1.5 203.48399353027344 C 1.5 203.48399353027344 1.5 480.8039855957031 1.5 480.8039855957031" stroke-linecap="round"/>
</g>
		<g transform="matrix(1 0 0 1 95.0036 325.7193)" clip-path="url(#CLIPPATH_10)">
<clipPath id="CLIPPATH_10">
	<rect transform="matrix(1 0 0 1 -95.0036 -325.7193)" id="__lottie_element_2" x="-1000" y="-1000" rx="0" ry="0" width="2000" height="2000"/>
</clipPath>
<path style="stroke: none; stroke-width: 1; stroke-dasharray: none; stroke-linecap: butt; stroke-dashoffset: 0; stroke-linejoin: miter; stroke-miterlimit: 4; is-custom-font: none; font-file-url: none; fill: rgb(0,0,128); fill-rule: nonzero; opacity: 1;" transform=" translate(3.7644, 4.8476)" d="M -114.62699890136719 60.2140007019043 C -114.62699890136719 60.2140007019043 25.297000885009766 98.06300354003906 25.297000885009766 98.06300354003906 C 72.01100158691406 110.697998046875 119.71399688720703 81.35800170898438 129.5070037841797 33.965999603271484 C 138.7899932861328 -10.956000328063965 110.32499694824219 -55.016998291015625 65.55899810791016 -65.02300262451172 C 65.55899810791016 -65.02300262451172 -138.7899932861328 -110.697998046875 -138.7899932861328 -110.697998046875 C -138.7899932861328 -110.697998046875 -114.62699890136719 60.2140007019043 -114.62699890136719 60.2140007019043 z" stroke-linecap="round"/>
</g>
		<g transform="matrix(1 0 0 1 -271.6059 273.2158)" clip-path="url(#CLIPPATH_11)">
<clipPath id="CLIPPATH_11">
	<rect transform="matrix(1 0 0 1 271.6059 -273.2157)" id="__lottie_element_2" x="-1000" y="-1000" rx="0" ry="0" width="2000" height="2000"/>
</clipPath>
<path style="stroke: none; stroke-width: 1; stroke-dasharray: none; stroke-linecap: butt; stroke-dashoffset: 0; stroke-linejoin: miter; stroke-miterlimit: 4; is-custom-font: none; font-file-url: none; fill: rgb(0,78,221); fill-rule: nonzero; opacity: 1;" transform=" translate(-4.4641, -4.4648)" d="M 227.10899353027344 -57.42599868774414 C 227.10899353027344 -57.42599868774414 187.3800048828125 135.65199279785156 187.3800048828125 135.65199279785156 C 185.34800720214844 145.5279998779297 175.69400024414062 151.88600158691406 165.81900024414062 149.85400390625 C 165.81900024414062 149.85400390625 -125.26200103759766 89.95999908447266 -125.26200103759766 89.95999908447266 C -188.45399475097656 76.95700073242188 -229.14100646972656 15.187000274658203 -216.13900756835938 -48.005001068115234 C -216.13900756835938 -48.005001068115234 -216.13900756835938 -48.00600051879883 -216.13900756835938 -48.00600051879883 C -203.13499450683594 -111.197998046875 -141.3679962158203 -151.88600158691406 -78.17400360107422 -138.8820037841797 C -78.17400360107422 -138.8820037841797 212.90699768066406 -78.98799896240234 212.90699768066406 -78.98799896240234 C 222.7830047607422 -76.95500183105469 229.14100646972656 -67.302001953125 227.10899353027344 -57.42599868774414 z" stroke-linecap="round"/>
</g>
		<g transform="matrix(1 0 0 1 -235.375 338.3573)" clip-path="url(#CLIPPATH_12)">
<clipPath id="CLIPPATH_12">
	<rect transform="matrix(1 0 0 1 235.3749 -338.3574)" id="__lottie_element_2" x="-1000" y="-1000" rx="0" ry="0" width="2000" height="2000"/>
</clipPath>
<path style="stroke: none; stroke-width: 1; stroke-dasharray: none; stroke-linecap: butt; stroke-dashoffset: 0; stroke-linejoin: miter; stroke-miterlimit: 4; is-custom-font: none; font-file-url: none; fill: rgb(0,0,128); fill-rule: nonzero; opacity: 1;" transform=" translate(-5.081, 4.5596)" d="M 57.76300048828125 -103.59400177001953 C 57.76300048828125 -103.59400177001953 -83.58799743652344 -71.48300170898438 -83.58799743652344 -71.48300170898438 C -130.7790069580078 -60.762001037597656 -159.17799377441406 -12.493000030517578 -145.62899780273438 33.96500015258789 C -132.78599548339844 78.0009994506836 -86.99400329589844 103.59400177001953 -42.75699996948242 91.46399688720703 C -42.75699996948242 91.46399688720703 159.17799377441406 36.084999084472656 159.17799377441406 36.084999084472656 C 159.17799377441406 36.084999084472656 57.76300048828125 -103.59400177001953 57.76300048828125 -103.59400177001953 z" stroke-linecap="round"/>
</g>
		<g transform="matrix(1 0 0 1 69.0973 279.205)" clip-path="url(#CLIPPATH_13)">
<clipPath id="CLIPPATH_13">
	<rect transform="matrix(1 0 0 1 -69.0973 -279.205)" id="__lottie_element_2" x="-1000" y="-1000" rx="0" ry="0" width="2000" height="2000"/>
</clipPath>
<path style="stroke: none; stroke-width: 1; stroke-dasharray: none; stroke-linecap: butt; stroke-dashoffset: 0; stroke-linejoin: miter; stroke-miterlimit: 4; is-custom-font: none; font-file-url: none; fill: rgb(0,109,255); fill-rule: nonzero; opacity: 1;" transform=" translate(5.3647, -5.365)" d="M -270.7449951171875 171.88400268554688 C -270.7449951171875 171.88400268554688 -318.68798828125 -56.779998779296875 -318.68798828125 -56.779998779296875 C -318.68798828125 -56.779998779296875 167.1439971923828 -158.6439971923828 167.1439971923828 -158.6439971923828 C 230.28900146484375 -171.88400268554688 292.2099914550781 -131.42799377441406 305.4490051269531 -68.28399658203125 C 318.68798828125 -5.139999866485596 278.23199462890625 56.779998779296875 215.08799743652344 70.0199966430664 C 215.08799743652344 70.0199966430664 -270.7449951171875 171.88400268554688 -270.7449951171875 171.88400268554688 z" stroke-linecap="round"/>
</g>
		<g transform="matrix(0.999 0.0438 -0.0438 0.999 -236.6666 -75.1908)" clip-path="url(#CLIPPATH_14)">
<clipPath id="CLIPPATH_14">
	<rect transform="matrix(0.999 -0.0438 0.0438 0.999 239.7349 64.7446)" id="__lottie_element_2" x="-1000" y="-1000" rx="0" ry="0" width="2000" height="2000"/>
</clipPath>
<path style="stroke: none; stroke-width: 1; stroke-dasharray: none; stroke-linecap: butt; stroke-dashoffset: 0; stroke-linejoin: miter; stroke-miterlimit: 4; is-custom-font: none; font-file-url: none; fill: rgb(255,188,16); fill-rule: nonzero; opacity: 1;" transform=" translate(-0.0001, -0.0003)" d="M -62.757999420166016 158.4969940185547 C -62.757999420166016 158.4969940185547 -62.757999420166016 158.4969940185547 -62.757999420166016 158.4969940185547 C -105.23600006103516 141.67799377441406 -126.03700256347656 93.60800170898438 -109.21700286865234 51.130001068115234 C -109.21700286865234 51.130001068115234 -44.61000061035156 -112.03700256347656 -44.61000061035156 -112.03700256347656 C -27.790000915527344 -154.51600646972656 20.280000686645508 -175.3159942626953 62.757999420166016 -158.49600219726562 C 62.757999420166016 -158.49600219726562 62.75899887084961 -158.49600219726562 62.75899887084961 -158.49600219726562 C 105.23699951171875 -141.677001953125 126.03700256347656 -93.60700225830078 109.21700286865234 -51.12900161743164 C 109.21700286865234 -51.12900161743164 44.61000061035156 112.03800201416016 44.61000061035156 112.03800201416016 C 27.790000915527344 154.51699829101562 -20.280000686645508 175.3159942626953 -62.757999420166016 158.4969940185547 z" stroke-linecap="round"/>
</g>
		<g transform="matrix(0.999 0.0438 -0.0438 0.999 -158.9088 -53.9791)" clip-path="url(#CLIPPATH_15)">
<clipPath id="CLIPPATH_15">
	<rect transform="matrix(0.999 -0.0438 0.0438 0.999 161.122 46.9619)" id="__lottie_element_2" x="-1000" y="-1000" rx="0" ry="0" width="2000" height="2000"/>
</clipPath>
<path style="stroke: rgb(255,255,255); stroke-width: 3; stroke-dasharray: none; stroke-linecap: round; stroke-dashoffset: 0; stroke-linejoin: round; stroke-miterlimit: 4; is-custom-font: none; font-file-url: none; fill: rgb(0,0,0); fill-opacity: 0; fill-rule: nonzero; opacity: 1;" transform=" translate(0, 0)" d="M 30.604999542236328 -77.29299926757812 C 30.604999542236328 -77.29299926757812 -30.604999542236328 77.29299926757812 -30.604999542236328 77.29299926757812" stroke-linecap="round"/>
</g>
		<g transform="matrix(0.6694 0.0469 -0.0469 0.6694 713.9791 157.2956)" clip-path="url(#CLIPPATH_16)">
<clipPath id="CLIPPATH_16">
	<rect transform="matrix(1.4867 -0.1041 0.1041 1.4867 -1077.8398 -159.5461)" id="__lottie_element_2" x="-1000" y="-1000" rx="0" ry="0" width="2000" height="2000"/>
</clipPath>
<path style="stroke: none; stroke-width: 1; stroke-dasharray: none; stroke-linecap: butt; stroke-dashoffset: 0; stroke-linejoin: miter; stroke-miterlimit: 4; is-custom-font: none; font-file-url: none; fill: rgb(0,78,221); fill-rule: nonzero; opacity: 1;" transform=" translate(-22.3994, -8.0319)" d="M -70.56700134277344 -61.7400016784668 C -70.56700134277344 -61.7400016784668 -40.659000396728516 -75.22699737548828 -56.8120002746582 -121.17900085449219 C -72.96499633789062 -167.13099670410156 -65.51000213623047 -218.02099609375 -32.69499969482422 -239.7259979248047 C 0.11999999731779099 -261.4309997558594 -33.32600021362305 -214.6580047607422 -5.21999979019165 -189.3769989013672 C 22.88599967956543 -164.0970001220703 119.85199737548828 -162.6219940185547 70.4229965209961 -53.29199981689453 C 20.993000030517578 56.03900146484375 165.43699645996094 -34.018001556396484 149.1929931640625 84.96700286865234 C 132.947998046875 203.95199584960938 95.22000122070312 261.3290100097656 18.84000015258789 261.3789978027344 C -57.53900146484375 261.4309997558594 -113.97699737548828 230.35499572753906 -86.27400207519531 157.9429931640625 C -31.895999908447266 15.803999900817871 -165.43699645996094 22.16699981689453 -70.56700134277344 -61.7400016784668 z" stroke-linecap="round"/>
</g>
		<g transform="matrix(0.6694 0.0469 -0.0469 0.6694 699.2605 189.1484)" clip-path="url(#CLIPPATH_17)">
<clipPath id="CLIPPATH_17">
	<rect transform="matrix(1.4867 -0.1041 0.1041 1.4867 -1059.2734 -208.4327)" id="__lottie_element_2" x="-1000" y="-1000" rx="0" ry="0" width="2000" height="2000"/>
</clipPath>
<path style="stroke: rgb(255,255,255); stroke-width: 1.71; stroke-dasharray: none; stroke-linecap: butt; stroke-dashoffset: 0; stroke-linejoin: miter; stroke-miterlimit: 10; is-custom-font: none; font-file-url: none; fill: rgb(0,0,0); fill-opacity: 0; fill-rule: nonzero; opacity: 1;" transform=" translate(13.002, -0.0005)" d="M -25.23699951171875 -204.2899932861328 C -25.23699951171875 -204.2899932861328 25.23699951171875 -147.35299682617188 -18.797000885009766 204.29100036621094" stroke-linecap="round"/>
</g>
		<g transform="matrix(0.6708 0.0144 -0.0144 0.6708 625.0072 229.208)" clip-path="url(#CLIPPATH_18)">
<clipPath id="CLIPPATH_18">
	<rect transform="matrix(1.49 -0.0319 0.0319 1.49 -938.5731 -321.5736)" id="__lottie_element_2" x="-1000" y="-1000" rx="0" ry="0" width="2000" height="2000"/>
</clipPath>
<path style="stroke: none; stroke-width: 1; stroke-dasharray: none; stroke-linecap: butt; stroke-dashoffset: 0; stroke-linejoin: miter; stroke-miterlimit: 4; is-custom-font: none; font-file-url: none; fill: rgb(0,109,255); fill-rule: nonzero; opacity: 1;" transform=" translate(-4.2761, 7.6341)" d="M -73.59500122070312 -117.85199737548828 C -73.59500122070312 -117.85199737548828 -95.63500213623047 -114.86299896240234 -74.52899932861328 -75.08000183105469 C -53.422000885009766 -35.29499816894531 -113.13300323486328 -22.139999389648438 -52.80400085449219 -3.7290000915527344 C 7.525000095367432 14.682000160217285 -110.9800033569336 68.56199645996094 -12.864999771118164 97.16200256347656 C 85.25 125.76200103759766 113.13400268554688 47.79600143432617 77.17500305175781 25.09000015258789 C 41.21500015258789 2.384000062942505 26.54199981689453 20.457000732421875 27.875999450683594 -39.84000015258789 C 29.208999633789062 -100.13800048828125 -13.315999984741211 -48.42599868774414 -37.04199981689453 -91.89099884033203 C -55.53200149536133 -125.76200103759766 -73.59500122070312 -117.85199737548828 -73.59500122070312 -117.85199737548828 z" stroke-linecap="round"/>
</g>
		<g transform="matrix(0.6708 0.0144 -0.0144 0.6708 650.3067 219.0761)" clip-path="url(#CLIPPATH_19)">
<clipPath id="CLIPPATH_19">
	<rect transform="matrix(1.49 -0.0319 0.0319 1.49 -975.945 -305.6696)" id="__lottie_element_2" x="-1000" y="-1000" rx="0" ry="0" width="2000" height="2000"/>
</clipPath>
<path style="stroke: rgb(56,49,75); stroke-width: 1.71; stroke-dasharray: none; stroke-linecap: butt; stroke-dashoffset: 0; stroke-linejoin: miter; stroke-miterlimit: 10; is-custom-font: none; font-file-url: none; fill: rgb(0,0,0); fill-opacity: 0; fill-rule: nonzero; opacity: 1;" transform=" translate(0, 0)" d="M 35.527000427246094 48.62799835205078 C -0.43299999833106995 25.922000885009766 -15.105999946594238 43.994998931884766 -13.772000312805176 -16.302000045776367 C -13.126999855041504 -45.465999603271484 -22.742000579833984 -48.426998138427734 -35.527000427246094 -48.62799835205078" stroke-linecap="round"/>
</g>
		<g transform="matrix(0.6708 0.0144 -0.0144 0.6708 618.9043 244.1864)" clip-path="url(#CLIPPATH_20)">
<clipPath id="CLIPPATH_20">
	<rect transform="matrix(1.49 -0.0319 0.0319 1.49 -929.958 -344.0856)" id="__lottie_element_2" x="-1000" y="-1000" rx="0" ry="0" width="2000" height="2000"/>
</clipPath>
<path style="stroke: rgb(255,255,255); stroke-width: 1.71; stroke-dasharray: none; stroke-linecap: butt; stroke-dashoffset: 0; stroke-linejoin: miter; stroke-miterlimit: 10; is-custom-font: none; font-file-url: none; fill: rgb(0,0,0); fill-opacity: 0; fill-rule: nonzero; opacity: 1;" transform=" translate(0, 0)" d="M -40.44300079345703 -88.09100341796875 C -40.44300079345703 -88.09100341796875 21.34600067138672 11.78600025177002 40.44300079345703 88.09100341796875" stroke-linecap="round"/>
</g>
		<g transform="matrix(0.6705 0.0253 -0.0253 0.6705 764.9384 226.2061)" clip-path="url(#CLIPPATH_21)">
<clipPath id="CLIPPATH_21">
	<rect transform="matrix(1.4892 -0.0562 0.0562 1.4892 -1151.922 -293.8656)" id="__lottie_element_2" x="-1000" y="-1000" rx="0" ry="0" width="2000" height="2000"/>
</clipPath>
<path style="stroke: none; stroke-width: 1; stroke-dasharray: none; stroke-linecap: butt; stroke-dashoffset: 0; stroke-linejoin: miter; stroke-miterlimit: 4; is-custom-font: none; font-file-url: none; fill: rgb(0,109,255); fill-rule: nonzero; opacity: 1;" transform=" translate(4.2753, 7.6336)" d="M 73.59700012207031 -117.85199737548828 C 73.59700012207031 -117.85199737548828 95.63600158691406 -114.86299896240234 74.52899932861328 -75.0790023803711 C 53.42300033569336 -35.29499816894531 113.13300323486328 -22.141000747680664 52.80400085449219 -3.7300000190734863 C -7.52400016784668 14.680999755859375 110.98100280761719 68.56199645996094 12.866000175476074 97.16300201416016 C -85.2490005493164 125.76300048828125 -113.13400268554688 47.79499816894531 -77.17400360107422 25.09000015258789 C -41.2140007019043 2.384000062942505 -26.540000915527344 20.457000732421875 -27.874000549316406 -39.84000015258789 C -29.207000732421875 -100.13700103759766 13.315999984741211 -48.42499923706055 37.04199981689453 -91.88999938964844 C 55.53200149536133 -125.76200103759766 73.59700012207031 -117.85199737548828 73.59700012207031 -117.85199737548828 z" stroke-linecap="round"/>
</g>
		<g transform="matrix(0.6705 0.0253 -0.0253 0.6705 740.2834 214.5954)" clip-path="url(#CLIPPATH_22)">
<clipPath id="CLIPPATH_22">
	<rect transform="matrix(1.4892 -0.0562 0.0562 1.4892 -1114.5513 -277.9612)" id="__lottie_element_2" x="-1000" y="-1000" rx="0" ry="0" width="2000" height="2000"/>
</clipPath>
<path style="stroke: rgb(56,49,75); stroke-width: 1.71; stroke-dasharray: none; stroke-linecap: butt; stroke-dashoffset: 0; stroke-linejoin: miter; stroke-miterlimit: 10; is-custom-font: none; font-file-url: none; fill: rgb(0,0,0); fill-opacity: 0; fill-rule: nonzero; opacity: 1;" transform=" translate(0, 0)" d="M -35.527000427246094 48.62799835205078 C 0.43299999833106995 25.922000885009766 15.104999542236328 43.99399948120117 13.770999908447266 -16.30299949645996 C 13.12600040435791 -45.46699905395508 22.740999221801758 -48.428001403808594 35.527000427246094 -48.62799835205078" stroke-linecap="round"/>
</g>
		<g transform="matrix(0.6705 0.0253 -0.0253 0.6705 770.1458 241.5181)" clip-path="url(#CLIPPATH_23)">
<clipPath id="CLIPPATH_23">
	<rect transform="matrix(1.4892 -0.0562 0.0562 1.4892 -1160.5383 -316.3762)" id="__lottie_element_2" x="-1000" y="-1000" rx="0" ry="0" width="2000" height="2000"/>
</clipPath>
<path style="stroke: rgb(255,255,255); stroke-width: 1.71; stroke-dasharray: none; stroke-linecap: butt; stroke-dashoffset: 0; stroke-linejoin: miter; stroke-miterlimit: 10; is-custom-font: none; font-file-url: none; fill: rgb(0,0,0); fill-opacity: 0; fill-rule: nonzero; opacity: 1;" transform=" translate(0, 0)" d="M 40.44300079345703 -88.09100341796875 C 40.44300079345703 -88.09100341796875 -21.34600067138672 11.78600025177002 -40.44300079345703 88.09100341796875" stroke-linecap="round"/>
</g>
		<g transform="matrix(0.671 0 0 0.671 693.5307 372.968)" clip-path="url(#CLIPPATH_24)">
<clipPath id="CLIPPATH_24">
	<rect transform="matrix(1.4903 0 0 1.4903 -1033.5907 -555.8519)" id="__lottie_element_2" x="-1000" y="-1000" rx="0" ry="0" width="2000" height="2000"/>
</clipPath>
<path style="stroke: none; stroke-width: 1; stroke-dasharray: none; stroke-linecap: butt; stroke-dashoffset: 0; stroke-linejoin: miter; stroke-miterlimit: 4; is-custom-font: none; font-file-url: none; fill: rgb(136,205,255); fill-rule: nonzero; opacity: 1;" transform=" translate(0, 0)" d="M 65.10700225830078 110.76300048828125 C 65.10700225830078 110.76300048828125 -65.10700225830078 110.76300048828125 -65.10700225830078 110.76300048828125 C -72.85700225830078 110.76300048828125 -79.53099822998047 105.2979965209961 -81.05999755859375 97.69999694824219 C -81.05999755859375 97.69999694824219 -119.08300018310547 -91.28099822998047 -119.08300018310547 -91.28099822998047 C -121.11000061035156 -101.3550033569336 -113.40799713134766 -110.76300048828125 -103.13200378417969 -110.76300048828125 C -103.13200378417969 -110.76300048828125 103.13200378417969 -110.76300048828125 103.13200378417969 -110.76300048828125 C 113.40799713134766 -110.76300048828125 121.11000061035156 -101.3550033569336 119.08300018310547 -91.28099822998047 C 119.08300018310547 -91.28099822998047 81.05899810791016 97.69999694824219 81.05899810791016 97.69999694824219 C 79.52999877929688 105.2979965209961 72.85700225830078 110.76300048828125 65.10700225830078 110.76300048828125 z" stroke-linecap="round"/>
</g>
		<g transform="matrix(0.671 0 0 0.671 692.9251 333.1247)" clip-path="url(#CLIPPATH_25)">
<clipPath id="CLIPPATH_25">
	<rect transform="matrix(1.4903 0 0 1.4903 -1032.6881 -496.473)" id="__lottie_element_2" x="-1000" y="-1000" rx="0" ry="0" width="2000" height="2000"/>
</clipPath>
<path style="stroke: rgb(255,255,255); stroke-width: 1.71; stroke-dasharray: none; stroke-linecap: butt; stroke-dashoffset: 0; stroke-linejoin: miter; stroke-miterlimit: 10; is-custom-font: none; font-file-url: none; fill: rgb(0,0,0); fill-opacity: 0; fill-rule: nonzero; opacity: 1;" transform=" translate(-120.4585, -51.634)" d="M 8.694999694824219 51.63399887084961 C 8.694999694824219 51.63399887084961 232.2220001220703 51.63399887084961 232.2220001220703 51.63399887084961" stroke-linecap="round"/>
</g>
		<g transform="matrix(0.9916 0.1293 -0.1293 0.9916 -60.2813 120.5819)" clip-path="url(#CLIPPATH_26)">
<clipPath id="CLIPPATH_26">
	<rect transform="matrix(0.9916 -0.1293 0.1293 0.9916 44.1865 -127.3633)" id="__lottie_element_2" x="-1000" y="-1000" rx="0" ry="0" width="2000" height="2000"/>
</clipPath>
<path style="stroke: none; stroke-width: 1; stroke-dasharray: none; stroke-linecap: butt; stroke-dashoffset: 0; stroke-linejoin: miter; stroke-miterlimit: 4; is-custom-font: none; font-file-url: none; fill: rgb(255,210,192); fill-rule: nonzero; opacity: 1;" transform=" translate(2.501, -1.3111)" d="M -74.06300354003906 -52.02299880981445 C -74.06300354003906 -52.02299880981445 -36.183998107910156 -53.95399856567383 -12.64799976348877 -52.016998291015625 C 10.887999534606934 -50.082000732421875 46.862998962402344 -49.678001403808594 60.58100128173828 -56.527000427246094 C 74.30000305175781 -63.375999450683594 77.1050033569336 -57.608001708984375 75.06199645996094 -48.334999084472656 C 73.01799774169922 -39.060001373291016 57.15399932861328 -31.02899932861328 57.15399932861328 -31.02899932861328 C 57.15399932861328 -31.02899932861328 89.47799682617188 35.64400100708008 83.80999755859375 42.84400177001953 C 78.14199829101562 50.04499816894531 53.619998931884766 31.999000549316406 53.619998931884766 31.999000549316406 C 53.619998931884766 31.999000549316406 50.834999084472656 37.73500061035156 45.659000396728516 39.678001403808594 C 40.48400115966797 41.62300109863281 32.15399932861328 39.933998107910156 32.15399932861328 39.933998107910156 C 32.15399932861328 39.933998107910156 31.50200080871582 46.941001892089844 22.548999786376953 50.5369987487793 C 13.595999717712402 54.130001068115234 6.449999809265137 50.47600173950195 6.449999809265137 50.47600173950195 C 6.449999809265137 50.47600173950195 3.571000099182129 63.375999450683594 -3.0859999656677246 62.058998107910156 C -9.743000030517578 60.742000579833984 -38.97200012207031 58.28300094604492 -39.16899871826172 49.736000061035156 C -39.3650016784668 41.1879997253418 -16.101999282836914 38.027000427246094 -16.101999282836914 38.027000427246094 C -16.101999282836914 38.027000427246094 -15.97700023651123 23.400999069213867 -15.97700023651123 23.400999069213867 C -15.97700023651123 23.400999069213867 -35.867000579833984 46.46500015258789 -60.611000061035156 38.770999908447266 C -85.35399627685547 31.076000213623047 -89.47899627685547 -0.2849999964237213 -89.47899627685547 -0.2849999964237213 C -89.47899627685547 -0.2849999964237213 -74.06300354003906 -52.02299880981445 -74.06300354003906 -52.02299880981445 z" stroke-linecap="round"/>
</g>
		<g transform="matrix(0.9916 0.1293 -0.1293 0.9916 -11.7647 127.9833)" clip-path="url(#CLIPPATH_27)">
<clipPath id="CLIPPATH_27">
	<rect transform="matrix(0.9916 -0.1293 0.1293 0.9916 -4.8798 -128.4303)" id="__lottie_element_2" x="-1000" y="-1000" rx="0" ry="0" width="2000" height="2000"/>
</clipPath>
<path style="stroke: none; stroke-width: 1; stroke-dasharray: none; stroke-linecap: butt; stroke-dashoffset: 0; stroke-linejoin: miter; stroke-miterlimit: 4; is-custom-font: none; font-file-url: none; fill: rgb(0,0,0); fill-rule: nonzero; opacity: 1;" transform=" translate(4.8877, -0.1)" d="M 2.6050000190734863 31.81599998474121 C 2.130000114440918 31.916000366210938 1.621000051498413 31.856000900268555 1.159999966621399 31.610000610351562 C 0.11500000208616257 31.05500030517578 -0.27900001406669617 29.761999130249023 0.2750000059604645 28.714000701904297 C 12.425999641418457 5.809000015258789 -16.516000747680664 -27.768999099731445 -16.812999725341797 -28.104000091552734 C -17.59000015258789 -28.996999740600586 -17.496999740600586 -30.35099983215332 -16.60300064086914 -31.12700080871582 C -15.717000007629395 -31.91699981689453 -14.357000350952148 -31.816999435424805 -13.585000038146973 -30.927000045776367 C -12.303999900817871 -29.464000701904297 17.589000701904297 5.2129998207092285 4.056000232696533 30.72599983215332 C 3.746999979019165 31.308000564575195 3.2039999961853027 31.690000534057617 2.6050000190734863 31.81599998474121 z" stroke-linecap="round"/>
</g>
		<g transform="matrix(0.9916 0.1293 -0.1293 0.9916 -29.5397 146.4158)" clip-path="url(#CLIPPATH_28)">
<clipPath id="CLIPPATH_28">
	<rect transform="matrix(0.9916 -0.1293 0.1293 0.9916 10.3631 -149.0061)" id="__lottie_element_2" x="-1000" y="-1000" rx="0" ry="0" width="2000" height="2000"/>
</clipPath>
<path style="stroke: none; stroke-width: 1; stroke-dasharray: none; stroke-linecap: butt; stroke-dashoffset: 0; stroke-linejoin: miter; stroke-miterlimit: 4; is-custom-font: none; font-file-url: none; fill: rgb(0,0,0); fill-rule: nonzero; opacity: 1;" transform=" translate(2.5635, -0.1199)" d="M -1.2910000085830688 19.197999954223633 C -1.7489999532699585 19.295000076293945 -2.243000030517578 19.243999481201172 -2.693000078201294 19.01300048828125 C -3.75 18.482999801635742 -4.177999973297119 17.19499969482422 -3.6429998874664307 16.13800048828125 C 3.5360000133514404 1.8609999418258667 -7.72599983215332 -15.510000228881836 -7.839000225067139 -15.682999610900879 C -8.491000175476074 -16.67099952697754 -8.218999862670898 -18.00200080871582 -7.230999946594238 -18.655000686645508 C -6.252999782562256 -19.295000076293945 -4.915999889373779 -19.035999298095703 -4.263999938964844 -18.048999786376953 C -3.739000082015991 -17.256999969482422 8.491000175476074 1.5529999732971191 0.18199999630451202 18.06399917602539 C -0.12300000339746475 18.672000885009766 -0.6759999990463257 19.069000244140625 -1.2910000085830688 19.197999954223633 z" stroke-linecap="round"/>
</g>
		<g transform="matrix(0.9916 0.1293 -0.1293 0.9916 -53.0428 155.5817)" clip-path="url(#CLIPPATH_29)">
<clipPath id="CLIPPATH_29">
	<rect transform="matrix(0.9916 -0.1293 0.1293 0.9916 32.4839 -161.1337)" id="__lottie_element_2" x="-1000" y="-1000" rx="0" ry="0" width="2000" height="2000"/>
</clipPath>
<path style="stroke: none; stroke-width: 1; stroke-dasharray: none; stroke-linecap: butt; stroke-dashoffset: 0; stroke-linejoin: miter; stroke-miterlimit: 4; is-custom-font: none; font-file-url: none; fill: rgb(0,0,0); fill-rule: nonzero; opacity: 1;" transform=" translate(1.9424, -0.0624)" d="M -4.255000114440918 17.55500030517578 C -4.86899995803833 17.68400001525879 -5.5329999923706055 17.538999557495117 -6.059000015258789 17.11199951171875 C -6.968999862670898 16.357999801635742 -7.103000164031982 15.008999824523926 -6.349999904632568 14.093999862670898 C 2.3329999446868896 3.546999931335449 -2.940999984741211 -14.557999610900879 -2.996000051498413 -14.73799991607666 C -3.3359999656677246 -15.869000434875488 -2.691999912261963 -17.06399917602539 -1.559000015258789 -17.4060001373291 C -0.5730000138282776 -17.684999465942383 0.7620000243186951 -17.108999252319336 1.1069999933242798 -15.970999717712402 C 1.3589999675750732 -15.138999938964844 7.103000164031982 4.493000030517578 -3.0399999618530273 16.82200050354004 C -3.3610000610351562 17.209999084472656 -3.7920000553131104 17.457000732421875 -4.255000114440918 17.55500030517578 z" stroke-linecap="round"/>
</g>
		<g transform="matrix(0.9916 0.1293 -0.1293 0.9916 -217.0105 41.0702)" clip-path="url(#CLIPPATH_30)">
<clipPath id="CLIPPATH_30">
	<rect transform="matrix(0.9916 -0.1293 0.1293 0.9916 209.8799 -68.7811)" id="__lottie_element_2" x="-1000" y="-1000" rx="0" ry="0" width="2000" height="2000"/>
</clipPath>
<path style="stroke: none; stroke-width: 1; stroke-dasharray: none; stroke-linecap: butt; stroke-dashoffset: 0; stroke-linejoin: miter; stroke-miterlimit: 4; is-custom-font: none; font-file-url: none; fill: rgb(255,188,16); fill-rule: nonzero; opacity: 1;" transform=" translate(-5.5516, -5.5519)" d="M 147.44900512695312 2.555999994277954 C 147.44900512695312 2.555999994277954 102.5989990234375 114.41000366210938 102.5989990234375 114.41000366210938 C 102.5989990234375 114.41000366210938 -84.08000183105469 57.1619987487793 -84.08000183105469 57.1619987487793 C -126.73600006103516 40.058998107910156 -147.4499969482422 -8.385000228881836 -130.3459930419922 -51.04100036621094 C -113.24299621582031 -93.69599914550781 -64.79900360107422 -114.41000366210938 -22.14299964904785 -97.30699920654297 C -22.14299964904785 -97.30699920654297 147.44900512695312 2.555999994277954 147.44900512695312 2.555999994277954 z" stroke-linecap="round"/>
</g>
		<g transform="matrix(0.9916 0.1293 -0.1293 0.9916 -151.1481 -2.1638)" clip-path="url(#CLIPPATH_31)">
<clipPath id="CLIPPATH_31">
	<rect transform="matrix(0.9916 -0.1293 0.1293 0.9916 150.1595 -17.3952)" id="__lottie_element_2" x="-1000" y="-1000" rx="0" ry="0" width="2000" height="2000"/>
</clipPath>
<path style="stroke: rgb(255,255,255); stroke-width: 3; stroke-dasharray: none; stroke-linecap: round; stroke-dashoffset: 0; stroke-linejoin: round; stroke-miterlimit: 4; is-custom-font: none; font-file-url: none; fill: rgb(0,0,0); fill-opacity: 0; fill-rule: nonzero; opacity: 1;" transform=" translate(0, 0)" d="M 73.1989974975586 43.10200119018555 C 73.1989974975586 43.10200119018555 -73.1989974975586 -43.10200119018555 -73.1989974975586 -43.10200119018555" stroke-linecap="round"/>
</g>
		<g transform="matrix(0.9916 0.1293 -0.1293 0.9916 -224.8922 120.5705)" clip-path="url(#CLIPPATH_32)">
<clipPath id="CLIPPATH_32">
	<rect transform="matrix(0.9916 -0.1293 0.1293 0.9916 207.4175 -148.6332)" id="__lottie_element_2" x="-1000" y="-1000" rx="0" ry="0" width="2000" height="2000"/>
</clipPath>
<path style="stroke: rgb(255,255,255); stroke-width: 3; stroke-dasharray: none; stroke-linecap: round; stroke-dashoffset: 0; stroke-linejoin: round; stroke-miterlimit: 4; is-custom-font: none; font-file-url: none; fill: rgb(0,0,0); fill-opacity: 0; fill-rule: nonzero; opacity: 1;" transform=" translate(0, 0)" d="M 86.1510009765625 26.41900062561035 C 86.1510009765625 26.41900062561035 -86.1510009765625 -26.41900062561035 -86.1510009765625 -26.41900062561035" stroke-linecap="round"/>
</g>
		<g transform="matrix(1 0 0 1 -16.603 184.82)" clip-path="url(#CLIPPATH_33)">
<clipPath id="CLIPPATH_33">
	<rect transform="matrix(1 0 0 1 16.603 -184.82)" id="__lottie_element_2" x="-1000" y="-1000" rx="0" ry="0" width="2000" height="2000"/>
</clipPath>
<path style="stroke: none; stroke-width: 1; stroke-dasharray: none; stroke-linecap: butt; stroke-dashoffset: 0; stroke-linejoin: miter; stroke-miterlimit: 4; is-custom-font: none; font-file-url: none; fill: rgb(0,0,0); fill-rule: nonzero; opacity: 1;" transform=" translate(0, 0)" d="M -198.98199462890625 15.496999740600586 C -198.98199462890625 15.496999740600586 198.98199462890625 15.496999740600586 198.98199462890625 15.496999740600586 C 206.38800048828125 15.496999740600586 212.39199829101562 9.493000030517578 212.39199829101562 2.0869998931884766 C 212.39199829101562 2.0869998931884766 212.39199829101562 -2.0869998931884766 212.39199829101562 -2.0869998931884766 C 212.39199829101562 -9.493000030517578 206.38800048828125 -15.496999740600586 198.98199462890625 -15.496999740600586 C 198.98199462890625 -15.496999740600586 -198.98199462890625 -15.496999740600586 -198.98199462890625 -15.496999740600586 C -206.38800048828125 -15.496999740600586 -212.39199829101562 -9.493000030517578 -212.39199829101562 -2.0869998931884766 C -212.39199829101562 -2.0869998931884766 -212.39199829101562 2.0869998931884766 -212.39199829101562 2.0869998931884766 C -212.39199829101562 9.493000030517578 -206.38800048828125 15.496999740600586 -198.98199462890625 15.496999740600586 z" stroke-linecap="round"/>
</g>
		<g transform="matrix(1 0 0 1 90.3304 105.429)" clip-path="url(#CLIPPATH_34)">
<clipPath id="CLIPPATH_34">
	<rect transform="matrix(1 0 0 1 -90.3304 -105.429)" id="__lottie_element_2" x="-1000" y="-1000" rx="0" ry="0" width="2000" height="2000"/>
</clipPath>
<path style="stroke: none; stroke-width: 1; stroke-dasharray: none; stroke-linecap: butt; stroke-dashoffset: 0; stroke-linejoin: miter; stroke-miterlimit: 4; is-custom-font: none; font-file-url: none; fill: rgb(0,73,217); fill-rule: nonzero; opacity: 1;" transform=" translate(1.4936, 0)" d="M -186.3070068359375 94.81800079345703 C -186.3070068359375 94.81800079345703 107.23999786376953 94.81800079345703 107.23999786376953 94.81800079345703 C 107.23999786376953 94.81800079345703 182.06399536132812 -74.42400360107422 182.06399536132812 -74.42400360107422 C 186.3070068359375 -84.02400207519531 179.2779998779297 -94.81800079345703 168.78199768066406 -94.81800079345703 C 168.78199768066406 -94.81800079345703 -102.46900177001953 -94.81800079345703 -102.46900177001953 -94.81800079345703 C -102.46900177001953 -94.81800079345703 -186.3070068359375 94.81800079345703 -186.3070068359375 94.81800079345703 z" stroke-linecap="round"/>
</g>
		<g transform="matrix(1 0 0 1 55.136 106.403)" clip-path="url(#CLIPPATH_35)">
<clipPath id="CLIPPATH_35">
	<rect transform="matrix(1 0 0 1 -55.136 -106.403)" id="__lottie_element_2" x="-1000" y="-1000" rx="0" ry="0" width="2000" height="2000"/>
</clipPath>
<path style="stroke: none; stroke-width: 1; stroke-dasharray: none; stroke-linecap: butt; stroke-dashoffset: 0; stroke-linejoin: miter; stroke-miterlimit: 4; is-custom-font: none; font-file-url: none; fill: rgb(255,255,255); fill-rule: nonzero; opacity: 1;" transform=" translate(0, 0)" d="M -24.930999755859375 -0.0010000000474974513 C -24.930999755859375 13.770000457763672 -13.770000457763672 24.93199920654297 0 24.93199920654297 C 13.770000457763672 24.93199920654297 24.930999755859375 13.770000457763672 24.930999755859375 -0.0010000000474974513 C 24.930999755859375 -13.770000457763672 13.770000457763672 -24.93199920654297 0 -24.93199920654297 C -13.770000457763672 -24.93199920654297 -24.930999755859375 -13.770000457763672 -24.930999755859375 -0.0010000000474974513 z" stroke-linecap="round"/>
</g>
		<g transform="matrix(1 0 0 1 210.2814 145.8476)" clip-path="url(#CLIPPATH_36)">
<clipPath id="CLIPPATH_36">
	<rect transform="matrix(1 0 0 1 -210.2814 -145.8476)" id="__lottie_element_2" x="-1000" y="-1000" rx="0" ry="0" width="2000" height="2000"/>
</clipPath>
<path style="stroke: none; stroke-width: 1; stroke-dasharray: none; stroke-linecap: butt; stroke-dashoffset: 0; stroke-linejoin: miter; stroke-miterlimit: 4; is-custom-font: none; font-file-url: none; fill: rgb(255,210,192); fill-rule: nonzero; opacity: 1;" transform=" translate(1.9096, -1.9116)" d="M -45.16400146484375 -37.415000915527344 C -40.86600112915039 -41.83300018310547 -35.35200119018555 -44.82699966430664 -29.499000549316406 -46.762001037597656 C -9.687999725341797 -53.310001373291016 49.05799865722656 -61.83000183105469 60.1150016784668 -42.736000061035156 C 70.70999908447266 -24.44499969482422 38.2239990234375 -18.70199966430664 38.2239990234375 -18.70199966430664 C 38.2239990234375 -18.70199966430664 65.3239974975586 -18.094999313354492 58.595001220703125 0.2329999953508377 C 52.974998474121094 15.538000106811523 35.4640007019043 15.972000122070312 35.4640007019043 15.972000122070312 C 35.4640007019043 15.972000122070312 63.59400177001953 19.299999237060547 47.27399826049805 38.78499984741211 C 30.95199966430664 58.27000045776367 -30.302000045776367 61.83000183105469 -50.505001068115234 55.19599914550781 C -70.70999908447266 48.5620002746582 -48.3849983215332 26.086999893188477 -48.3849983215332 26.086999893188477 C -48.3849983215332 26.086999893188477 -69.2239990234375 16.06399917602539 -65.6449966430664 3.930999994277954 C -61.85599899291992 -8.913000106811523 -43.19900131225586 -8.718000411987305 -43.19900131225586 -8.718000411987305 C -43.19900131225586 -8.718000411987305 -60.63600158691406 -21.509000778198242 -45.16400146484375 -37.415000915527344 z" stroke-linecap="round"/>
</g>
		<g transform="matrix(1 0 0 1 217.7325 128.9518)" clip-path="url(#CLIPPATH_37)">
<clipPath id="CLIPPATH_37">
	<rect transform="matrix(1 0 0 1 -217.7325 -128.9518)" id="__lottie_element_2" x="-1000" y="-1000" rx="0" ry="0" width="2000" height="2000"/>
</clipPath>
<path style="stroke: none; stroke-width: 1; stroke-dasharray: none; stroke-linecap: butt; stroke-dashoffset: 0; stroke-linejoin: miter; stroke-miterlimit: 4; is-custom-font: none; font-file-url: none; fill: rgb(0,0,0); fill-rule: nonzero; opacity: 1;" transform=" translate(0.0005, -0.0459)" d="M -37.27799987792969 7.525000095367432 C -38.41699981689453 7.525000095367432 -39.41699981689453 6.679999828338623 -39.57600021362305 5.519000053405762 C -39.75199890136719 4.248000144958496 -38.862998962402344 3.0769999027252197 -37.59199905395508 2.8949999809265137 C -37.59199905395508 2.8949999809265137 36.95500183105469 -7.425000190734863 36.95500183105469 -7.425000190734863 C 38.18600082397461 -7.525000095367432 39.39699935913086 -6.708000183105469 39.57500076293945 -5.436999797821045 C 39.750999450683594 -4.165999889373779 38.862998962402344 -2.994999885559082 37.59199905395508 -2.813999891281128 C 37.59199905395508 -2.813999891281128 -36.957000732421875 7.50600004196167 -36.957000732421875 7.50600004196167 C -37.064998626708984 7.514999866485596 -37.16899871826172 7.525000095367432 -37.27799987792969 7.525000095367432 z" stroke-linecap="round"/>
</g>
		<g transform="matrix(1 0 0 1 214.7866 163.1818)" clip-path="url(#CLIPPATH_38)">
<clipPath id="CLIPPATH_38">
	<rect transform="matrix(1 0 0 1 -214.7866 -163.1818)" id="__lottie_element_2" x="-1000" y="-1000" rx="0" ry="0" width="2000" height="2000"/>
</clipPath>
<path style="stroke: none; stroke-width: 1; stroke-dasharray: none; stroke-linecap: butt; stroke-dashoffset: 0; stroke-linejoin: miter; stroke-miterlimit: 4; is-custom-font: none; font-file-url: none; fill: rgb(0,0,0); fill-rule: nonzero; opacity: 1;" transform=" translate(0.0004, -0.0569)" d="M -37.46900177001953 7.0970001220703125 C -38.62099838256836 7.0970001220703125 -39.61899948120117 6.236999988555908 -39.77000045776367 5.065000057220459 C -39.928001403808594 3.7939999103546143 -39.03099822998047 2.632999897003174 -37.75400161743164 2.4690001010894775 C -37.75400161743164 2.4690001010894775 37.17399978637695 -6.9710001945495605 37.17399978637695 -6.9710001945495605 C 38.40800094604492 -7.0980000495910645 39.60599899291992 -6.2270002365112305 39.76900100708008 -4.955999851226807 C 39.928001403808594 -3.684999942779541 39.029998779296875 -2.5230000019073486 37.755001068115234 -2.3589999675750732 C 37.755001068115234 -2.3589999675750732 -37.17300033569336 7.079999923706055 -37.17300033569336 7.079999923706055 C -37.27399826049805 7.089000225067139 -37.36800003051758 7.0970001220703125 -37.46900177001953 7.0970001220703125 z" stroke-linecap="round"/>
</g>
		<g transform="matrix(0.9999 0.0108 -0.0108 0.9999 -51.4483 -425.5789)" clip-path="url(#CLIPPATH_39)">
<clipPath id="CLIPPATH_39">
	<rect transform="matrix(0.9999 -0.0108 0.0108 0.9999 56.0323 425.0001)" id="__lottie_element_2" x="-1000" y="-1000" rx="0" ry="0" width="2000" height="2000"/>
</clipPath>
<path style="stroke: none; stroke-width: 1; stroke-dasharray: none; stroke-linecap: butt; stroke-dashoffset: 0; stroke-linejoin: miter; stroke-miterlimit: 4; is-custom-font: none; font-file-url: none; fill: rgb(0,0,0); fill-rule: nonzero; opacity: 1;" transform=" translate(-0.0143, -1.548)" d="M -7.751999855041504 6.249000072479248 C -8.204999923706055 6.249000072479248 -8.659000396728516 6.122000217437744 -9.059000015258789 5.849999904632568 C -10.121000289916992 5.124000072479248 -10.392999649047852 3.680000066757202 -9.670999526977539 2.61899995803833 C -3.6449999809265137 -6.249000072479248 8.055999755859375 -2.3010001182556152 8.545000076293945 -2.13700008392334 C 9.756999969482422 -1.7100000381469727 10.392999649047852 -0.39500001072883606 9.975000381469727 0.8119999766349792 C 9.562000274658203 2.0290000438690186 8.25 2.6549999713897705 7.026000022888184 2.255000114440918 C 6.671000003814697 2.13700008392334 -1.8009999990463257 -0.6759999990463257 -5.831999778747559 5.23199987411499 C -6.281000137329102 5.894999980926514 -7.01200008392334 6.249000072479248 -7.751999855041504 6.249000072479248 z" stroke-linecap="round"/>
</g>
		<g transform="matrix(0.9999 0.0108 -0.0108 0.9999 -11.16 -426.8918)" clip-path="url(#CLIPPATH_40)">
<clipPath id="CLIPPATH_40">
	<rect transform="matrix(0.9999 -0.0108 0.0108 0.9999 15.7605 426.7471)" id="__lottie_element_2" x="-1000" y="-1000" rx="0" ry="0" width="2000" height="2000"/>
</clipPath>
<path style="stroke: none; stroke-width: 1; stroke-dasharray: none; stroke-linecap: butt; stroke-dashoffset: 0; stroke-linejoin: miter; stroke-miterlimit: 4; is-custom-font: none; font-file-url: none; fill: rgb(0,0,0); fill-rule: nonzero; opacity: 1;" transform=" translate(-0.0011, 0)" d="M 8.26200008392334 4.960000038146973 C 7.622000217437744 4.960000038146973 6.986000061035156 4.697000026702881 6.5229997634887695 4.179999828338623 C 5.4070000648498535 2.927000045776367 1.74399995803833 -0.31299999356269836 -1.7450000047683716 -0.31299999356269836 C -3.510999917984009 -0.3050000071525574 -5.061999797821045 0.5040000081062317 -6.513999938964844 2.1470000743865967 C -7.36299991607666 3.1080000400543213 -8.829999923706055 3.200000047683716 -9.791999816894531 2.3559999465942383 C -10.758999824523926 1.5119999647140503 -10.847999572753906 0.04100000113248825 -10 -0.921999990940094 C -7.650000095367432 -3.5999999046325684 -4.876999855041504 -4.952000141143799 -1.7599999904632568 -4.960000038146973 C 4.566999912261963 -4.960000038146973 9.781999588012695 0.8489999771118164 10 1.093000054359436 C 10.847999572753906 2.055000066757202 10.76200008392334 3.5179998874664307 9.805000305175781 4.370999813079834 C 9.359999656677246 4.761000156402588 8.810999870300293 4.960000038146973 8.26200008392334 4.960000038146973 z" stroke-linecap="round"/>
</g>
		<g transform="matrix(0.9999 0.0108 -0.0108 0.9999 -46.9672 -400.5501)" clip-path="url(#CLIPPATH_41)">
<clipPath id="CLIPPATH_41">
	<rect transform="matrix(0.9999 -0.0108 0.0108 0.9999 51.2816 400.0211)" id="__lottie_element_2" x="-1000" y="-1000" rx="0" ry="0" width="2000" height="2000"/>
</clipPath>
<path style="stroke: none; stroke-width: 1; stroke-dasharray: none; stroke-linecap: butt; stroke-dashoffset: 0; stroke-linejoin: miter; stroke-miterlimit: 4; is-custom-font: none; font-file-url: none; fill: rgb(0,0,0); fill-rule: nonzero; opacity: 1;" transform=" translate(0, 0)" d="M 0 9.557999610900879 C -1.284000039100647 9.557999610900879 -2.3239998817443848 8.513999938964844 -2.3239998817443848 7.234000205993652 C -2.3239998817443848 7.234000205993652 -2.3239998817443848 -7.234000205993652 -2.3239998817443848 -7.234000205993652 C -2.3239998817443848 -8.515000343322754 -1.284000039100647 -9.557999610900879 0 -9.557999610900879 C 1.284999966621399 -9.557999610900879 2.3239998817443848 -8.515000343322754 2.3239998817443848 -7.234000205993652 C 2.3239998817443848 -7.234000205993652 2.3239998817443848 7.234000205993652 2.3239998817443848 7.234000205993652 C 2.3239998817443848 8.513999938964844 1.284999966621399 9.557999610900879 0 9.557999610900879 z" stroke-linecap="round"/>
</g>
		<g transform="matrix(0.9999 0.0108 -0.0108 0.9999 -8.1934 -400.1321)" clip-path="url(#CLIPPATH_42)">
<clipPath id="CLIPPATH_42">
	<rect transform="matrix(0.9999 -0.0108 0.0108 0.9999 12.5056 400.0211)" id="__lottie_element_2" x="-1000" y="-1000" rx="0" ry="0" width="2000" height="2000"/>
</clipPath>
<path style="stroke: none; stroke-width: 1; stroke-dasharray: none; stroke-linecap: butt; stroke-dashoffset: 0; stroke-linejoin: miter; stroke-miterlimit: 4; is-custom-font: none; font-file-url: none; fill: rgb(0,0,0); fill-rule: nonzero; opacity: 1;" transform=" translate(0, 0)" d="M 0.0010000000474974513 9.557999610900879 C -1.284000039100647 9.557999610900879 -2.3239998817443848 8.513999938964844 -2.3239998817443848 7.234000205993652 C -2.3239998817443848 7.234000205993652 -2.3239998817443848 -7.234000205993652 -2.3239998817443848 -7.234000205993652 C -2.3239998817443848 -8.515000343322754 -1.284000039100647 -9.557999610900879 0.0010000000474974513 -9.557999610900879 C 1.284999966621399 -9.557999610900879 2.3239998817443848 -8.515000343322754 2.3239998817443848 -7.234000205993652 C 2.3239998817443848 -7.234000205993652 2.3239998817443848 7.234000205993652 2.3239998817443848 7.234000205993652 C 2.3239998817443848 8.513999938964844 1.284999966621399 9.557999610900879 0.0010000000474974513 9.557999610900879 z" stroke-linecap="round"/>
</g>
		<g transform="matrix(0.9999 0.0108 -0.0108 0.9999 -59.7822 -455.5275)" clip-path="url(#CLIPPATH_43)">
<clipPath id="CLIPPATH_43">
	<rect transform="matrix(0.9999 -0.0108 0.0108 0.9999 64.6886 454.8571)" id="__lottie_element_2" x="-1000" y="-1000" rx="0" ry="0" width="2000" height="2000"/>
</clipPath>
<path style="stroke: none; stroke-width: 1; stroke-dasharray: none; stroke-linecap: butt; stroke-dashoffset: 0; stroke-linejoin: miter; stroke-miterlimit: 4; is-custom-font: none; font-file-url: none; fill: rgb(0,0,0); fill-rule: nonzero; opacity: 1;" transform=" translate(0, 0)" d="M 58.44200134277344 -14.722999572753906 C 66.572998046875 17.55299949645996 47 50.31100082397461 14.723999977111816 58.44200134277344 C -17.55299949645996 66.572998046875 -50.310001373291016 47 -58.44200134277344 14.723999977111816 C -66.572998046875 -17.55299949645996 -47 -50.310001373291016 -14.723999977111816 -58.44200134277344 C 17.55299949645996 -66.572998046875 50.31100082397461 -46.999000549316406 58.44200134277344 -14.722999572753906 z" stroke-linecap="round"/>
</g>
		<g transform="matrix(0.9999 0.0108 -0.0108 0.9999 3.0814 -467.2615)" clip-path="url(#CLIPPATH_44)">
<clipPath id="CLIPPATH_44">
	<rect transform="matrix(0.9999 -0.0108 0.0108 0.9999 1.9551 467.2681)" id="__lottie_element_2" x="-1000" y="-1000" rx="0" ry="0" width="2000" height="2000"/>
</clipPath>
<path style="stroke: none; stroke-width: 1; stroke-dasharray: none; stroke-linecap: butt; stroke-dashoffset: 0; stroke-linejoin: miter; stroke-miterlimit: 4; is-custom-font: none; font-file-url: none; fill: rgb(0,0,0); fill-rule: nonzero; opacity: 1;" transform=" translate(-0.0005, 0)" d="M 30.805999755859375 -7.761000156402588 C 35.09199905395508 9.251999855041504 24.774999618530273 26.518999099731445 7.761000156402588 30.80500030517578 C -9.251999855041504 35.09199905395508 -26.518999099731445 24.774999618530273 -30.80500030517578 7.761000156402588 C -35.090999603271484 -9.251999855041504 -24.77400016784668 -26.518999099731445 -7.760000228881836 -30.80500030517578 C 9.253000259399414 -35.09199905395508 26.520000457763672 -24.774999618530273 30.805999755859375 -7.761000156402588 z" stroke-linecap="round"/>
</g>
		<g transform="matrix(0.9999 0.0108 -0.0108 0.9999 -48.1585 -405.7226)" clip-path="url(#CLIPPATH_45)">
<clipPath id="CLIPPATH_45">
	<rect transform="matrix(0.9999 -0.0108 0.0108 0.9999 52.5286 405.1804)" id="__lottie_element_2" x="-1000" y="-1000" rx="0" ry="0" width="2000" height="2000"/>
</clipPath>
<path style="stroke: none; stroke-width: 1; stroke-dasharray: none; stroke-linecap: butt; stroke-dashoffset: 0; stroke-linejoin: miter; stroke-miterlimit: 4; is-custom-font: none; font-file-url: none; fill: rgb(255,210,192); fill-rule: nonzero; opacity: 1;" transform=" translate(0, -0.6127)" d="M 69.57599639892578 -37.797000885009766 C 66.83899688720703 -38.94300079345703 64.19300079345703 -40.31700134277344 61.69200134277344 -41.78200149536133 C 52.93299865722656 -46.88199996948242 44.39899826049805 -53.152000427246094 34.35200119018555 -54.459999084472656 C 22.19700050354004 -56.034000396728516 10.364999771118164 -49.99399948120117 -1.8539999723434448 -49.029998779296875 C -15.303999900817871 -47.94200134277344 -29.937000274658203 -52.80400085449219 -41.731998443603516 -46.25400161743164 C -58.63399887084961 -36.858001708984375 -58.327999114990234 -10.545000076293945 -72.37200164794922 1.9500000476837158 C -71.67400360107422 4.426000118255615 -70.85900115966797 6.855999946594238 -69.93000030517578 9.218000411987305 C -67.98500061035156 14.142999649047852 -65.52799987792969 18.809999465942383 -62.619998931884766 23.139999389648438 C -50.92100143432617 40.72200012207031 -31.78700065612793 52.92599868774414 -9.916999816894531 55.446998596191406 C -6.130000114440918 55.90299987792969 -2.313999891281128 56.03499984741211 1.5809999704360962 55.888999938964844 C 35.87799835205078 54.518001556396484 63.81399917602539 29.881000518798828 70.66899871826172 -2.1679999828338623 C 71.79399871826172 -7.2729997634887695 72.35700225830078 -12.553000450134277 72.35900115966797 -17.988000869750977 C 72.35900115966797 -17.988000869750977 72.31999969482422 -17.9950008392334 72.31999969482422 -17.9950008392334 C 72.31999969482422 -17.9950008392334 72.37200164794922 -18.010000228881836 72.37200164794922 -18.010000228881836 C 72.37000274658203 -18.89900016784668 72.34400177001953 -19.743999481201172 72.31999969482422 -20.64699935913086 C 72.08699798583984 -26.577999114990234 71.15599822998047 -32.33399963378906 69.57599639892578 -37.797000885009766 z M 59.42100143432617 -26.43000030517578 C 59.42100143432617 -26.43000030517578 59.40800094604492 -26.408000946044922 59.40800094604492 -26.408000946044922 C 59.39899826049805 -26.886999130249023 59.375 -27.344999313354492 59.3390007019043 -27.7810001373291 C 59.375 -27.344999313354492 59.42900085449219 -26.913999557495117 59.42100143432617 -26.43000030517578 z" stroke-linecap="round"/>
</g>
		<g transform="matrix(0.9999 0.0108 -0.0108 0.9999 -72.9927 -328.6923)" clip-path="url(#CLIPPATH_46)">
<clipPath id="CLIPPATH_46">
	<rect transform="matrix(0.9999 -0.0108 0.0108 0.9999 76.5311 327.8868)" id="__lottie_element_2" x="-1000" y="-1000" rx="0" ry="0" width="2000" height="2000"/>
</clipPath>
<path style="stroke: none; stroke-width: 1; stroke-dasharray: none; stroke-linecap: butt; stroke-dashoffset: 0; stroke-linejoin: miter; stroke-miterlimit: 4; is-custom-font: none; font-file-url: none; fill: rgb(255,210,192); fill-rule: nonzero; opacity: 1;" transform=" translate(0.4815, 0.4877)" d="M 32.595001220703125 -27.280000686645508 C 32.595001220703125 -27.280000686645508 35.66600036621094 -5.507999897003174 35.66600036621094 -5.507999897003174 C 35.66600036621094 -5.507999897003174 38.095001220703125 11.904999732971191 38.095001220703125 11.904999732971191 C 38.095001220703125 11.904999732971191 40.777000427246094 30.961000442504883 40.777000427246094 30.961000442504883 C 44.209999084472656 55.36899948120117 25.820999145507812 77.40699768066406 1.1920000314712524 78.39800262451172 C -23.924999237060547 79.40799713134766 -44.209999084472656 58.11600112915039 -41.986000061035156 33.077999114990234 C -41.986000061035156 33.077999114990234 -41.92900085449219 32.446998596191406 -41.92900085449219 32.446998596191406 C -41.92900085449219 32.446998596191406 -37.74300003051758 -63.63199996948242 -37.74300003051758 -63.63199996948242 C -37.74300003051758 -63.63199996948242 -37.07699966430664 -79.40799713134766 -37.07699966430664 -79.40799713134766 C -37.07699966430664 -79.40799713134766 -27.676000595092773 -58.5099983215332 -27.676000595092773 -58.5099983215332 C -27.676000595092773 -58.5099983215332 32.595001220703125 -27.280000686645508 32.595001220703125 -27.280000686645508 z" stroke-linecap="round"/>
</g>
		<g transform="matrix(0.9999 0.0108 -0.0108 0.9999 -61.5931 -349.1659)" clip-path="url(#CLIPPATH_47)">
<clipPath id="CLIPPATH_47">
	<rect transform="matrix(0.9999 -0.0108 0.0108 0.9999 65.3529 348.4821)" id="__lottie_element_2" x="-1000" y="-1000" rx="0" ry="0" width="2000" height="2000"/>
</clipPath>
<path style="stroke: none; stroke-width: 1; stroke-dasharray: none; stroke-linecap: butt; stroke-dashoffset: 0; stroke-linejoin: miter; stroke-miterlimit: 4; is-custom-font: none; font-file-url: none; fill: rgb(0,0,0); fill-rule: nonzero; opacity: 1;" transform=" translate(-0.6477, 0)" d="M 30.047000885009766 0.8550000190734863 C 30.047000885009766 0.8550000190734863 29.275999069213867 22.82900047302246 29.275999069213867 22.82900047302246 C 29.275999069213867 22.82900047302246 28.635000228881836 40.39899826049805 28.635000228881836 40.39899826049805 C 3.8399999141693115 33.2599983215332 -21.924999237060547 23.009000778198242 -28.465999603271484 -2 C -30.047000885009766 -8.027999877929688 -24.547000885009766 -23.854999542236328 -24.547000885009766 -30.35300064086914 C -24.547000885009766 -33.77299880981445 -24.33300018310547 -37.106998443603516 -23.863000869750977 -40.39899826049805 C -23.863000869750977 -40.39899826049805 30.047000885009766 0.8550000190734863 30.047000885009766 0.8550000190734863 z" stroke-linecap="round"/>
</g>
		<g transform="matrix(0.9999 0.0108 -0.0108 0.9999 -49.6812 -375.2333)" clip-path="url(#CLIPPATH_48)">
<clipPath id="CLIPPATH_48">
	<rect transform="matrix(0.9999 -0.0108 0.0108 0.9999 53.7226 374.6764)" id="__lottie_element_2" x="-1000" y="-1000" rx="0" ry="0" width="2000" height="2000"/>
</clipPath>
<path style="stroke: none; stroke-width: 1; stroke-dasharray: none; stroke-linecap: butt; stroke-dashoffset: 0; stroke-linejoin: miter; stroke-miterlimit: 4; is-custom-font: none; font-file-url: none; fill: rgb(255,210,192); fill-rule: nonzero; opacity: 1;" transform=" translate(0, 0.3263)" d="M 3.5380001068115234 49.70000076293945 C 3.5380001068115234 49.70000076293945 3.5380001068115234 49.70000076293945 3.5380001068115234 49.70000076293945 C -27.52199935913086 50.367000579833984 -54.83599853515625 29.267000198364258 -62.03300094604492 -0.9549999833106995 C -62.03300094604492 -0.9549999833106995 -73.8010025024414 -50.36800003051758 -73.8010025024414 -50.36800003051758 C -73.8010025024414 -50.36800003051758 73.8010025024414 -44.58300018310547 73.8010025024414 -44.58300018310547 C 73.8010025024414 -44.58300018310547 70.71299743652344 -10.309000015258789 70.71299743652344 -10.309000015258789 C 66.37300109863281 21.8799991607666 36.01100158691406 49.00299835205078 3.5380001068115234 49.70000076293945 z" stroke-linecap="round"/>
</g>
		<g transform="matrix(0.9999 0.0108 -0.0108 0.9999 -6.1277 -414.2811)" clip-path="url(#CLIPPATH_49)">
<clipPath id="CLIPPATH_49">
	<rect transform="matrix(0.9999 -0.0108 0.0108 0.9999 10.5926 414.1914)" id="__lottie_element_2" x="-1000" y="-1000" rx="0" ry="0" width="2000" height="2000"/>
</clipPath>
<path style="stroke: rgb(0,0,0); stroke-width: 3.206; stroke-dasharray: none; stroke-linecap: round; stroke-dashoffset: 0; stroke-linejoin: round; stroke-miterlimit: 4; is-custom-font: none; font-file-url: none; fill: rgb(0,0,0); fill-opacity: 0; fill-rule: nonzero; opacity: 1;" transform=" translate(0, -2.9397)" d="M -10.371999740600586 4.263000011444092 C -10.371999740600586 4.263000011444092 2.1689999103546143 -5.633999824523926 10.371999740600586 5.635000228881836" stroke-linecap="round"/>
</g>
		<g transform="matrix(0.9999 0.0108 -0.0108 0.9999 -43.5524 -419.339)" clip-path="url(#CLIPPATH_50)">
<clipPath id="CLIPPATH_50">
	<rect transform="matrix(0.9999 -0.0108 0.0108 0.9999 48.0696 418.8456)" id="__lottie_element_2" x="-1000" y="-1000" rx="0" ry="0" width="2000" height="2000"/>
</clipPath>
<path style="stroke: rgb(0,0,0); stroke-width: 3.206; stroke-dasharray: none; stroke-linecap: round; stroke-dashoffset: 0; stroke-linejoin: round; stroke-miterlimit: 4; is-custom-font: none; font-file-url: none; fill: rgb(0,0,0); fill-opacity: 0; fill-rule: nonzero; opacity: 1;" transform=" translate(0, -3.5864)" d="M -10.369999885559082 6.855999946594238 C -10.369999885559082 6.855999946594238 -1.1979999542236328 -6.855999946594238 10.369999885559082 5.432000160217285" stroke-linecap="round"/>
</g>
		<g transform="matrix(0.9999 0.0108 -0.0108 0.9999 -48.0869 -396.354)" clip-path="url(#CLIPPATH_51)">
<clipPath id="CLIPPATH_51">
	<rect transform="matrix(0.9999 -0.0108 0.0108 0.9999 52.3561 395.8131)" id="__lottie_element_2" x="-1000" y="-1000" rx="0" ry="0" width="2000" height="2000"/>
</clipPath>
<path style="stroke: none; stroke-width: 1; stroke-dasharray: none; stroke-linecap: butt; stroke-dashoffset: 0; stroke-linejoin: miter; stroke-miterlimit: 4; is-custom-font: none; font-file-url: none; fill: rgb(0,0,0); fill-rule: nonzero; opacity: 1;" transform=" translate(0.0005, 0)" d="M 4.051000118255615 -0.16099999845027924 C 4.139999866485596 2.0759999752044678 2.3970000743865967 3.9619998931884766 0.1599999964237213 4.051000118255615 C -2.0769999027252197 4.139999866485596 -3.9630000591278076 2.3980000019073486 -4.052000045776367 0.16099999845027924 C -4.139999866485596 -2.0769999027252197 -2.3989999294281006 -3.9619998931884766 -0.16200000047683716 -4.051000118255615 C 2.075000047683716 -4.139999866485596 3.9619998931884766 -2.3980000019073486 4.051000118255615 -0.16099999845027924 z" stroke-linecap="round"/>
</g>
		<g transform="matrix(0.9999 0.0108 -0.0108 0.9999 -2.2336 -395.5342)" clip-path="url(#CLIPPATH_52)">
<clipPath id="CLIPPATH_52">
	<rect transform="matrix(0.9999 -0.0108 0.0108 0.9999 6.4966 395.4876)" id="__lottie_element_2" x="-1000" y="-1000" rx="0" ry="0" width="2000" height="2000"/>
</clipPath>
<path style="stroke: none; stroke-width: 1; stroke-dasharray: none; stroke-linecap: butt; stroke-dashoffset: 0; stroke-linejoin: miter; stroke-miterlimit: 4; is-custom-font: none; font-file-url: none; fill: rgb(0,0,0); fill-rule: nonzero; opacity: 1;" transform=" translate(0, -0.0005)" d="M -0.11400000005960464 4.052000045776367 C -2.3519999980926514 3.989000082015991 -4.116000175476074 2.122999906539917 -4.052999973297119 -0.11500000208616257 C -3.990000009536743 -2.3529999256134033 -2.124000072479248 -4.114999771118164 0.11400000005960464 -4.051000118255615 C 2.3519999980926514 -3.989000082015991 4.116000175476074 -2.124000072479248 4.052999973297119 0.11400000005960464 C 3.990000009536743 2.3519999980926514 2.124000072479248 4.114999771118164 -0.11400000005960464 4.052000045776367 z" stroke-linecap="round"/>
</g>
		<g transform="matrix(0.9999 0.0108 -0.0108 0.9999 -26.1877 -385.6009)" clip-path="url(#CLIPPATH_53)">
<clipPath id="CLIPPATH_53">
	<rect transform="matrix(0.9999 -0.0108 0.0108 0.9999 30.3423 385.2967)" id="__lottie_element_2" x="-1000" y="-1000" rx="0" ry="0" width="2000" height="2000"/>
</clipPath>
<path style="stroke: rgb(0,0,0); stroke-width: 3.206; stroke-dasharray: none; stroke-linecap: round; stroke-dashoffset: 0; stroke-linejoin: round; stroke-miterlimit: 4; is-custom-font: none; font-file-url: none; fill: rgb(0,0,0); fill-opacity: 0; fill-rule: nonzero; opacity: 1;" transform=" translate(0.5597, 0.3277)" d="M 3.4739999771118164 -15.935999870300293 C 3.4739999771118164 -15.935999870300293 6.045000076293945 7.7779998779296875 4.343999862670898 13.442000389099121 C 4.333000183105469 13.439000129699707 -0.9330000281333923 15.935999870300293 -6.045000076293945 15.114999771118164" stroke-linecap="round"/>
</g>
		<g transform="matrix(0.9999 0.0108 -0.0108 0.9999 -32.9225 -361.0205)" clip-path="url(#CLIPPATH_54)">
<clipPath id="CLIPPATH_54">
	<rect transform="matrix(0.9999 -0.0108 0.0108 0.9999 36.8116 360.6452)" id="__lottie_element_2" x="-1000" y="-1000" rx="0" ry="0" width="2000" height="2000"/>
</clipPath>
<path style="stroke: rgb(0,0,0); stroke-width: 3.206; stroke-dasharray: none; stroke-linecap: round; stroke-dashoffset: 0; stroke-linejoin: round; stroke-miterlimit: 4; is-custom-font: none; font-file-url: none; fill: rgb(0,0,0); fill-opacity: 0; fill-rule: nonzero; opacity: 1;" transform=" translate(0, 0.9621)" d="M 8.378000259399414 -1.8539999723434448 C 8.378000259399414 -1.8539999723434448 0.8569999933242798 1.8539999723434448 -8.378000259399414 -1.4220000505447388" stroke-linecap="round"/>
</g>
		<g transform="matrix(0.9999 0.0108 -0.0108 0.9999 -113.1088 -386.9334)" clip-path="url(#CLIPPATH_55)">
<clipPath id="CLIPPATH_55">
	<rect transform="matrix(0.9999 -0.0108 0.0108 0.9999 117.2726 385.6921)" id="__lottie_element_2" x="-1000" y="-1000" rx="0" ry="0" width="2000" height="2000"/>
</clipPath>
<path style="stroke: none; stroke-width: 1; stroke-dasharray: none; stroke-linecap: butt; stroke-dashoffset: 0; stroke-linejoin: miter; stroke-miterlimit: 4; is-custom-font: none; font-file-url: none; fill: rgb(255,210,192); fill-rule: nonzero; opacity: 1;" transform=" translate(0, 0)" d="M 13.550000190734863 -0.5389999747276306 C 13.847000122070312 6.943999767303467 8.020999908447266 13.251999855041504 0.5379999876022339 13.548999786376953 C -6.945000171661377 13.845999717712402 -13.251999855041504 8.022000312805176 -13.550000190734863 0.5389999747276306 C -13.847000122070312 -6.943999767303467 -8.020999908447266 -13.251999855041504 -0.5379999876022339 -13.548999786376953 C 6.945000171661377 -13.845999717712402 13.253000259399414 -8.022000312805176 13.550000190734863 -0.5389999747276306 z" stroke-linecap="round"/>
</g>
		<g transform="matrix(0.9999 0.0108 -0.0108 0.9999 -50.3896 -451.1016)" clip-path="url(#CLIPPATH_56)">
<clipPath id="CLIPPATH_56">
	<rect transform="matrix(0.9999 -0.0108 0.0108 0.9999 55.2489 450.5326)" id="__lottie_element_2" x="-1000" y="-1000" rx="0" ry="0" width="2000" height="2000"/>
</clipPath>
<path style="stroke: none; stroke-width: 1; stroke-dasharray: none; stroke-linecap: butt; stroke-dashoffset: 0; stroke-linejoin: miter; stroke-miterlimit: 4; is-custom-font: none; font-file-url: none; fill: rgb(0,0,0); fill-rule: nonzero; opacity: 1;" transform=" translate(-0.2157, -0.6544)" d="M 72.51200103759766 7.5970001220703125 C 69.7750015258789 6.451000213623047 67.12899780273438 5.077000141143799 64.62699890136719 3.611999988555908 C 55.86899948120117 -1.4880000352859497 47.334999084472656 -7.757999897003174 37.2869987487793 -9.065999984741211 C 25.132999420166016 -10.640000343322754 13.302000045776367 -4.599999904632568 1.0820000171661377 -3.634999990463257 C -12.366999626159668 -2.546999931335449 -27.000999450683594 -7.408999919891357 -38.79600143432617 -0.859000027179718 C -55.696998596191406 8.53600025177002 -55.391998291015625 34.8489990234375 -69.43599700927734 47.345001220703125 C -70.6780014038086 42.85499954223633 -71.50700378417969 38.167999267578125 -71.86900329589844 33.34400177001953 C -71.9489974975586 32.4370002746582 -71.98200225830078 31.499000549316406 -72.02300262451172 30.60099983215332 C -72.51200103759766 18.131999969482422 -69.86399841308594 6.263999938964844 -64.7979965209961 -4.249000072479248 C -63.3650016784668 -3.6449999809265137 -61.91600036621094 -3.0460000038146973 -60.42399978637695 -2.494999885559082 C -61.90399932861328 -3.068000078201294 -63.3650016784668 -3.6449999809265137 -64.78399658203125 -4.270999908447266 C -61.42100143432617 -11.23799991607666 -57.018001556396484 -17.61400032043457 -51.720001220703125 -23.158000946044922 C -38.99599838256836 -36.54600143432617 -21.2549991607666 -45.1879997253418 -1.3320000171661377 -45.97800064086914 C 33.393001556396484 -47.345001220703125 63.472999572753906 -24.452999114990234 72.51200103759766 7.5970001220703125 z" stroke-linecap="round"/>
</g>
		<g transform="matrix(0.9999 0.0108 -0.0108 0.9999 -97.6371 -451.2923)" clip-path="url(#CLIPPATH_57)">
<clipPath id="CLIPPATH_57">
	<rect transform="matrix(0.9999 -0.0108 0.0108 0.9999 102.4955 450.2141)" id="__lottie_element_2" x="-1000" y="-1000" rx="0" ry="0" width="2000" height="2000"/>
</clipPath>
<path style="stroke: none; stroke-width: 1; stroke-dasharray: none; stroke-linecap: butt; stroke-dashoffset: 0; stroke-linejoin: miter; stroke-miterlimit: 4; is-custom-font: none; font-file-url: none; fill: rgb(0,0,0); fill-rule: nonzero; opacity: 1;" transform=" translate(-0.0011, 0)" d="M -0.15700000524520874 -0.032999999821186066 C -0.039000000804662704 -0.007000000216066837 0.05700000002980232 0.007000000216066837 0.17499999701976776 0.032999999821186066 C 0.061000000685453415 0.024000000208616257 -0.052000001072883606 0.01600000075995922 -0.17000000178813934 -0.009999999776482582 C -0.17499999701976776 -0.02800000086426735 -0.17499999701976776 -0.028999999165534973 -0.15700000524520874 -0.032999999821186066 z" stroke-linecap="round"/>
</g>
		<g transform="matrix(0.9999 0.0108 -0.0108 0.9999 -50.1613 -473.3808)" clip-path="url(#CLIPPATH_58)">
<clipPath id="CLIPPATH_58">
	<rect transform="matrix(0.9999 -0.0108 0.0108 0.9999 55.2606 472.8131)" id="__lottie_element_2" x="-1000" y="-1000" rx="0" ry="0" width="2000" height="2000"/>
</clipPath>
<path style="stroke: none; stroke-width: 1; stroke-dasharray: none; stroke-linecap: butt; stroke-dashoffset: 0; stroke-linejoin: miter; stroke-miterlimit: 4; is-custom-font: none; font-file-url: none; fill: rgb(0,0,0); fill-rule: nonzero; opacity: 1;" transform=" translate(0, 0)" d="M -0.8859999775886536 -0.35199999809265137 C -0.2930000126361847 -0.20499999821186066 0.3009999990463257 0.017000000923871994 0.8859999775886536 0.35199999809265137 C 0.3050000071525574 0.03500000014901161 -0.2879999876022339 -0.18700000643730164 -0.8859999775886536 -0.35199999809265137 z" stroke-linecap="round"/>
</g>
		<g transform="matrix(0.9999 0.0108 -0.0108 0.9999 -45.801 -469.8606)" clip-path="url(#CLIPPATH_59)">
<clipPath id="CLIPPATH_59">
	<rect transform="matrix(0.9999 -0.0108 0.0108 0.9999 50.8626 469.3401)" id="__lottie_element_2" x="-1000" y="-1000" rx="0" ry="0" width="2000" height="2000"/>
</clipPath>
<path style="stroke: none; stroke-width: 1; stroke-dasharray: none; stroke-linecap: butt; stroke-dashoffset: 0; stroke-linejoin: miter; stroke-miterlimit: 4; is-custom-font: none; font-file-url: none; fill: rgb(0,0,0); fill-rule: nonzero; opacity: 1;" transform=" translate(0, 0)" d="M -0.11400000005960464 -0.15700000524520874 C 0.10499999672174454 0.12099999934434891 0.3190000057220459 0.382999986410141 0.5329999923706055 0.6439999938011169 C 0.3019999861717224 0.3869999945163727 0.08699999749660492 0.12600000202655792 -0.13099999725818634 -0.15299999713897705 C -0.2669999897480011 -0.3230000138282776 -0.4020000100135803 -0.4909999966621399 -0.5329999923706055 -0.6439999938011169 C -0.38499999046325684 -0.4959999918937683 -0.24899999797344208 -0.3269999921321869 -0.11400000005960464 -0.15700000524520874 z" stroke-linecap="round"/>
</g>
		<g transform="matrix(0.9999 0.0108 -0.0108 0.9999 -44.259 -468.1789)" clip-path="url(#CLIPPATH_60)">
<clipPath id="CLIPPATH_60">
	<rect transform="matrix(0.9999 -0.0108 0.0108 0.9999 49.3026 467.6751)" id="__lottie_element_2" x="-1000" y="-1000" rx="0" ry="0" width="2000" height="2000"/>
</clipPath>
<path style="stroke: none; stroke-width: 1; stroke-dasharray: none; stroke-linecap: butt; stroke-dashoffset: 0; stroke-linejoin: miter; stroke-miterlimit: 4; is-custom-font: none; font-file-url: none; fill: rgb(0,0,0); fill-rule: nonzero; opacity: 1;" transform=" translate(0, 0)" d="M 1.0269999504089355 1.0210000276565552 C 0.3019999861717224 0.42500001192092896 -0.3720000088214874 -0.2590000033378601 -1.0269999504089355 -1.0210000276565552 C -0.3540000021457672 -0.2630000114440918 0.3190000057220459 0.41999998688697815 1.0269999504089355 1.0210000276565552 z" stroke-linecap="round"/>
</g>
		<g transform="matrix(0.9999 0.0108 -0.0108 0.9999 -42.1597 -466.3342)" clip-path="url(#CLIPPATH_61)">
<clipPath id="CLIPPATH_61">
	<rect transform="matrix(0.9999 -0.0108 0.0108 0.9999 47.1836 465.8531)" id="__lottie_element_2" x="-1000" y="-1000" rx="0" ry="0" width="2000" height="2000"/>
</clipPath>
<path style="stroke: none; stroke-width: 1; stroke-dasharray: none; stroke-linecap: butt; stroke-dashoffset: 0; stroke-linejoin: miter; stroke-miterlimit: 4; is-custom-font: none; font-file-url: none; fill: rgb(0,0,0); fill-rule: nonzero; opacity: 1;" transform=" translate(0, 0)" d="M 1.0880000591278076 0.7829999923706055 C 0.3449999988079071 0.3400000035762787 -0.3799999952316284 -0.18199999630451202 -1.0880000591278076 -0.7829999923706055 C -0.3630000054836273 -0.18700000643730164 0.3449999988079071 0.3400000035762787 1.0880000591278076 0.7829999923706055 z" stroke-linecap="round"/>
</g>
		<g transform="matrix(0.9999 0.0108 -0.0108 0.9999 -41.5643 -467.5501)" clip-path="url(#CLIPPATH_62)">
<clipPath id="CLIPPATH_62">
	<rect transform="matrix(0.9999 -0.0108 0.0108 0.9999 46.6013 467.0754)" id="__lottie_element_2" x="-1000" y="-1000" rx="0" ry="0" width="2000" height="2000"/>
</clipPath>
<path style="stroke: none; stroke-width: 1; stroke-dasharray: none; stroke-linecap: butt; stroke-dashoffset: 0; stroke-linejoin: miter; stroke-miterlimit: 4; is-custom-font: none; font-file-url: none; fill: rgb(0,0,0); fill-rule: nonzero; opacity: 1;" transform=" translate(-0.0003, 0.0003)" d="M 31.354999542236328 -7.89900016784668 C 35.71699905395508 9.416999816894531 25.215999603271484 26.992000579833984 7.89900016784668 31.354000091552734 C -9.416999816894531 35.71699905395508 -26.992000579833984 25.215999603271484 -31.354000091552734 7.89900016784668 C -35.71699905395508 -9.418000221252441 -25.215999603271484 -26.992000579833984 -7.89900016784668 -31.354999542236328 C 9.418000221252441 -35.71699905395508 26.992000579833984 -25.215999603271484 31.354999542236328 -7.89900016784668 z" stroke-linecap="round"/>
</g>
		<g transform="matrix(0.9999 0.0108 -0.0108 0.9999 -65.2698 -268.5196)" clip-path="url(#CLIPPATH_63)">
<clipPath id="CLIPPATH_63">
	<rect transform="matrix(0.9999 -0.0108 0.0108 0.9999 68.16 267.8009)" id="__lottie_element_2" x="-1000" y="-1000" rx="0" ry="0" width="2000" height="2000"/>
</clipPath>
<path style="stroke: none; stroke-width: 1; stroke-dasharray: none; stroke-linecap: butt; stroke-dashoffset: 0; stroke-linejoin: miter; stroke-miterlimit: 4; is-custom-font: none; font-file-url: none; fill: rgb(255,255,255); fill-rule: nonzero; opacity: 1;" transform=" translate(-0.3356, 1.2118)" d="M 32.13600158691406 -18.474000930786133 C 32.25199890136719 -5.558000087738037 24.406999588012695 7.059000015258789 12.0600004196167 11.586000442504883 C -2.1470000743865967 16.792999267578125 -18.70599937438965 14.152999877929688 -32.6349983215332 9.440999984741211 C -34.46699905395508 8.821000099182129 -35.25400161743164 11.718000411987305 -33.43199920654297 12.333999633789062 C -18.371000289916992 17.429000854492188 0.8169999718666077 20.408000946044922 15.788000106811523 13.25100040435791 C 27.81100082397461 7.502999782562256 35.25400161743164 -5.288000106811523 35.13600158691406 -18.474000930786133 C 35.11800003051758 -20.40399932861328 32.11800003051758 -20.408000946044922 32.13600158691406 -18.474000930786133 z" stroke-linecap="round"/>
</g>
</g>
</g>
</svg>