<svg xmlns="http://www.w3.org/2000/svg" xmlns:xlink="http://www.w3.org/1999/xlink" version="1.1" width="1000" height="1000" viewBox="0 0 1000 1000" xml:space="preserve">
<desc>Created with Fabric.js 3.5.0</desc>
<defs>
</defs>
<rect x="0" y="0" width="100%" height="100%" fill="rgba(255,255,255,0)"/>
<g transform="matrix(1.6529 0 0 1.6529 500.002 500.002)" id="763983">
<g style="" vector-effect="non-scaling-stroke">
		<g transform="matrix(1.2222 0 0 1.2222 9.5821 -21.3086)" id="SvgjsG1008">
<path style="stroke: none; stroke-width: 1; stroke-dasharray: none; stroke-linecap: butt; stroke-dashoffset: 0; stroke-linejoin: miter; stroke-miterlimit: 4; is-custom-font: none; font-file-url: none; fill: rgb(237,243,255); fill-rule: nonzero; opacity: 0.5;" transform=" translate(-232.843, -207.5679)" d="M 383.78 258.66 c -17.531 32.69 -49.356 59.898 -86.364 62.483 c -39.819 2.786 -79.324 -22.526 -118.064 -12.901 c -23.793 5.91 -44.851 24.647 -69.26 22.363 c -20.103 -1.895 -37.308 -20.242 -37.898 -40.434 l -4.957 -28.26 c -6.564 -39.33 8.596 -80.467 35.188 -110.184 s 63.562 -48.779 102.076 -59.12 c 38.125 -10.24 79.5 -12.26 116.533 1.368 c 37.045 13.629 68.87 44.701 76.877 83.353 c 5.697 27.495 -0.854 56.585 -14.13 81.332 z" stroke-linecap="round"/>
</g>
		<g transform="matrix(1.2222 0 0 1.2222 19.1408 -24.5869)" id="SvgjsG1008">
<path style="stroke: none; stroke-width: 1; stroke-dasharray: none; stroke-linecap: butt; stroke-dashoffset: 0; stroke-linejoin: miter; stroke-miterlimit: 4; is-custom-font: none; font-file-url: none; fill: rgb(237,243,255); fill-rule: nonzero; opacity: 1;" transform=" translate(-240.6637, -204.8861)" d="M 77.484 234.336 c -0.495 -3.58 0.29 -9.603 3.259 -15.777 c 12.238 -25.733 45.03 -29.464 67.94 -39.967 c 28.268 -13.115 35.686 -36.4 48.308 -64.932 c 3.708 -8.336 7.705 -16.665 12.894 -24.382 c 14.18 -21.225 31.325 -24.87 32.519 -25.652 l 5.08 -1.433 l 5.167 -1.018 l 3.477 -0.425 c 53.354 -6.264 143.48 47.505 147.768 120.179 c 0.044 1.002 0.07 1.837 0.08 2.505 c 0.021 1.336 -0.024 2.004 -0.134 2.012 c -0.11 0.007 -0.281 -0.645 -0.513 -1.953 a 91.954 91.954 0 0 1 -0.392 -2.453 C 385.67 86.907 286.471 66.847 286.37 66.794 c -18.31 -4.259 -32.461 -1.644 -33.087 -1.634 c -1.33 0.72 -23.284 1.292 -40.054 26.378 c -4.965 7.38 -8.88 15.503 -12.549 23.757 c -13.27 29.985 -20.82 53.378 -50.455 66.686 c -22.785 10.097 -71.343 16.521 -72.09 52.342 c -0.092 2.647 -0.317 2.674 -0.65 0.013 z M 382.28 271.204 c 0.186 0.09 -0.48 1.992 -2.102 5.678 c -1.628 3.683 -4.189 9.168 -8.135 16.243 c -1.978 3.534 -4.3 7.468 -7.142 11.688 c -2.835 4.222 -6.16 8.753 -10.183 13.393 c -24.087 27.53 -53.28 35.143 -75.958 29.638 c -32.783 -8.165 -58.46 -45.74 -92.523 -35.55 c -13.468 4.074 -44.224 27.7 -76.15 2.16 c -18.623 -14.95 -20.321 -38.335 -17.889 -31.135 c 3.66 11.618 9.897 21.488 19.668 28.844 c 30.808 23.103 58.21 0.832 73.21 -3.733 c 36.347 -10.913 62.783 27.551 94.645 35.494 c 20.812 5.047 48.648 -1.885 72.497 -27.937 c 4.016 -4.424 7.386 -8.767 10.298 -12.825 c 2.918 -4.054 5.35 -7.849 7.455 -11.255 c 4.201 -6.822 7.088 -12.106 9.07 -15.595 c 1.977 -3.493 3.028 -5.21 3.239 -5.108 z" stroke-linecap="round"/>
</g>
		<g transform="matrix(1.2222 0 0 1.2222 110.2953 11.3209)" id="SvgjsG1008">
<path style="stroke: none; stroke-width: 1; stroke-dasharray: none; stroke-linecap: butt; stroke-dashoffset: 0; stroke-linejoin: miter; stroke-miterlimit: 4; is-custom-font: none; font-file-url: none; fill: rgb(213,225,250); fill-rule: nonzero; opacity: 1;" transform=" translate(-315.2422, -234.263)" d="M 280.934 227.456 c -0.2 0.07 -0.463 -0.118 -0.714 -0.601 l -0.426 -1.3 c -0.084 -0.538 0.017 -0.846 0.225 -0.91 c 0.208 -0.063 0.468 0.133 0.722 0.609 l 0.42 1.283 c 0.077 0.534 -0.017 0.846 -0.227 0.92 z M 283.117 232.95 c -0.194 0.087 -0.472 -0.079 -0.762 -0.54 l -0.532 -1.261 c -0.128 -0.53 -0.053 -0.844 0.15 -0.924 s 0.477 0.093 0.77 0.546 l 0.524 1.243 c 0.12 0.526 0.053 0.845 -0.15 0.936 z M 285.78 238.227 c -0.184 0.105 -0.476 -0.035 -0.807 -0.468 l -0.646 -1.208 c -0.176 -0.515 -0.13 -0.836 0.064 -0.933 s 0.485 0.05 0.817 0.474 l 0.636 1.189 c 0.168 0.512 0.13 0.836 -0.064 0.946 z M 288.956 243.212 c -0.173 0.124 -0.477 0.015 -0.851 -0.382 l -0.767 -1.137 c -0.228 -0.495 -0.215 -0.818 -0.032 -0.934 c 0.184 -0.117 0.489 0.002 0.862 0.388 l 0.753 1.117 c 0.22 0.491 0.216 0.818 0.035 0.948 z M 292.667 247.809 c -0.156 0.143 -0.47 0.07 -0.888 -0.28 l -0.893 -1.042 c -0.284 -0.466 -0.307 -0.787 -0.138 -0.924 c 0.17 -0.136 0.486 -0.053 0.901 0.287 l 0.875 1.02 c 0.274 0.463 0.308 0.789 0.143 0.939 z M 296.921 251.905 c -0.136 0.162 -0.457 0.13 -0.917 -0.165 l -1.02 -0.92 c -0.341 -0.426 -0.406 -0.742 -0.255 -0.899 c 0.152 -0.156 0.476 -0.114 0.932 0.171 l 0.997 0.9 c 0.331 0.423 0.406 0.742 0.263 0.913 z M 301.71 255.366 c -0.111 0.18 -0.433 0.196 -0.931 -0.03 l -1.144 -0.764 c -0.4 -0.373 -0.509 -0.676 -0.381 -0.852 s 0.455 -0.181 0.947 0.035 l 1.116 0.744 c 0.388 0.372 0.509 0.677 0.393 0.867 z M 306.96 258.076 c -0.082 0.195 -0.398 0.259 -0.925 0.109 l -1.245 -0.585 c -0.451 -0.31 -0.604 -0.592 -0.504 -0.786 c 0.1 -0.193 0.424 -0.246 0.942 -0.106 l 1.214 0.57 c 0.44 0.31 0.605 0.593 0.518 0.798 z M 312.563 259.952 c -0.051 0.206 -0.353 0.318 -0.896 0.251 l -1.322 -0.385 c -0.494 -0.236 -0.689 -0.492 -0.62 -0.698 s 0.382 -0.31 0.915 -0.251 l 1.287 0.375 c 0.481 0.237 0.689 0.492 0.636 0.708 z M 318.398 260.888 c -0.015 0.211 -0.293 0.372 -0.841 0.397 l -1.37 -0.16 c -0.528 -0.15 -0.762 -0.37 -0.727 -0.586 c 0.035 -0.214 0.326 -0.368 0.86 -0.4 l 1.331 0.156 c 0.514 0.154 0.762 0.37 0.747 0.593 z M 324.298 260.762 c 0.025 0.21 -0.218 0.42 -0.752 0.544 l -1.378 0.095 c -0.546 -0.051 -0.816 -0.225 -0.82 -0.442 s 0.255 -0.422 0.774 -0.551 l 1.333 -0.092 c 0.533 0.057 0.817 0.224 0.843 0.446 z M 330.06 259.477 c 0.067 0.201 -0.127 0.458 -0.624 0.697 l -1.33 0.387 c -0.55 0.041 -0.85 -0.085 -0.897 -0.297 c -0.047 -0.212 0.168 -0.455 0.656 -0.666 l 1.28 -0.375 c 0.531 -0.059 0.843 0.044 0.914 0.254 z M 335.424 257.024 c 0.107 0.183 -0.031 0.471 -0.471 0.8 l -1.224 0.638 c -0.52 0.171 -0.837 0.12 -0.927 -0.078 s 0.065 -0.489 0.488 -0.815 l 1.183 -0.616 c 0.51 -0.16 0.838 -0.12 0.95 0.07 z M 340.2 253.552 c 0.142 0.158 0.062 0.469 -0.306 0.877 l -1.076 0.865 c -0.478 0.27 -0.798 0.283 -0.925 0.106 c -0.128 -0.175 -0.033 -0.49 0.32 -0.894 l 1.042 -0.838 c 0.47 -0.257 0.798 -0.282 0.946 -0.116 z M 344.234 249.229 c 0.169 0.129 0.149 0.45 -0.135 0.92 l -0.894 1.054 c -0.417 0.356 -0.73 0.428 -0.889 0.28 s -0.125 -0.477 0.145 -0.94 l 0.866 -1.02 c 0.413 -0.342 0.73 -0.43 0.907 -0.294 z M 347.369 244.22 c 0.19 0.093 0.232 0.411 0.044 0.927 l -0.675 1.205 c -0.341 0.43 -0.634 0.56 -0.818 0.444 s -0.214 -0.444 -0.038 -0.949 l 0.653 -1.165 c 0.34 -0.415 0.634 -0.561 0.834 -0.462 z M 349.443 238.696 c 0.206 0.053 0.31 0.355 0.23 0.898 l -0.418 1.317 c -0.248 0.49 -0.508 0.675 -0.711 0.598 c -0.204 -0.076 -0.299 -0.392 -0.229 -0.922 l 0.404 -1.27 c 0.249 -0.474 0.509 -0.677 0.724 -0.62 z M 350.302 232.853 c 0.212 0.007 0.38 0.28 0.418 0.828 l -0.126 1.378 c -0.137 0.532 -0.351 0.77 -0.566 0.737 c -0.215 -0.031 -0.376 -0.32 -0.421 -0.852 l 0.121 -1.328 c 0.14 -0.516 0.351 -0.77 0.574 -0.763 z M 349.89 226.962 c 0.208 -0.037 0.43 0.193 0.584 0.721 l 0.17 1.373 c -0.021 0.548 -0.18 0.826 -0.397 0.84 s -0.435 -0.232 -0.592 -0.743 l -0.164 -1.324 c 0.028 -0.534 0.18 -0.827 0.399 -0.867 z M 348.23 221.296 c 0.195 -0.082 0.46 0.095 0.725 0.577 l 0.462 1.306 c 0.097 0.54 0.002 0.846 -0.207 0.906 c -0.209 0.06 -0.475 -0.134 -0.739 -0.599 l -0.444 -1.257 c -0.088 -0.527 -0.003 -0.846 0.202 -0.933 z M 345.32 216.157 c 0.169 -0.127 0.468 -0.018 0.839 0.39 l 0.755 1.164 c 0.222 0.504 0.2 0.822 0.01 0.928 s -0.495 -0.021 -0.859 -0.41 l -0.724 -1.116 c -0.208 -0.492 -0.2 -0.823 -0.022 -0.956 z M 341.205 211.926 c 0.126 -0.165 0.464 -0.161 0.933 0.133 l 1.021 0.945 c 0.341 0.436 0.4 0.751 0.243 0.902 c -0.156 0.151 -0.483 0.103 -0.93 -0.184 l -0.974 -0.903 c -0.332 -0.415 -0.432 -0.713 -0.293 -0.893 z M 336.067 209.033 c 0.077 -0.198 0.388 -0.263 0.919 -0.11 l 1.258 0.593 c 0.454 0.312 0.602 0.593 0.495 0.783 c -0.107 0.189 -0.435 0.24 -0.949 0.101 l -1.2 -0.566 c -0.434 -0.308 -0.603 -0.593 -0.523 -0.801 z M 330.33 207.66 c 0.02 -0.212 0.302 -0.358 0.854 -0.355 l 1.37 0.232 c 0.522 0.177 0.74 0.408 0.69 0.62 s -0.353 0.349 -0.886 0.354 l -1.309 -0.221 c -0.501 -0.18 -0.741 -0.41 -0.72 -0.63 z M 324.437 207.896 c -0.04 -0.207 0.188 -0.45 0.718 -0.617 c 0.46 -0.067 0.921 -0.118 1.384 -0.154 c 0.553 0.046 0.827 0.233 0.835 0.449 c 0.008 0.218 -0.247 0.41 -0.759 0.542 c -0.44 0.034 -0.88 0.083 -1.317 0.146 c -0.528 -0.016 -0.819 -0.146 -0.86 -0.366 z M 318.892 209.869 c -0.103 -0.184 0.035 -0.487 0.489 -0.812 c 0.417 -0.207 0.842 -0.398 1.274 -0.572 c 0.544 -0.123 0.862 -0.026 0.933 0.178 c 0.072 0.207 -0.114 0.464 -0.56 0.744 c -0.41 0.164 -0.811 0.344 -1.205 0.54 c -0.506 0.148 -0.822 0.117 -0.931 -0.078 z M 314.329 213.585 c -0.16 -0.136 -0.136 -0.469 0.178 -0.931 c 0.32 -0.34 0.654 -0.665 1.001 -0.977 c 0.47 -0.302 0.804 -0.317 0.94 -0.15 c 0.137 0.17 0.048 0.475 -0.275 0.89 c -0.327 0.293 -0.642 0.6 -0.944 0.92 c -0.423 0.313 -0.73 0.394 -0.9 0.248 z M 311.356 218.662 c -0.199 -0.07 -0.296 -0.39 -0.166 -0.935 c 0.18 -0.432 0.38 -0.855 0.596 -1.269 c 0.335 -0.447 0.643 -0.578 0.828 -0.468 c 0.188 0.112 0.21 0.428 0.053 0.929 c -0.204 0.389 -0.39 0.786 -0.56 1.19 c -0.283 0.442 -0.54 0.628 -0.751 0.553 z M 310.582 224.478 c -0.206 0.02 -0.432 -0.23 -0.539 -0.784 c -0.013 -0.47 -0.002 -0.94 0.034 -1.41 c 0.132 -0.547 0.367 -0.786 0.58 -0.756 c 0.217 0.03 0.359 0.313 0.411 0.832 c -0.033 0.435 -0.043 0.87 -0.031 1.306 c -0.076 0.515 -0.228 0.79 -0.455 0.812 z M 312.354 230.078 c -0.183 0.103 -0.487 -0.035 -0.811 -0.492 c -0.206 -0.42 -0.394 -0.849 -0.561 -1.286 c -0.115 -0.55 -0.007 -0.866 0.198 -0.931 c 0.21 -0.066 0.46 0.127 0.73 0.575 c 0.156 0.409 0.332 0.81 0.525 1.204 c 0.145 0.504 0.115 0.82 -0.08 0.93 z M 316.043 234.669 c -0.141 0.157 -0.472 0.123 -0.927 -0.198 a 19.297 19.297 0 0 1 -0.959 -1.011 c -0.297 -0.471 -0.311 -0.804 -0.143 -0.94 c 0.17 -0.136 0.476 -0.046 0.888 0.282 c 0.292 0.33 0.596 0.651 0.911 0.96 c 0.307 0.43 0.38 0.74 0.23 0.907 z M 320.95 237.938 c -0.09 0.192 -0.41 0.245 -0.94 0.074 c -0.42 -0.197 -0.805 -0.46 -1.206 -0.695 c -0.424 -0.359 -0.546 -0.657 -0.425 -0.838 c 0.121 -0.18 0.449 -0.2 0.943 -0.01 c 0.381 0.222 0.746 0.474 1.148 0.661 c 0.422 0.32 0.576 0.607 0.48 0.808 z M 326.574 239.711 c -0.036 0.21 -0.329 0.335 -0.879 0.293 l -1.35 -0.328 c -0.507 -0.214 -0.709 -0.46 -0.643 -0.668 c 0.066 -0.207 0.376 -0.323 0.908 -0.29 l 1.291 0.313 c 0.488 0.215 0.71 0.461 0.673 0.68 z M 332.47 239.995 c 0.016 0.211 -0.237 0.406 -0.78 0.502 l -1.387 0.02 c -0.545 -0.082 -0.803 -0.27 -0.792 -0.487 c 0.01 -0.217 0.282 -0.407 0.806 -0.508 l 1.332 -0.018 c 0.527 0.086 0.803 0.268 0.82 0.49 z M 338.266 238.84 c 0.067 0.2 -0.131 0.451 -0.635 0.676 l -1.343 0.353 c -0.548 0.053 -0.844 -0.067 -0.886 -0.28 s 0.176 -0.464 0.66 -0.688 l 1.288 -0.34 c 0.533 -0.043 0.846 0.067 0.916 0.279 z M 343.585 236.294 c 0.117 0.178 -0.011 0.469 -0.442 0.811 l -1.21 0.679 c -0.517 0.188 -0.832 0.145 -0.925 -0.051 c -0.094 -0.196 0.054 -0.493 0.465 -0.83 l 1.157 -0.65 c 0.503 -0.174 0.833 -0.145 0.955 0.04 z M 348.039 232.432 c 0.159 0.14 0.117 0.459 -0.199 0.913 l -0.968 0.993 c -0.466 0.304 -0.79 0.339 -0.932 0.175 c -0.142 -0.165 -0.07 -0.482 0.251 -0.9 l 0.927 -0.952 c 0.432 -0.311 0.754 -0.376 0.92 -0.23 z" stroke-linecap="round"/>
</g>
		<g transform="matrix(1.2222 0 0 1.2222 186.9254 -34.8288)" id="SvgjsG1008">
<path style="stroke: none; stroke-width: 1; stroke-dasharray: none; stroke-linecap: butt; stroke-dashoffset: 0; stroke-linejoin: miter; stroke-miterlimit: 4; is-custom-font: none; font-file-url: none; fill: rgb(213,225,250); fill-rule: nonzero; opacity: 1;" transform=" translate(-377.9395, -196.5043)" d="M 351.423 227.595 c 0.186 0.102 0.214 0.422 0.002 0.929 l -0.729 1.174 c -0.36 0.413 -0.659 0.53 -0.837 0.405 c -0.178 -0.125 -0.192 -0.454 0.006 -0.95 l 0.704 -1.135 c 0.358 -0.398 0.66 -0.53 0.854 -0.423 z M 353.826 222.198 c 0.2 0.07 0.283 0.381 0.166 0.917 l -0.508 1.278 c -0.28 0.47 -0.554 0.64 -0.753 0.55 c -0.199 -0.088 -0.272 -0.407 -0.164 -0.933 l 0.495 -1.247 c 0.282 -0.457 0.554 -0.64 0.764 -0.565 z M 355.45 216.51 c 0.208 0.047 0.33 0.346 0.282 0.89 l -0.337 1.33 c -0.218 0.5 -0.468 0.705 -0.677 0.645 s -0.323 -0.366 -0.283 -0.902 l 0.33 -1.306 c 0.222 -0.491 0.468 -0.706 0.686 -0.657 z M 356.513 210.695 c 0.21 0.031 0.357 0.321 0.357 0.865 l -0.221 1.348 c -0.174 0.515 -0.405 0.742 -0.62 0.703 c -0.213 -0.038 -0.354 -0.332 -0.36 -0.872 l 0.219 -1.334 c 0.178 -0.51 0.405 -0.743 0.625 -0.71 z M 357.3 204.83 c 0.21 0.027 0.366 0.314 0.385 0.856 l -0.173 1.35 c -0.155 0.52 -0.379 0.757 -0.594 0.729 c -0.216 -0.029 -0.367 -0.315 -0.392 -0.857 l 0.173 -1.348 c 0.161 -0.519 0.38 -0.757 0.6 -0.73 z M 358.095 198.967 c 0.21 0.032 0.362 0.323 0.374 0.863 l -0.191 1.342 c -0.162 0.515 -0.39 0.752 -0.605 0.723 c -0.215 -0.029 -0.363 -0.316 -0.38 -0.86 l 0.193 -1.35 c 0.167 -0.518 0.389 -0.751 0.61 -0.718 z M 359.183 193.157 c 0.207 0.048 0.34 0.35 0.319 0.887 l -0.273 1.321 c -0.194 0.502 -0.435 0.725 -0.65 0.686 c -0.213 -0.04 -0.343 -0.333 -0.325 -0.878 l 0.276 -1.34 c 0.2 -0.508 0.436 -0.726 0.653 -0.676 z M 360.854 187.49 c 0.2 0.074 0.297 0.39 0.215 0.921 l -0.421 1.275 c -0.25 0.475 -0.516 0.67 -0.725 0.61 c -0.208 -0.061 -0.304 -0.366 -0.224 -0.907 l 0.43 -1.305 c 0.258 -0.483 0.517 -0.671 0.725 -0.593 z M 363.33 182.128 c 0.183 0.105 0.23 0.434 0.067 0.944 l -0.61 1.191 c -0.32 0.43 -0.613 0.583 -0.811 0.493 s -0.246 -0.406 -0.082 -0.929 l 0.629 -1.227 c 0.33 -0.439 0.613 -0.583 0.806 -0.472 z M 366.775 177.342 c 0.157 0.143 0.134 0.476 -0.127 0.94 l -0.835 1.035 c -0.398 0.352 -0.718 0.445 -0.895 0.318 c -0.177 -0.126 -0.161 -0.442 0.106 -0.922 l 0.869 -1.077 c 0.413 -0.363 0.718 -0.445 0.882 -0.294 z M 370.202 174.272 c 0.123 0.173 0.12 0.418 -0.056 0.668 l -0.584 0.456 c -0.285 0.111 -0.524 0.055 -0.665 -0.111 c -0.14 -0.166 -0.143 -0.4 0.039 -0.661 l 0.612 -0.478 c 0.297 -0.114 0.524 -0.055 0.654 0.126 z M 406.158 167.947 l -40.522 -5.089 l 1.44 3.33 z" stroke-linecap="round"/>
</g>
		<g transform="matrix(1.2222 0 0 1.2222 189.0381 -71.3034)" id="SvgjsG1008">
<path style="stroke: none; stroke-width: 1; stroke-dasharray: none; stroke-linecap: butt; stroke-dashoffset: 0; stroke-linejoin: miter; stroke-miterlimit: 4; is-custom-font: none; font-file-url: none; fill: rgb(237,243,255); fill-rule: nonzero; opacity: 1;" transform=" translate(-379.668, -166.661)" d="m 406.158 167.947 l -52.98 5.906 l 10.567 -8.904 z M 406.158 167.947 l -31.72 -8.478 l -8.802 3.39 z" stroke-linecap="round"/>
</g>
		<g transform="matrix(1.2222 0 0 1.2222 195.7066 -63.7426)" id="SvgjsG1008">
<path style="stroke: none; stroke-width: 1; stroke-dasharray: none; stroke-linecap: butt; stroke-dashoffset: 0; stroke-linejoin: miter; stroke-miterlimit: 4; is-custom-font: none; font-file-url: none; fill: rgb(213,225,250); fill-rule: nonzero; opacity: 1;" transform=" translate(-385.124, -172.847)" d="m 364.091 172.627 l 2.646 5.119 l 39.42 -9.798 z" stroke-linecap="round"/>
</g>
		<g transform="matrix(1.2222 0 0 1.2222 195.7066 -65.5882)" id="SvgjsG1008">
<path style="stroke: none; stroke-width: 1; stroke-dasharray: none; stroke-linecap: butt; stroke-dashoffset: 0; stroke-linejoin: miter; stroke-miterlimit: 4; is-custom-font: none; font-file-url: none; fill: rgb(199,214,242); fill-rule: nonzero; opacity: 1;" transform=" translate(-385.124, -171.337)" d="m 364.091 172.627 l 1.086 2.1 l 40.98 -6.78 z" stroke-linecap="round"/>
</g>
		<g transform="matrix(1.2222 0 0 1.2222 1.3503 181.9164)" id="SvgjsG1008">
<ellipse style="stroke: none; stroke-width: 1; stroke-dasharray: none; stroke-linecap: butt; stroke-dashoffset: 0; stroke-linejoin: miter; stroke-miterlimit: 4; is-custom-font: none; font-file-url: none; fill: rgb(237,243,255); fill-rule: nonzero; opacity: 1;" cx="0" cy="0" rx="175" ry="15.906"/>
</g>
		<g transform="matrix(1.2222 0 0 1.2222 26.0892 -94.526)" id="SvgjsG1008">
<path style="stroke: none; stroke-width: 1; stroke-dasharray: none; stroke-linecap: butt; stroke-dashoffset: 0; stroke-linejoin: miter; stroke-miterlimit: 4; is-custom-font: none; font-file-url: none; fill: rgb(225,235,255); fill-rule: nonzero; opacity: 1;" transform=" translate(-246.347, -147.662)" d="M 317.402 80.287 v 134.75 c 0 5.96 -4.83 10.78 -10.78 10.78 h -120.54 c -5.96 0 -10.79 -4.82 -10.79 -10.78 V 80.287 c 0 -5.96 4.83 -10.78 10.79 -10.78 h 120.54 c 5.95 0 10.78 4.82 10.78 10.78 z" stroke-linecap="round"/>
</g>
		<g transform="matrix(1.2222 0 0 1.2222 30.3929 -24.3593)" id="SvgjsG1008">
<path style="stroke: none; stroke-width: 1; stroke-dasharray: none; stroke-linecap: butt; stroke-dashoffset: 0; stroke-linejoin: miter; stroke-miterlimit: 4; is-custom-font: none; font-file-url: none; fill: rgb(199,214,242); fill-rule: nonzero; opacity: 1;" transform=" translate(-249.867, -205.0699)" d="M 256.487 199.624 c 0 2.81 -1.75 5.22 -4.22 6.17 v 8.94 c 0 0.67 -0.27 1.27 -0.71 1.7 a 2.403 2.403 0 0 1 -4.1 -1.7 v -8.94 a 6.61 6.61 0 0 1 -4.21 -6.17 c 0 -3.65 2.96 -6.62 6.62 -6.62 s 6.62 2.97 6.62 6.62 z" stroke-linecap="round"/>
</g>
		<g transform="matrix(1.2222 0 0 1.2222 26.0927 -70.5544)" id="SvgjsG1008">
<path style="stroke: none; stroke-width: 1; stroke-dasharray: none; stroke-linecap: butt; stroke-dashoffset: 0; stroke-linejoin: miter; stroke-miterlimit: 4; is-custom-font: none; font-file-url: none; fill: rgb(255,255,255); fill-rule: nonzero; opacity: 1;" transform=" translate(-246.3495, -167.274)" d="M 297.238 179.088 a 7.078 7.078 0 0 1 -7.089 7.09 h -87.602 c -3.881 0 -7.087 -3.208 -7.087 -7.09 a 7.075 7.075 0 0 1 7.087 -7.088 h 87.602 c 3.967 0 7.09 3.122 7.09 7.088 z M 195.46 155.46 a 7.076 7.076 0 0 1 7.087 -7.09 h 87.602 c 3.967 0 7.09 3.122 7.09 7.09 a 7.076 7.076 0 0 1 -7.09 7.088 h -87.602 c -3.881 0 -7.087 -3.206 -7.087 -7.088 z" stroke-linecap="round"/>
</g>
		<g transform="matrix(1.2222 0 0 1.2222 26.0919 -137.9455)" id="SvgjsG1008">
<path style="stroke: none; stroke-width: 1; stroke-dasharray: none; stroke-linecap: butt; stroke-dashoffset: 0; stroke-linejoin: miter; stroke-miterlimit: 4; is-custom-font: none; font-file-url: none; fill: rgb(199,214,242); fill-rule: nonzero; opacity: 1;" transform=" translate(-246.3485, -112.136)" d="M 246.349 139.84 c -15.276 0 -27.705 -12.428 -27.705 -27.704 s 12.43 -27.704 27.705 -27.704 s 27.704 12.428 27.704 27.704 s -12.429 27.703 -27.704 27.703 z m 0 -54.126 c -14.569 0 -26.421 11.853 -26.421 26.422 s 11.852 26.421 26.42 26.421 s 26.421 -11.853 26.421 -26.421 s -11.852 -26.422 -26.42 -26.422 z" stroke-linecap="round"/>
</g>
		<g transform="matrix(1.2222 0 0 1.2222 26.0926 -137.9455)" id="SvgjsG1008">
<circle style="stroke: none; stroke-width: 1; stroke-dasharray: none; stroke-linecap: butt; stroke-dashoffset: 0; stroke-linejoin: miter; stroke-miterlimit: 4; is-custom-font: none; font-file-url: none; fill: rgb(255,255,255); fill-rule: nonzero; opacity: 1;" cx="0" cy="0" r="23.619"/>
</g>
		<g transform="matrix(1.2222 0 0 1.2222 26.0927 -137.9453)" id="SvgjsG1008">
<path style="stroke: none; stroke-width: 1; stroke-dasharray: none; stroke-linecap: butt; stroke-dashoffset: 0; stroke-linejoin: miter; stroke-miterlimit: 4; is-custom-font: none; font-file-url: none; fill: rgb(199,214,242); fill-rule: nonzero; opacity: 1;" transform=" translate(-246.3489, -112.136)" d="M 237.887 102.891 c 0 -4.668 3.795 -8.45 8.463 -8.45 a 8.45 8.45 0 0 1 8.45 8.45 c 0 4.68 -3.783 8.463 -8.45 8.463 a 8.463 8.463 0 0 1 -8.463 -8.463 z M 260.929 120.022 c -2.347 5.757 -7.989 9.809 -14.58 9.809 c -6.59 0 -12.232 -4.052 -14.579 -9.81 c -1.09 -2.667 0.898 -5.603 3.783 -5.603 h 21.58 c 2.885 0 4.886 2.936 3.796 5.604 z" stroke-linecap="round"/>
</g>
		<g transform="matrix(1.2222 0 0 1.2222 -56.8346 -59.4002)" id="SvgjsG1008">
<path style="stroke: none; stroke-width: 1; stroke-dasharray: none; stroke-linecap: butt; stroke-dashoffset: 0; stroke-linejoin: miter; stroke-miterlimit: 4; is-custom-font: none; font-file-url: none; fill: rgb(255,197,197); fill-rule: nonzero; opacity: 1;" transform=" translate(-178.4993, -176.4001)" d="M 163.735 185.599 c 2.174 1.56 4.297 3.084 6.471 4.66 c 0.38 -0.623 0.742 -1.213 1.104 -1.803 c 0.439 -0.717 0.868 -1.424 1.306 -2.132 c 0.717 -1.146 1.408 -2.31 2.166 -3.422 c 0.337 -0.488 0.674 -0.969 0.919 -1.5 a 4.1 4.1 0 0 0 0.286 -0.716 a 2.937 2.937 0 0 1 1.34 -1.727 a 17.783 17.783 0 0 1 4.938 -2.023 c 0.38 -0.092 0.733 -0.303 1.07 -0.497 c 0.464 -0.261 0.877 -0.59 1.349 -0.834 c 0.598 -0.304 1.222 -0.59 1.854 -0.818 c 0.522 -0.193 0.716 -0.581 0.85 -1.062 a 0.778 0.778 0 0 1 0.304 -0.395 c 0.203 -0.16 0.472 -0.253 0.674 -0.422 c 0.371 -0.303 0.961 -0.573 0.835 -1.137 c -0.135 -0.599 0.134 -0.81 0.564 -1.045 c 0.531 -0.295 0.658 -0.776 0.363 -1.315 c -0.194 -0.354 -0.48 -0.649 -0.658 -0.994 c -0.092 -0.186 -0.143 -0.565 -0.042 -0.65 c 1.146 -0.952 2.326 -1.862 3.48 -2.797 c 0.177 -0.143 0.405 -0.447 0.346 -0.581 c -0.067 -0.194 -0.38 -0.422 -0.581 -0.413 c -0.565 0.033 -1.172 0.084 -1.686 0.303 a 13.48 13.48 0 0 0 -2.351 1.264 c -0.8 0.53 -1.559 0.885 -2.57 0.674 c -0.64 -0.135 -0.876 0.194 -0.826 0.86 c 0.025 0.261 0 0.438 -0.303 0.514 c -0.514 0.143 -1.028 0.311 -1.543 0.48 c -0.825 0.27 -1.651 0.548 -2.485 0.809 c -0.102 0.034 -0.22 0 -0.33 -0.008 c -0.041 -0.042 -0.075 -0.093 -0.109 -0.144 c 0.236 -0.278 0.439 -0.598 0.717 -0.834 c 0.758 -0.64 1.567 -1.23 2.325 -1.88 c 0.776 -0.665 1.273 -1.482 1.121 -2.561 c -0.126 -0.893 -0.767 -1.188 -1.483 -0.624 c -0.59 0.472 -1.137 1.012 -1.668 1.56 c -0.801 0.825 -1.576 1.668 -2.613 2.216 c -0.421 0.219 -0.876 0.421 -1.23 0.733 c -0.91 0.792 -1.829 1.601 -2.646 2.494 a 13.61 13.61 0 0 0 -1.71 2.318 c -0.709 1.18 -1.214 2.452 -2.124 3.522 c -0.211 0.253 -0.413 0.514 -0.59 0.792 c -0.396 0.582 -0.742 1.205 -1.104 1.804 c -1.348 2.233 -2.84 4.365 -4.677 6.227 c -0.346 0.354 -0.683 0.716 -1.053 1.104 z" stroke-linecap="round"/>
</g>
		<g transform="matrix(1.2222 0 0 1.2222 -67.5671 -50.8917)" id="SvgjsG1008">
<path style="stroke: none; stroke-width: 1; stroke-dasharray: none; stroke-linecap: butt; stroke-dashoffset: 0; stroke-linejoin: miter; stroke-miterlimit: 4; is-custom-font: none; font-file-url: none; fill: rgb(252,175,175); fill-rule: nonzero; opacity: 1;" transform=" translate(-169.718, -183.3615)" d="M 163.735 185.599 c 2.174 1.56 4.297 3.084 6.471 4.66 c 0.38 -0.623 0.742 -1.213 1.104 -1.803 c 0.439 -0.717 0.868 -1.424 1.306 -2.132 c 0.717 -1.146 1.408 -2.31 2.166 -3.422 c 0.337 -0.488 0.674 -0.969 0.919 -1.5 c -0.152 -0.025 -0.287 -0.059 -0.43 -0.092 c -1.82 -0.489 -3.346 -1.863 -4.188 -3.548 c -0.21 -0.421 -0.38 -0.851 -0.514 -1.298 c -0.396 0.582 -0.742 1.205 -1.104 1.804 c -1.348 2.233 -2.84 4.365 -4.677 6.227 c -0.346 0.354 -0.683 0.716 -1.053 1.104 z" stroke-linecap="round"/>
</g>
		<g transform="matrix(1.2222 0 0 1.2222 -115.4011 179.8365)" id="SvgjsG1008">
<path style="stroke: none; stroke-width: 1; stroke-dasharray: none; stroke-linecap: butt; stroke-dashoffset: 0; stroke-linejoin: miter; stroke-miterlimit: 4; is-custom-font: none; font-file-url: none; fill: rgb(31,33,35); fill-rule: nonzero; opacity: 1;" transform=" translate(-130.5812, -372.1391)" d="M 118.386 366.86 c -0.165 0.072 -5.12 7.884 -1.34 9.728 c 3.78 1.843 25.945 3.84 28.364 -2.016 c 0.403 -0.987 -0.233 -2.07 -1.055 -2.961 c -1.065 -1.155 -2.454 -1.958 -3.962 -2.4 c -4.694 -1.377 -19.162 -4.943 -21.861 -2.649 l -0.146 0.299 z" stroke-linecap="round"/>
</g>
		<g transform="matrix(1.2222 0 0 1.2222 -121.3135 172.1427)" id="SvgjsG1008">
<path style="stroke: none; stroke-width: 1; stroke-dasharray: none; stroke-linecap: butt; stroke-dashoffset: 0; stroke-linejoin: miter; stroke-miterlimit: 4; is-custom-font: none; font-file-url: none; fill: rgb(255,197,197); fill-rule: nonzero; opacity: 1;" transform=" translate(-125.7437, -365.8441)" d="M 133.483 369.72 c -1.204 1.933 -13.681 2.507 -15.089 0.17 c -0.405 -0.673 -0.542 -1.74 -0.533 -2.924 c 0.009 -2.94 0.304 -6.572 0.333 -6.696 l 9.733 0.408 l 0.024 4.332 l -0.006 0.902 s 6.741 1.871 5.538 3.808 z" stroke-linecap="round"/>
</g>
		<g transform="matrix(1.2222 0 0 1.2222 -124.7817 169.4219)" id="SvgjsG1008">
<path style="stroke: none; stroke-width: 1; stroke-dasharray: none; stroke-linecap: butt; stroke-dashoffset: 0; stroke-linejoin: miter; stroke-miterlimit: 4; is-custom-font: none; font-file-url: none; fill: rgb(252,175,175); fill-rule: nonzero; opacity: 1;" transform=" translate(-122.906, -363.618)" d="m 127.927 360.678 l 0.024 4.332 c -0.467 -0.088 -0.944 -0.115 -1.417 -0.142 c -1.784 -0.097 -3.597 -0.157 -5.33 0.277 c -1.24 0.313 -2.448 0.918 -3.343 1.821 c 0.009 -2.94 0.304 -6.572 0.333 -6.696 l 9.733 0.408 z" stroke-linecap="round"/>
</g>
		<g transform="matrix(1.2222 0 0 1.2222 -160.736 180.8515)" id="SvgjsG1008">
<path style="stroke: none; stroke-width: 1; stroke-dasharray: none; stroke-linecap: butt; stroke-dashoffset: 0; stroke-linejoin: miter; stroke-miterlimit: 4; is-custom-font: none; font-file-url: none; fill: rgb(31,33,35); fill-rule: nonzero; opacity: 1;" transform=" translate(-93.489, -372.9695)" d="M 81.294 367.691 c -0.166 0.072 -5.12 7.883 -1.34 9.727 c 3.78 1.844 25.945 3.84 28.364 -2.016 c 0.403 -0.987 -0.234 -2.07 -1.056 -2.96 c -1.064 -1.156 -2.453 -1.96 -3.961 -2.401 c -4.694 -1.377 -19.162 -4.942 -21.862 -2.649 l -0.145 0.299 z" stroke-linecap="round"/>
</g>
		<g transform="matrix(1.2222 0 0 1.2222 -166.6488 173.1578)" id="SvgjsG1008">
<path style="stroke: none; stroke-width: 1; stroke-dasharray: none; stroke-linecap: butt; stroke-dashoffset: 0; stroke-linejoin: miter; stroke-miterlimit: 4; is-custom-font: none; font-file-url: none; fill: rgb(255,197,197); fill-rule: nonzero; opacity: 1;" transform=" translate(-88.6512, -366.6746)" d="M 96.39 370.55 c -1.204 1.933 -13.68 2.507 -15.088 0.17 c -0.405 -0.673 -0.543 -1.74 -0.533 -2.924 c 0.008 -2.939 0.303 -6.572 0.333 -6.695 l 9.733 0.408 l 0.024 4.331 l -0.006 0.903 s 6.74 1.87 5.537 3.807 z" stroke-linecap="round"/>
</g>
		<g transform="matrix(1.2222 0 0 1.2222 -170.1163 170.437)" id="SvgjsG1008">
<path style="stroke: none; stroke-width: 1; stroke-dasharray: none; stroke-linecap: butt; stroke-dashoffset: 0; stroke-linejoin: miter; stroke-miterlimit: 4; is-custom-font: none; font-file-url: none; fill: rgb(252,175,175); fill-rule: nonzero; opacity: 1;" transform=" translate(-85.814, -364.4485)" d="m 90.835 361.509 l 0.024 4.331 c -0.467 -0.088 -0.944 -0.114 -1.418 -0.141 c -1.783 -0.098 -3.596 -0.157 -5.33 0.276 c -1.24 0.313 -2.447 0.918 -3.342 1.821 c 0.008 -2.939 0.303 -6.572 0.333 -6.695 l 9.733 0.408 z" stroke-linecap="round"/>
</g>
		<g transform="matrix(1.2222 0 0 1.2222 -162.4472 -88.1496)" id="SvgjsG1008">
<path style="stroke: none; stroke-width: 1; stroke-dasharray: none; stroke-linecap: butt; stroke-dashoffset: 0; stroke-linejoin: miter; stroke-miterlimit: 4; is-custom-font: none; font-file-url: none; fill: rgb(6,20,55); fill-rule: nonzero; opacity: 1;" transform=" translate(-92.089, -152.878)" d="M 92.79 130.481 h -1.057 c -2.626 16.251 -9.424 31.804 -19.531 44.794 h 17.162 a 48.52 48.52 0 0 0 4.686 -2.671 a 49.476 49.476 0 0 0 17.926 -20.676 L 92.79 130.481 z" stroke-linecap="round"/>
</g>
		<g transform="matrix(1.2222 0 0 1.2222 -128.1703 -88.6792)" id="SvgjsG1008">
<path style="stroke: none; stroke-width: 1; stroke-dasharray: none; stroke-linecap: butt; stroke-dashoffset: 0; stroke-linejoin: miter; stroke-miterlimit: 4; is-custom-font: none; font-file-url: none; fill: rgb(6,20,55); fill-rule: nonzero; opacity: 1;" transform=" translate(-120.1338, -152.4446)" d="M 102.264 144.194 c -0.047 5.711 1.036 11.652 4.453 16.233 c 2.361 3.167 5.765 5.528 9.534 6.72 c 3.776 1.177 7.89 1.183 11.692 0.094 a 26.821 26.821 0 0 0 2.51 -0.866 a 57.994 57.994 0 0 1 -2.415 -7.477 c 1.536 1.894 3.086 3.81 4.98 5.345 c 0.264 0.217 0.535 0.427 0.82 0.63 c 1.38 -0.65 2.753 -1.306 4.167 -1.868 c -6.793 -5.941 -10.725 -14.968 -10.664 -23.98 h -5.23 v -2.18 l -19.847 7.349 z" stroke-linecap="round"/>
</g>
		<g transform="matrix(1.2222 0 0 1.2222 -142.6472 -115.4157)" id="SvgjsG1008">
<path style="stroke: none; stroke-width: 1; stroke-dasharray: none; stroke-linecap: butt; stroke-dashoffset: 0; stroke-linejoin: miter; stroke-miterlimit: 4; is-custom-font: none; font-file-url: none; fill: rgb(6,20,55); fill-rule: nonzero; opacity: 1;" transform=" translate(-108.289, -130.5692)" d="m 90.91 132.713 l 0.023 -0.1 c 0.742 -2.243 1.597 -4.811 2.648 -7.225 c 2.316 -5.317 9.52 -12.264 21.27 -9.777 s 12.437 14.58 12.694 25.816 c 0.038 1.677 0.224 3.206 0.492 4.621 H 88.541 c 1.488 -4.34 1.914 -8.727 2.369 -13.335 z" stroke-linecap="round"/>
</g>
		<g transform="matrix(1.2222 0 0 1.2222 -142.0561 -102.7443)" id="SvgjsG1008">
<path style="stroke: none; stroke-width: 1; stroke-dasharray: none; stroke-linecap: butt; stroke-dashoffset: 0; stroke-linejoin: miter; stroke-miterlimit: 4; is-custom-font: none; font-file-url: none; fill: rgb(255,197,197); fill-rule: nonzero; opacity: 1;" transform=" translate(-108.7725, -140.9369)" d="M 99.353 139.282 c 0.06 0.78 0.017 10.834 -0.777 22.574 l 11.442 0.695 l 0.839 -10.899 s 6.586 0.757 8.403 -6.132 c 1.817 -6.89 1.969 -20.971 1.514 -22.182 c -0.454 -1.212 -12.34 -7.344 -18.245 -1.59 c -5.905 5.754 -5.602 12.037 -5.83 13.324 c -0.218 1.24 -0.637 4.58 2.654 4.21 z" stroke-linecap="round"/>
</g>
		<g transform="matrix(1.2222 0 0 1.2222 -138.829 -108.0887)" id="SvgjsG1008">
<path style="stroke: none; stroke-width: 1; stroke-dasharray: none; stroke-linecap: butt; stroke-dashoffset: 0; stroke-linejoin: miter; stroke-miterlimit: 4; is-custom-font: none; font-file-url: none; fill: rgb(56,56,56); fill-rule: nonzero; opacity: 1;" transform=" translate(-111.4128, -136.5639)" d="M 116.761 133.378 a 0.315 0.315 0 0 0 0.278 -0.514 a 1.715 1.715 0 0 0 -2.417 -0.25 a 0.316 0.316 0 0 0 0.4 0.491 a 1.084 1.084 0 0 1 1.527 0.158 a 0.315 0.315 0 0 0 0.212 0.115 z M 106.057 133.033 a 0.316 0.316 0 0 0 0.214 -0.11 a 1.082 1.082 0 0 1 1.53 -0.134 a 0.316 0.316 0 1 0 0.407 -0.484 a 1.72 1.72 0 0 0 -2.42 0.21 a 0.316 0.316 0 0 0 0.269 0.518 z M 110.735 141.206 c 0.332 0.034 0.7 0.027 1.056 -0.072 a 0.666 0.666 0 0 0 0.406 -0.346 c 0.622 -1.144 -0.388 -5.424 -0.4 -5.464 a 0.316 0.316 0 0 0 -0.605 0.187 c 0.25 0.86 0.887 4.67 0.419 5.019 c -0.807 0.224 -1.783 -0.194 -1.792 -0.198 a 0.316 0.316 0 1 0 -0.253 0.58 a 4.33 4.33 0 0 0 1.169 0.294 z" stroke-linecap="round"/>
</g>
		<g transform="matrix(1.2222 0 0 1.2222 -139.4507 -97.9537)" id="SvgjsG1008">
<path style="stroke: none; stroke-width: 1; stroke-dasharray: none; stroke-linecap: butt; stroke-dashoffset: 0; stroke-linejoin: miter; stroke-miterlimit: 4; is-custom-font: none; font-file-url: none; fill: rgb(252,175,175); fill-rule: nonzero; opacity: 1;" transform=" translate(-110.904, -144.8561)" d="M 113.364 144.016 c -0.289 1.351 -1.437 2.308 -2.711 2.176 c -1.274 -0.132 -2.202 -1.302 -2.209 -2.684 l 4.92 0.508 z" stroke-linecap="round"/>
</g>
		<g transform="matrix(1.2222 0 0 1.2222 -138.6548 -108.3884)" id="SvgjsG1008">
<path style="stroke: none; stroke-width: 1; stroke-dasharray: none; stroke-linecap: butt; stroke-dashoffset: 0; stroke-linejoin: miter; stroke-miterlimit: 4; is-custom-font: none; font-file-url: none; fill: rgb(56,56,56); fill-rule: nonzero; opacity: 1;" transform=" translate(-111.5552, -136.3186)" d="M 106.66 136.073 c 0.024 0.429 0.278 0.769 0.568 0.752 c 0.297 -0.017 0.51 -0.384 0.485 -0.813 c -0.025 -0.435 -0.278 -0.768 -0.575 -0.751 c -0.29 0.016 -0.503 0.377 -0.478 0.812 z M 115.396 136.542 c -0.044 0.428 0.152 0.804 0.442 0.833 c 0.295 0.03 0.564 -0.297 0.608 -0.724 c 0.045 -0.434 -0.152 -0.804 -0.447 -0.834 c -0.29 -0.03 -0.558 0.292 -0.603 0.725 z" stroke-linecap="round"/>
</g>
		<g transform="matrix(1.2222 0 0 1.2222 -144.6414 -118.8844)" id="SvgjsG1008">
<path style="stroke: none; stroke-width: 1; stroke-dasharray: none; stroke-linecap: butt; stroke-dashoffset: 0; stroke-linejoin: miter; stroke-miterlimit: 4; is-custom-font: none; font-file-url: none; fill: rgb(6,20,55); fill-rule: nonzero; opacity: 1;" transform=" translate(-106.6573, -127.7311)" d="M 110.925 128.97 c -1.781 1.017 -3.813 1.485 -5.803 1.975 c -1.991 0.491 -4.015 1.036 -5.72 2.175 s -3.062 2.993 -3.082 5.043 c -1.076 -3.23 -0.39 -6.866 1.254 -9.85 s 3.152 -6.58 5.833 -8.68 c 1.953 -1.533 5.105 -1.776 7.549 -2.218 c 2.223 -0.403 5.415 0.21 6.557 2.406 c -1.593 1.16 -1.462 2.598 -2.221 4.295 a 10.647 10.647 0 0 1 -4.367 4.854 z" stroke-linecap="round"/>
</g>
		<g transform="matrix(1.2222 0 0 1.2222 -129.7379 -118.499)" id="SvgjsG1008">
<path style="stroke: none; stroke-width: 1; stroke-dasharray: none; stroke-linecap: butt; stroke-dashoffset: 0; stroke-linejoin: miter; stroke-miterlimit: 4; is-custom-font: none; font-file-url: none; fill: rgb(6,20,55); fill-rule: nonzero; opacity: 1;" transform=" translate(-118.8509, -128.0464)" d="M 122.54 136.565 a 9.608 9.608 0 0 0 -2.748 -5.835 c -0.924 -0.916 -2.055 -1.67 -2.702 -2.81 c -0.404 -0.709 -0.592 -1.526 -0.924 -2.28 c -0.333 -0.754 -0.88 -1.481 -1.67 -1.705 l 1.956 -4.405 c 1.392 -0.08 4.247 2.124 5.315 3.022 c 1.06 0.898 1.275 2.433 1.365 3.815 c 0.197 3.411 0 6.84 -0.593 10.198 z" stroke-linecap="round"/>
</g>
		<g transform="matrix(1.2222 0 0 1.2222 -143.478 -89.9299)" id="SvgjsG1008">
<path style="stroke: none; stroke-width: 1; stroke-dasharray: none; stroke-linecap: butt; stroke-dashoffset: 0; stroke-linejoin: miter; stroke-miterlimit: 4; is-custom-font: none; font-file-url: none; fill: rgb(252,175,175); fill-rule: nonzero; opacity: 1;" transform=" translate(-107.609, -151.421)" d="M 104.357 148.27 s 0.43 5.975 6.008 6.302 l 0.496 -2.92 s -4.66 -0.123 -6.504 -3.382 z" stroke-linecap="round"/>
</g>
		<g transform="matrix(1.2222 0 0 1.2222 -145.6463 87.6456)" id="SvgjsG1008">
<path style="stroke: none; stroke-width: 1; stroke-dasharray: none; stroke-linecap: butt; stroke-dashoffset: 0; stroke-linejoin: miter; stroke-miterlimit: 4; is-custom-font: none; font-file-url: none; fill: rgb(43,43,43); fill-rule: nonzero; opacity: 1;" transform=" translate(-105.8353, -296.7113)" d="M 79.589 292.602 c -0.264 34.184 0 70.366 0 70.366 s 8.41 2.78 11.834 0 c 3.41 -2.775 7.883 -36.973 8.147 -43.28 c 0.264 -6.313 4.473 -47.075 4.473 -47.075 s 3.153 19.725 4.994 26.302 c 1.847 6.577 6.577 60.256 8.681 62.882 c 2.105 2.632 10.637 0 10.637 0 c 8.533 -12.884 3.039 -74.98 3.039 -79.981 c 0 -2.592 -1.773 -16.226 -3.404 -28.968 c -1.144 -8.972 -2.22 -17.505 -2.558 -21.423 c -0.115 -1.245 -0.149 -2.023 -0.088 -2.206 l -2.91 0.109 L 83 230.803 c -1.326 3.254 -2.287 6.218 -2.97 9.074 c -3.201 13.452 -0.23 24.522 -0.44 52.725 z" stroke-linecap="round"/>
</g>
		<g transform="matrix(1.2222 0 0 1.2222 -148.0269 20.2526)" id="SvgjsG1008">
<path style="stroke: none; stroke-width: 1; stroke-dasharray: none; stroke-linecap: butt; stroke-dashoffset: 0; stroke-linejoin: miter; stroke-miterlimit: 4; is-custom-font: none; font-file-url: none; fill: rgb(31,33,35); fill-rule: nonzero; opacity: 1;" transform=" translate(-103.8875, -241.5705)" d="M 79.907 240.36 c 3.627 -0.887 7.592 -0.57 11.341 -0.021 c 12.89 1.908 25.395 6.367 36.62 12.992 c -1.143 -8.973 -2.219 -17.505 -2.557 -21.423 a 41.738 41.738 0 0 0 -2.997 -2.098 l -39.436 1.475 c -1.326 3.255 -2.287 6.219 -2.97 9.074 z" stroke-linecap="round"/>
</g>
		<g transform="matrix(1.2222 0 0 1.2222 -146.0103 -32.494)" id="SvgjsG1008">
<path style="stroke: none; stroke-width: 1; stroke-dasharray: none; stroke-linecap: butt; stroke-dashoffset: 0; stroke-linejoin: miter; stroke-miterlimit: 4; is-custom-font: none; font-file-url: none; fill: rgb(254,107,77); fill-rule: nonzero; opacity: 1;" transform=" translate(-105.5375, -198.4147)" d="M 78.078 165.626 c 0.91 5.537 2.958 20.579 3.734 27.135 c 0.202 -0.328 0.303 -0.505 0.303 -0.505 c 0.32 0.817 0.607 1.702 0.843 2.646 c 0.177 0.665 0.32 1.356 0.455 2.073 c 2.444 13.154 -1.298 33.884 -1.298 33.884 c 2.874 4.104 46.963 9.893 44.663 0 c -0.582 -2.511 -0.877 -5.545 -0.978 -8.68 c -0.303 -9.185 0.978 -21.513 0.978 -21.513 l 0.193 0.27 c 0.64 0.876 3.177 1.297 6.026 4.693 l -0.304 -30.118 c -0.581 -1.137 -1.154 -2.165 -1.694 -3.008 c -3.328 -5.174 -10.221 -7.896 -14.721 -9.169 c -1.871 -0.539 -3.32 -0.817 -3.936 -0.927 c -0.21 -0.042 -0.32 -0.059 -0.32 -0.059 s -16.786 -1.71 -19.264 -1.828 c -0.185 -0.009 -0.286 -0.009 -0.303 0 a 1.697 1.697 0 0 1 -0.531 0.168 c -0.362 0.042 -0.767 0.11 -1.188 0.203 c -2.512 0.497 -5.89 1.618 -8.613 2.595 a 16.033 16.033 0 0 0 -4.045 2.14 z" stroke-linecap="round"/>
</g>
		<g transform="matrix(1.2222 0 0 1.2222 -146.485 -17.6605)" id="SvgjsG1008">
<path style="stroke: none; stroke-width: 1; stroke-dasharray: none; stroke-linecap: butt; stroke-dashoffset: 0; stroke-linejoin: miter; stroke-miterlimit: 4; is-custom-font: none; font-file-url: none; fill: rgb(244,87,61); fill-rule: nonzero; opacity: 1;" transform=" translate(-105.1491, -210.5509)" d="M 126.973 201.245 a 0.31 0.31 0 0 1 -0.294 -0.407 c 1.892 -5.746 0.76 -10.534 -3.671 -15.525 a 0.31 0.31 0 1 1 0.463 -0.411 c 4.595 5.175 5.766 10.15 3.796 16.13 a 0.31 0.31 0 0 1 -0.294 0.213 z M 82.113 230.86 c 2.879 4.106 46.967 9.891 44.664 0 c -0.584 -2.512 -0.872 -5.549 -0.976 -8.682 c -2.272 1.586 -5.145 2.362 -7.945 2.346 c -3.914 -0.023 -7.704 -1.42 -11.176 -3.232 c -10.975 -5.732 -19.524 -15.945 -23.232 -27.76 l -0.488 1.37 c 0.172 0.666 0.321 1.36 0.454 2.077 c 2.441 13.154 -1.301 33.88 -1.301 33.88 z" stroke-linecap="round"/>
</g>
		<g transform="matrix(1.2222 0 0 1.2222 -87.7939 -33.9198)" id="SvgjsG1008">
<path style="stroke: none; stroke-width: 1; stroke-dasharray: none; stroke-linecap: butt; stroke-dashoffset: 0; stroke-linejoin: miter; stroke-miterlimit: 4; is-custom-font: none; font-file-url: none; fill: rgb(254,107,77); fill-rule: nonzero; opacity: 1;" transform=" translate(-153.169, -197.2478)" d="M 131.435 203.983 s 12.488 13.618 18.858 14.614 c 6.375 1.002 24.61 -34.725 24.61 -34.725 l -6.744 -5.245 l -19.736 22.618 l -15.616 -25.367 l -1.372 28.105 z" stroke-linecap="round"/>
</g>
		<g transform="matrix(1.2222 0 0 1.2222 -149.8546 4.0941)" id="SvgjsG1008">
<path style="stroke: none; stroke-width: 1; stroke-dasharray: none; stroke-linecap: butt; stroke-dashoffset: 0; stroke-linejoin: miter; stroke-miterlimit: 4; is-custom-font: none; font-file-url: none; fill: rgb(255,189,57); fill-rule: nonzero; opacity: 1;" transform=" translate(-102.3924, -228.3504)" d="M 69.942 236.454 c 4.98 -4.725 12.269 -5.507 18.01 -2.447 c 0.969 0.517 2.158 0.365 2.215 0.311 l 41.395 -39.287 c 2.039 -1.935 4.107 -1.853 5.303 -0.5 c 1.139 1.29 0.997 3.268 -0.251 4.453 l -2.131 2.022 a 0.952 0.952 0 0 0 -0.035 1.345 l 4.804 5.063 c 0.603 0.635 0.576 1.639 -0.059 2.242 l -2.646 2.511 a 1.586 1.586 0 0 1 -2.243 -0.059 l -4.804 -5.062 a 0.952 0.952 0 0 0 -1.345 -0.035 l -2.465 2.34 a 0.952 0.952 0 0 0 -0.036 1.345 l 2.62 2.761 c 0.604 0.636 0.577 1.64 -0.058 2.243 l -2.646 2.51 a 1.586 1.586 0 0 1 -2.243 -0.058 l -2.62 -2.761 a 0.952 0.952 0 0 0 -1.346 -0.036 L 95.273 238.22 a 2.536 2.536 0 0 0 -0.55 2.917 c 2.827 6.036 1.545 13.483 -3.74 18.2 c -6.028 5.377 -15.821 5.034 -21.463 -0.747 c -6.067 -6.219 -5.859 -16.175 0.422 -22.136 z m 2.893 9.5 a 2.855 2.855 0 0 0 -0.106 4.037 l 5.24 5.523 a 2.855 2.855 0 0 0 4.143 -3.93 l -5.24 -5.524 a 2.855 2.855 0 0 0 -4.037 -0.105 z" stroke-linecap="round"/>
</g>
		<g transform="matrix(1.2222 0 0 1.2222 -151.2038 1.7989)" id="SvgjsG1008">
<path style="stroke: none; stroke-width: 1; stroke-dasharray: none; stroke-linecap: butt; stroke-dashoffset: 0; stroke-linejoin: miter; stroke-miterlimit: 4; is-custom-font: none; font-file-url: none; fill: rgb(255,174,31); fill-rule: nonzero; opacity: 1;" transform=" translate(-101.2885, -226.4724)" d="M 70.296 259.364 c -5.002 -6.245 -4.463 -15.376 1.438 -20.979 c 4.976 -4.725 12.273 -5.51 18.007 -2.447 c 0.967 0.515 2.161 0.366 2.22 0.31 l 41.391 -39.288 c 1.472 -1.397 2.966 -1.748 4.13 -1.307 a 3.169 3.169 0 0 0 -0.62 -1.083 c -1.199 -1.351 -3.267 -1.44 -5.307 0.497 l -41.39 39.288 c -0.06 0.056 -1.247 0.213 -2.221 -0.31 c -5.734 -3.063 -13.031 -2.278 -18.008 2.447 c -6.277 5.961 -6.484 15.916 -0.421 22.138 c 0.253 0.252 0.506 0.503 0.781 0.734 z" stroke-linecap="round"/>
</g>
		<g transform="matrix(1.2222 0 0 1.2222 -172.1782 20.0935)" id="SvgjsG1008">
<path style="stroke: none; stroke-width: 1; stroke-dasharray: none; stroke-linecap: butt; stroke-dashoffset: 0; stroke-linejoin: miter; stroke-miterlimit: 4; is-custom-font: none; font-file-url: none; fill: rgb(255,174,31); fill-rule: nonzero; opacity: 1;" transform=" translate(-84.1273, -241.4405)" d="M 102.784 225.1 c -0.622 -0.753 -0.245 -0.468 -0.877 -1.202 a 10.693 10.693 0 0 1 -0.326 -0.377 l -7.352 6.974 l -4.068 3.864 c -0.061 0.051 -1.244 0.204 -2.212 -0.316 c -5.74 -3.059 -13.041 -2.274 -18.017 2.447 c -6.27 5.965 -6.485 15.916 -0.418 22.136 c 0.255 0.255 0.51 0.51 0.785 0.734 c -5.006 -6.24 -4.466 -15.376 1.438 -20.973 c 4.976 -4.732 12.266 -5.506 18.006 -2.447 c 0.969 0.51 2.162 0.367 2.223 0.305 l 4.66 -4.425 l 6.535 -6.199 c -0.122 -0.173 -0.244 -0.367 -0.377 -0.52 z M 84.774 250.344 a 1.188 1.188 0 0 1 0.044 -1.687 l 3.393 -3.222 a 1.188 1.188 0 0 1 1.687 0.044 c 0.456 0.48 0.437 1.23 -0.044 1.686 l -3.394 3.223 c -0.48 0.456 -1.23 0.437 -1.686 -0.044 z" stroke-linecap="round"/>
</g>
		<g transform="matrix(1.2222 0 0 1.2222 -174.2409 21.7)" id="SvgjsG1008">
<path style="stroke: none; stroke-width: 1; stroke-dasharray: none; stroke-linecap: butt; stroke-dashoffset: 0; stroke-linejoin: miter; stroke-miterlimit: 4; is-custom-font: none; font-file-url: none; fill: rgb(255,174,31); fill-rule: nonzero; opacity: 1;" transform=" translate(-82.4394, -242.7546)" d="M 81.51 246.906 a 1.188 1.188 0 0 1 0.043 -1.686 l 3.394 -3.223 a 1.188 1.188 0 0 1 1.686 0.044 c 0.457 0.48 0.437 1.23 -0.043 1.686 l -3.394 3.223 c -0.48 0.456 -1.23 0.437 -1.687 -0.044 z M 78.245 243.468 a 1.188 1.188 0 0 1 0.044 -1.686 l 3.394 -3.223 a 1.188 1.188 0 0 1 1.686 0.044 c 0.457 0.48 0.437 1.23 -0.044 1.686 l -3.393 3.223 c -0.481 0.456 -1.23 0.437 -1.687 -0.044 z" stroke-linecap="round"/>
</g>
		<g transform="matrix(1.2222 0 0 1.2222 -158.2085 -0.0684)" id="SvgjsG1008">
<path style="stroke: none; stroke-width: 1; stroke-dasharray: none; stroke-linecap: butt; stroke-dashoffset: 0; stroke-linejoin: miter; stroke-miterlimit: 4; is-custom-font: none; font-file-url: none; fill: rgb(255,197,197); fill-rule: nonzero; opacity: 1;" transform=" translate(-95.557, -224.9442)" d="M 107.76 229.965 c -0.184 0.02 -0.388 0.03 -0.52 0.132 c -0.775 0.55 -1.611 0.948 -2.59 0.775 c -0.47 -0.071 -0.694 0.112 -0.867 0.48 c -0.153 0.376 -0.438 0.52 -0.826 0.53 c -0.316 0.01 -0.642 -0.01 -0.958 0.04 c -0.428 0.072 -0.979 0.061 -1.234 0.327 c -0.744 0.713 -1.764 0.723 -2.508 0.397 a 17.59 17.59 0 0 1 -1.631 -0.826 c -0.327 -0.173 -0.653 -0.357 -0.98 -0.53 c -0.468 -0.255 -0.948 -0.52 -1.417 -0.795 a 64.274 64.274 0 0 1 -1.142 -0.663 c -0.856 -0.51 -1.753 -0.968 -2.528 -1.58 c -0.765 -0.602 -0.408 -0.326 -1.122 -1.01 c -0.815 -0.255 -3.344 -1.06 -6.74 -2.243 a 139.359 139.359 0 0 1 5.017 -7.963 l 3.446 1.651 c 0.051 0.01 0.092 0.031 0.143 0.041 a 4.278 4.278 0 0 0 2.09 0.133 c 0.755 -0.122 1.52 -0.255 2.284 -0.306 c 1.305 -0.092 2.61 -0.377 3.926 -0.04 c 1.244 0.326 2.62 -0.031 3.772 0.825 c 0.337 0.245 0.826 0.275 1.224 0.439 c 0.214 0.081 0.5 0.193 0.56 0.346 l -1.437 1.366 a 1.969 1.969 0 0 1 -1.111 -0.02 c -0.714 -0.224 -1.418 -0.377 -2.162 -0.285 c -0.245 0.03 -0.5 0.102 -0.744 0.153 c 0.652 0.764 1.264 1.468 1.876 2.182 c 0.102 0.122 0.214 0.254 0.326 0.377 c 0.632 0.734 0.255 0.449 0.877 1.203 c 0.133 0.153 0.255 0.347 0.377 0.52 c 0.133 0.194 0.265 0.377 0.449 0.51 c 0.775 0.58 1.6 1.08 2.416 1.6 c 0.102 0.072 0.265 0.052 0.398 0.082 c 0.754 0.133 1.427 0.418 1.845 1.111 c 0.327 0.531 0.092 0.96 -0.51 1.04 z" stroke-linecap="round"/>
</g>
		<g transform="matrix(1.2222 0 0 1.2222 -192.5448 -34.2694)" id="SvgjsG1008">
<path style="stroke: none; stroke-width: 1; stroke-dasharray: none; stroke-linecap: butt; stroke-dashoffset: 0; stroke-linejoin: miter; stroke-miterlimit: 4; is-custom-font: none; font-file-url: none; fill: rgb(254,107,77); fill-rule: nonzero; opacity: 1;" transform=" translate(-67.4638, -196.962)" d="M 44.37 204.12 c 3.01 5.42 42.902 24.085 42.902 24.085 l 3.464 -10.686 l -23.275 -14.3 l 14.35 -10.365 c -1.183 -10.068 -2.41 -19.398 -3.733 -27.135 c -0.893 0.464 -36.716 32.983 -33.707 38.402 z" stroke-linecap="round"/>
</g>
		<g transform="matrix(1.2222 0 0 1.2222 -194.6864 -22.4211)" id="SvgjsG1008">
<path style="stroke: none; stroke-width: 1; stroke-dasharray: none; stroke-linecap: butt; stroke-dashoffset: 0; stroke-linejoin: miter; stroke-miterlimit: 4; is-custom-font: none; font-file-url: none; fill: rgb(244,87,61); fill-rule: nonzero; opacity: 1;" transform=" translate(-65.7115, -206.6559)" d="M 87.272 228.515 a 0.315 0.315 0 0 1 -0.131 -0.03 c -1.632 -0.763 -40.019 -18.77 -43.04 -24.214 c -0.468 -0.842 -1.89 -3.402 13.452 -19.379 a 0.31 0.31 0 1 1 0.447 0.43 c -13.072 13.613 -13.98 17.527 -13.358 18.648 c 2.925 5.27 42.364 23.768 42.762 23.954 a 0.31 0.31 0 0 1 -0.132 0.59 z" stroke-linecap="round"/>
</g>
		<g transform="matrix(1.2222 0 0 1.2222 -178.325 -24.2162)" id="SvgjsG1008">
<path style="stroke: none; stroke-width: 1; stroke-dasharray: none; stroke-linecap: butt; stroke-dashoffset: 0; stroke-linejoin: miter; stroke-miterlimit: 4; is-custom-font: none; font-file-url: none; fill: rgb(244,87,61); fill-rule: nonzero; opacity: 1;" transform=" translate(-79.098, -205.187)" d="M 90.735 217.83 a 0.31 0.31 0 0 1 -0.162 -0.046 l -23.274 -14.3 a 0.31 0.31 0 0 1 -0.02 -0.516 l 14.35 -10.365 a 0.31 0.31 0 0 1 0.364 0.502 L 68.02 203.198 l 22.878 14.057 a 0.31 0.31 0 0 1 -0.162 0.574 z" stroke-linecap="round"/>
</g>
		<g transform="matrix(1.2222 0 0 1.2222 -147.5084 -69.0258)" id="SvgjsG1008">
<path style="stroke: none; stroke-width: 1; stroke-dasharray: none; stroke-linecap: butt; stroke-dashoffset: 0; stroke-linejoin: miter; stroke-miterlimit: 4; is-custom-font: none; font-file-url: none; fill: rgb(255,197,197); fill-rule: nonzero; opacity: 1;" transform=" translate(-104.3115, -168.5245)" d="M 92.345 162.441 c 0 4.087 5.334 14.088 11.966 14.088 c 6.144 0 11.25 -9.529 11.967 -13.195 c -1.871 -0.539 -3.32 -0.817 -3.936 -0.927 c -0.21 -0.042 -0.32 -0.059 -0.32 -0.059 s -16.786 -1.71 -19.264 -1.828 a 4.745 4.745 0 0 0 -0.413 1.921 z" stroke-linecap="round"/>
</g>
		<g transform="matrix(1.2222 0 0 1.2222 -151.2368 -69.0246)" id="SvgjsG1008">
<path style="stroke: none; stroke-width: 1; stroke-dasharray: none; stroke-linecap: butt; stroke-dashoffset: 0; stroke-linejoin: miter; stroke-miterlimit: 4; is-custom-font: none; font-file-url: none; fill: rgb(252,175,175); fill-rule: nonzero; opacity: 1;" transform=" translate(-101.261, -168.5255)" d="M 92.345 162.441 c 0 4.087 5.334 14.09 11.966 14.09 c 2.132 0 4.13 -1.146 5.866 -2.79 c -1.433 1.08 -3 1.762 -4.644 1.762 c -6.632 0 -11.957 -10.003 -11.957 -14.09 c 0 -0.278 0.025 -0.556 0.075 -0.826 c -0.387 -0.034 -0.69 -0.059 -0.893 -0.067 a 4.745 4.745 0 0 0 -0.413 1.921 z" stroke-linecap="round"/>
</g>
		<g transform="matrix(1.2222 0 0 1.2222 -142.4131 -123.8044)" id="SvgjsG1008">
<path style="stroke: none; stroke-width: 1; stroke-dasharray: none; stroke-linecap: butt; stroke-dashoffset: 0; stroke-linejoin: miter; stroke-miterlimit: 4; is-custom-font: none; font-file-url: none; fill: rgb(199,214,242); fill-rule: nonzero; opacity: 1;" transform=" translate(-108.4804, -123.7057)" d="M 100.154 132.258 c 0.086 -2.332 0.4 -4.771 1.045 -6.988 c 0.337 -1.108 0.735 -2.188 1.276 -3.168 c 0.55 -0.96 1.204 -1.89 1.985 -2.69 c 1.541 -1.62 3.545 -2.782 5.763 -3.223 a 10.856 10.856 0 0 1 3.442 -0.142 c 1.173 0.136 3.838 0.697 5.018 1.106 l 0.009 0.002 a 0.247 0.247 0 0 0 0.232 -0.427 c -1.016 -0.79 -3.679 -1.655 -4.944 -2.088 c -1.268 -0.424 -2.641 -0.587 -4.013 -0.506 c -2.752 0.163 -5.44 1.42 -7.412 3.354 c -0.99 0.965 -1.86 2.045 -2.53 3.27 c -0.674 1.21 -1.139 2.496 -1.465 3.796 c -0.64 2.616 -0.79 5.225 -0.406 7.883 a 1.004 1.004 0 0 0 1.997 -0.106 l 0.003 -0.073 z" stroke-linecap="round"/>
</g>
		<g transform="matrix(1.2222 0 0 1.2222 -148.6252 -118.6159)" id="SvgjsG1008">
<path style="stroke: none; stroke-width: 1; stroke-dasharray: none; stroke-linecap: butt; stroke-dashoffset: 0; stroke-linejoin: miter; stroke-miterlimit: 4; is-custom-font: none; font-file-url: none; fill: rgb(237,243,255); fill-rule: nonzero; opacity: 1;" transform=" translate(-103.3978, -127.9508)" d="M 110.682 114.959 c -1.697 -0.02 -3.342 0.458 -4.812 1.257 c -3.953 2.145 -5.505 5.871 -6.575 10.176 l -0.404 2.454 a 0.184 0.184 0 0 0 0.363 0.06 l 0.003 -0.015 l 0.402 -2.423 c 0.968 -3.863 2.433 -7.779 6.37 -9.962 c 1.409 -0.787 3.03 -1.266 4.634 -1.261 h 0.016 a 0.143 0.143 0 0 0 0.003 -0.286 z M 104.244 138.764 c -1.033 2.082 -3.26 2.79 -5.277 1.608 c -2.412 -1.413 -3.421 -4.539 -2.83 -7.19 c 0.695 -3.114 4.207 -4.662 6.62 -2.37 c 2.156 2.049 2.618 5.671 1.487 7.952 z" stroke-linecap="round"/>
</g>
		<g transform="matrix(1.2222 0 0 1.2222 -152.6667 -109.5996)" id="SvgjsG1008">
<path style="stroke: none; stroke-width: 1; stroke-dasharray: none; stroke-linecap: butt; stroke-dashoffset: 0; stroke-linejoin: miter; stroke-miterlimit: 4; is-custom-font: none; font-file-url: none; fill: rgb(64,82,242); fill-rule: nonzero; opacity: 1;" transform=" translate(-100.0909, -135.3277)" d="M 102.532 137.684 c -0.633 1.403 -2.029 1.865 -3.307 1.048 c -1.528 -0.977 -2.188 -3.103 -1.837 -4.895 c 0.413 -2.105 2.609 -3.125 4.145 -1.553 c 1.372 1.405 1.692 3.863 0.999 5.4 z" stroke-linecap="round"/>
</g>
		<g transform="matrix(1.2222 0 0 1.2222 -153.889 -108.6873)" id="SvgjsG1008">
<path style="stroke: none; stroke-width: 1; stroke-dasharray: none; stroke-linecap: butt; stroke-dashoffset: 0; stroke-linejoin: miter; stroke-miterlimit: 4; is-custom-font: none; font-file-url: none; fill: rgb(25,57,209); fill-rule: nonzero; opacity: 1;" transform=" translate(-99.0908, -136.074)" d="M 98.38 134.352 c -0.13 0.647 -0.062 1.29 0.137 1.904 c 0.211 0.607 0.585 1.149 1.032 1.599 a 0.184 0.184 0 1 0 0.26 -0.26 a 4.124 4.124 0 0 1 -0.939 -1.466 c -0.208 -0.537 -0.295 -1.151 -0.21 -1.711 l 0.002 -0.016 a 0.143 0.143 0 0 0 -0.282 -0.05 z" stroke-linecap="round"/>
</g>
		<g transform="matrix(1.2222 0 0 1.2222 143.1701 112.0422)" id="SvgjsG1008">
<path style="stroke: none; stroke-width: 1; stroke-dasharray: none; stroke-linecap: butt; stroke-dashoffset: 0; stroke-linejoin: miter; stroke-miterlimit: 4; is-custom-font: none; font-file-url: none; fill: rgb(37,165,159); fill-rule: nonzero; opacity: 1;" transform=" translate(-342.1393, -316.6712)" d="M 348.715 305.463 c 1.021 1.987 2.735 8.775 3.102 14.9 c 0.505 6.162 -0.337 11.66 -1.263 11.925 c -1.005 0.5 -2.885 -4.447 -6.289 -8.213 c -3.179 -3.997 -7.881 -6.813 -9.348 -7.384 c -3.14 -1.562 -3.968 -7.384 0.48 -12.529 c 4.479 -5.142 11.44 -3.45 13.318 1.3 z" stroke-linecap="round"/>
</g>
		<g transform="matrix(1.2222 0 0 1.2222 153.5756 132.105)" id="SvgjsG1008">
<path style="stroke: none; stroke-width: 1; stroke-dasharray: none; stroke-linecap: butt; stroke-dashoffset: 0; stroke-linejoin: miter; stroke-miterlimit: 4; is-custom-font: none; font-file-url: none; fill: rgb(56,56,56); fill-rule: nonzero; opacity: 1;" transform=" translate(-350.6529, -333.0863)" d="M 357.283 355.693 a 0.32 0.32 0 0 1 -0.259 -0.132 c -4.725 -6.569 -5.75 -15.006 -6.655 -22.45 c -0.849 -6.985 -1.906 -15.68 -6.604 -22.126 a 0.319 0.319 0 0 1 0.069 -0.445 a 0.319 0.319 0 0 1 0.444 0.07 c 4.797 6.58 5.865 15.366 6.724 22.425 c 0.894 7.367 1.908 15.718 6.54 22.154 a 0.318 0.318 0 0 1 -0.259 0.504 z" stroke-linecap="round"/>
</g>
		<g transform="matrix(1.2222 0 0 1.2222 158.9931 136.0901)" id="SvgjsG1008">
<path style="stroke: none; stroke-width: 1; stroke-dasharray: none; stroke-linecap: butt; stroke-dashoffset: 0; stroke-linejoin: miter; stroke-miterlimit: 4; is-custom-font: none; font-file-url: none; fill: rgb(63,196,189); fill-rule: nonzero; opacity: 1;" transform=" translate(-355.0857, -336.3466)" d="M 375.307 339.969 c -0.984 0.113 -4.788 1.144 -7.476 2.916 c -2.857 1.634 -4.598 4.01 -5.378 3.644 c -0.731 -0.143 -0.37 -3.429 1.905 -6.27 c 2.045 -2.915 6.003 -5.386 7.168 -5.626 c 2.271 -0.892 5.309 0.078 6.138 1.769 c 0.846 1.687 -0.471 3.103 -2.357 3.567 z M 335.854 326.206 c -3.316 -0.465 -4.45 1.19 -2.969 2.882 c 1.48 1.743 3.895 3.598 5.783 4.587 c 0.924 0.354 4.836 2.24 7.147 5.483 c 2.56 2.98 3.518 7.317 4.3 6.48 c 0.886 -0.678 1.099 -7.027 -2.707 -11.92 c -1.736 -2.451 -4.161 -4.5 -6.445 -5.694 c -2.266 -1.24 -4.39 -1.625 -5.11 -1.818 z" stroke-linecap="round"/>
</g>
		<g transform="matrix(1.2222 0 0 1.2222 137.1969 138.2679)" id="SvgjsG1008">
<path style="stroke: none; stroke-width: 1; stroke-dasharray: none; stroke-linecap: butt; stroke-dashoffset: 0; stroke-linejoin: miter; stroke-miterlimit: 4; is-custom-font: none; font-file-url: none; fill: rgb(37,165,159); fill-rule: nonzero; opacity: 1;" transform=" translate(-337.2522, -338.1283)" d="M 334.626 333.745 c 0.911 0.08 4.366 1.588 6.454 3.767 c 2.246 2.078 3.126 4.825 2.538 5.056 c -0.582 0.362 -2.394 -1.346 -4.734 -2.387 c -2.261 -1.165 -5.05 -1.663 -5.765 -1.751 c -1.38 -0.288 -2.563 -1.375 -2.394 -2.732 c 0.161 -1.355 2.032 -2.403 3.901 -1.953 z" stroke-linecap="round"/>
</g>
		<g transform="matrix(1.2222 0 0 1.2222 185.6493 114.2617)" id="SvgjsG1008">
<path style="stroke: none; stroke-width: 1; stroke-dasharray: none; stroke-linecap: butt; stroke-dashoffset: 0; stroke-linejoin: miter; stroke-miterlimit: 4; is-custom-font: none; font-file-url: none; fill: rgb(50,181,179); fill-rule: nonzero; opacity: 1;" transform=" translate(-376.8952, -318.4872)" d="M 385.98 317.165 c -1.06 0 -3.988 0.088 -7.297 1.06 c -3.31 0.93 -7 2.742 -9.629 5.256 c -5.724 4.855 -6.545 11.435 -7.643 10.895 c -0.928 -0.125 -3.031 -7.087 0.236 -15.034 c 1.448 -3.908 4.374 -7.85 7.553 -10.685 c 3.14 -2.875 6.53 -4.645 8.014 -5.136 c 6.03 -2.707 15.373 0.702 16.498 5.777 c 1.198 4.95 -3.397 7.62 -7.732 7.867 z" stroke-linecap="round"/>
</g>
		<g transform="matrix(1.2222 0 0 1.2222 177.418 129.9648)" id="SvgjsG1008">
<path style="stroke: none; stroke-width: 1; stroke-dasharray: none; stroke-linecap: butt; stroke-dashoffset: 0; stroke-linejoin: miter; stroke-miterlimit: 4; is-custom-font: none; font-file-url: none; fill: rgb(56,56,56); fill-rule: nonzero; opacity: 1;" transform=" translate(-370.1604, -331.3353)" d="M 358.07 355.477 a 0.369 0.369 0 0 1 -0.366 -0.328 c -1.193 -11.083 2.403 -35.358 24.557 -47.903 a 0.368 0.368 0 1 1 0.363 0.64 c -21.821 12.357 -25.363 36.267 -24.188 47.184 a 0.368 0.368 0 0 1 -0.366 0.407 z" stroke-linecap="round"/>
</g>
		<g transform="matrix(1.2222 0 0 1.2222 158.3054 142.9396)" id="SvgjsG1008">
<path style="stroke: none; stroke-width: 1; stroke-dasharray: none; stroke-linecap: butt; stroke-dashoffset: 0; stroke-linejoin: miter; stroke-miterlimit: 4; is-custom-font: none; font-file-url: none; fill: rgb(56,56,56); fill-rule: nonzero; opacity: 1;" transform=" translate(-354.523, -341.9509)" d="M 361.972 351.127 a 0.365 0.365 0 0 1 -0.276 -0.124 c -0.724 -0.82 -0.974 -2.104 -0.655 -3.35 c 0.29 -1.13 0.969 -2.108 1.594 -2.915 a 25.87 25.87 0 0 1 11.17 -8.303 a 0.37 0.37 0 0 1 0.475 0.212 a 0.369 0.369 0 0 1 -0.212 0.475 a 25.13 25.13 0 0 0 -10.851 8.066 c -0.58 0.748 -1.207 1.648 -1.463 2.647 c -0.26 1.014 -0.071 2.041 0.493 2.681 a 0.368 0.368 0 0 1 -0.275 0.611 z M 349.376 353.899 a 0.368 0.368 0 0 1 -0.362 -0.305 c -1.324 -7.636 -6.834 -14.412 -14.04 -17.265 a 0.368 0.368 0 1 1 0.272 -0.684 c 7.438 2.945 13.126 9.94 14.492 17.823 a 0.368 0.368 0 0 1 -0.362 0.43 z M 352.639 352.207 a 0.225 0.225 0 0 1 -0.215 -0.16 c -1.205 -4.057 -2.451 -8.251 -4.405 -12.083 c -2.193 -4.304 -4.979 -7.516 -8.28 -9.546 a 0.224 0.224 0 0 1 0.235 -0.382 c 3.372 2.074 6.212 5.346 8.444 9.725 c 1.972 3.868 3.225 8.082 4.435 12.158 a 0.223 0.223 0 0 1 -0.214 0.288 z" stroke-linecap="round"/>
</g>
		<g transform="matrix(1.2222 0 0 1.2222 167.6021 96.7933)" id="SvgjsG1008">
<path style="stroke: none; stroke-width: 1; stroke-dasharray: none; stroke-linecap: butt; stroke-dashoffset: 0; stroke-linejoin: miter; stroke-miterlimit: 4; is-custom-font: none; font-file-url: none; fill: rgb(63,196,189); fill-rule: nonzero; opacity: 1;" transform=" translate(-362.1292, -304.1949)" d="M 370.548 301.507 c -1.28 1.477 -5.23 6.678 -7.798 12.53 c -2.835 5.627 -4.29 11.904 -6.738 10.343 c -2.54 -1.16 -5.405 -11.58 -3.895 -20.443 c 0.981 -9.125 6.339 -16.691 7.992 -18.204 c 4.112 -4.052 8.621 -1.272 10.823 3.207 c 2.276 4.52 2.183 8.875 -0.384 12.567 z" stroke-linecap="round"/>
</g>
		<g transform="matrix(1.2222 0 0 1.2222 161.0339 122.5989)" id="SvgjsG1008">
<path style="stroke: none; stroke-width: 1; stroke-dasharray: none; stroke-linecap: butt; stroke-dashoffset: 0; stroke-linejoin: miter; stroke-miterlimit: 4; is-custom-font: none; font-file-url: none; fill: rgb(56,56,56); fill-rule: nonzero; opacity: 1;" transform=" translate(-356.7551, -325.3087)" d="M 357.354 353.575 a 0.368 0.368 0 0 1 -0.317 -0.182 c -2.876 -4.893 -3.885 -11.167 -2.998 -18.648 c 0.478 -4.034 1.435 -8.043 2.358 -11.92 c 0.523 -2.19 1.063 -4.453 1.51 -6.693 c 0.96 -4.81 2.002 -11.973 -0.014 -18.615 a 0.367 0.367 0 1 1 0.703 -0.214 c 2.065 6.8 1.007 14.085 0.032 18.974 c -0.45 2.252 -0.99 4.523 -1.515 6.719 c -0.92 3.856 -1.87 7.844 -2.344 11.835 c -0.867 7.318 0.11 13.438 2.903 18.19 a 0.369 0.369 0 0 1 -0.318 0.554 z" stroke-linecap="round"/>
</g>
		<g transform="matrix(1.2222 0 0 1.2222 160.2483 168.4598)" id="SvgjsG1008">
<path style="stroke: none; stroke-width: 1; stroke-dasharray: none; stroke-linecap: butt; stroke-dashoffset: 0; stroke-linejoin: miter; stroke-miterlimit: 4; is-custom-font: none; font-file-url: none; fill: rgb(255,197,197); fill-rule: nonzero; opacity: 1;" transform=" translate(-356.1125, -362.831)" d="m 370.39 350.701 l -3.568 20.96 a 3.965 3.965 0 0 1 -3.909 3.3 h -13.602 a 3.964 3.964 0 0 1 -3.908 -3.3 l -2.102 -12.342 l -1.421 -8.358 l -0.045 -0.26 h 28.555 z" stroke-linecap="round"/>
</g>
		<g transform="matrix(1.2222 0 0 1.2222 160.2758 168.3962)" id="SvgjsG1008">
<path style="stroke: none; stroke-width: 1; stroke-dasharray: none; stroke-linecap: butt; stroke-dashoffset: 0; stroke-linejoin: miter; stroke-miterlimit: 4; is-custom-font: none; font-file-url: none; fill: rgb(252,175,175); fill-rule: nonzero; opacity: 1;" transform=" translate(-356.135, -362.779)" d="m 370.39 350.701 l -3.568 20.96 a 3.965 3.965 0 0 1 -3.008 3.196 a 21.264 21.264 0 0 0 -0.717 -4.818 c -1.188 -4.37 -4.014 -8.381 -8.018 -10.498 c -3.61 -1.909 -8.18 -2.09 -11.778 -0.222 l -1.421 -8.358 c 0.047 -0.088 0.095 -0.174 0.144 -0.26 h 28.366 z" stroke-linecap="round"/>
</g>
		<g transform="matrix(1.2222 0 0 1.2222 160.214 155.2882)" id="SvgjsG1008">
<path style="stroke: none; stroke-width: 1; stroke-dasharray: none; stroke-linecap: butt; stroke-dashoffset: 0; stroke-linejoin: miter; stroke-miterlimit: 4; is-custom-font: none; font-file-url: none; fill: rgb(255,197,197); fill-rule: nonzero; opacity: 1;" transform=" translate(-356.0845, -352.054)" d="M 369.93 355.12 h -27.692 a 1.888 1.888 0 0 1 -1.887 -1.888 v -2.356 c 0 -1.043 0.845 -1.888 1.887 -1.888 h 27.692 c 1.042 0 1.888 0.845 1.888 1.888 v 2.356 a 1.888 1.888 0 0 1 -1.888 1.887 z" stroke-linecap="round"/>
</g>
		<g transform="matrix(1.2222 0 0 1.2222 188.8148 -21.8389)" id="SvgjsG1008">
<circle style="stroke: none; stroke-width: 1; stroke-dasharray: none; stroke-linecap: butt; stroke-dashoffset: 0; stroke-linejoin: miter; stroke-miterlimit: 4; is-custom-font: none; font-file-url: none; fill: rgb(64,82,242); fill-rule: nonzero; opacity: 1;" cx="0" cy="0" r="9.568"/>
</g>
		<g transform="matrix(1.2222 0 0 1.2222 188.7392 -25.4449)" id="SvgjsG1008">
<path style="stroke: none; stroke-width: 1; stroke-dasharray: none; stroke-linecap: butt; stroke-dashoffset: 0; stroke-linejoin: miter; stroke-miterlimit: 4; is-custom-font: none; font-file-url: none; fill: rgb(255,255,255); fill-rule: nonzero; opacity: 1;" transform=" translate(-379.423, -204.1815)" d="M 378.445 206.587 v -4.811 a 0.978 0.978 0 0 1 1.956 0 v 4.811 a 0.978 0.978 0 0 1 -1.956 0 z" stroke-linecap="round"/>
</g>
		<g transform="matrix(1.2222 0 0 1.2222 188.6923 -20.1645)" id="SvgjsG1008">
<path style="stroke: none; stroke-width: 1; stroke-dasharray: none; stroke-linecap: butt; stroke-dashoffset: 0; stroke-linejoin: miter; stroke-miterlimit: 4; is-custom-font: none; font-file-url: none; fill: rgb(255,255,255); fill-rule: nonzero; opacity: 1;" transform=" translate(-379.3847, -208.5019)" d="M 384.73 207.862 c 0 1.428 -0.554 2.77 -1.568 3.779 a 5.295 5.295 0 0 1 -3.778 1.568 a 5.311 5.311 0 0 1 -3.782 -1.568 a 5.352 5.352 0 0 1 0 -7.561 a 0.985 0.985 0 0 1 1.384 0 a 0.977 0.977 0 0 1 0 1.384 a 3.395 3.395 0 0 0 0 4.796 c 0.642 0.641 1.49 0.993 2.398 0.993 a 3.37 3.37 0 0 0 2.398 -0.993 a 3.37 3.37 0 0 0 0.993 -2.398 c 0 -0.907 -0.352 -1.756 -0.993 -2.398 a 0.977 0.977 0 1 1 1.38 -1.384 a 5.304 5.304 0 0 1 1.569 3.782 z" stroke-linecap="round"/>
</g>
		<g transform="matrix(1.2222 0 0 1.2222 -135.8864 -166.3229)" id="SvgjsG1008">
<path style="stroke: none; stroke-width: 1; stroke-dasharray: none; stroke-linecap: butt; stroke-dashoffset: 0; stroke-linejoin: miter; stroke-miterlimit: 4; is-custom-font: none; font-file-url: none; fill: rgb(213,225,250); fill-rule: nonzero; opacity: 1;" transform=" translate(-113.8207, -88.9178)" d="M 95.123 90.013 s 0.104 -4.93 -3.244 -4.645 l 3.356 8.472 c 0.024 0.04 0.035 0.078 0.048 0.122 c 0.351 0.964 -0.122 2.32 -1.223 3.323 c -1.337 1.2 -3.088 1.42 -3.912 0.496 c -0.84 -0.93 -0.431 -2.659 0.9 -3.856 c 1.03 -0.927 2.316 -1.274 3.235 -0.947 l -5.192 -13.105 a 0.286 0.286 0 0 1 0.149 -0.365 l 0.01 -0.004 a 0.283 0.283 0 0 1 0.37 0.162 l 0.215 0.543 c 0.489 0.39 1.474 1.063 3.405 2.119 c 2.999 1.649 3.018 5.425 1.883 7.685 z M 131.188 87.012 c 0.294 0.577 0.696 1.073 1.097 1.538 c -0.043 0.158 -0.087 0.3 -0.115 0.457 c -0.314 1.401 -0.438 2.894 -0.156 4.349 c 0.07 0.36 0.173 0.735 0.369 1.109 c 0.195 0.374 0.563 0.745 1.035 0.848 c 0.943 0.222 1.788 -0.481 2.054 -1.223 c 0.28 -0.757 0.215 -1.588 -0.035 -2.29 c -0.265 -0.702 -0.685 -1.324 -1.151 -1.867 a 17.357 17.357 0 0 0 -1.04 -1.083 c -0.288 -0.294 -0.576 -0.572 -0.832 -0.851 c -0.321 -0.372 -0.627 -0.76 -0.855 -1.18 c -0.813 -1.432 -0.904 -3.424 0.1 -4.74 c 0.7 -0.921 2.41 -1.354 3.467 -0.961 c 1.23 0.437 2.008 1.697 1.878 2.907 c -0.098 1.226 -1.092 2.291 -2.386 2.483 c -1.278 0.19 -2.78 -0.54 -3.438 -2.022 h -0.016 c -0.01 1.648 1.62 3.288 3.528 3.245 c 0.939 0.017 1.869 -0.373 2.59 -0.995 c 0.721 -0.654 1.154 -1.586 1.274 -2.545 a 4.103 4.103 0 0 0 -0.78 -2.766 l -0.015 -0.016 c -0.934 -1.21 -2.618 -1.688 -4.03 -1.15 c -1.645 0.605 -2.203 1.554 -2.218 1.57 c -1.016 1.49 -1.174 3.548 -0.325 5.183 z m 1.898 2.405 c 0.288 0.279 0.544 0.573 0.785 0.868 c 0.836 1.023 1.445 2.395 0.953 3.532 c -0.222 0.553 -0.763 0.874 -1.22 0.74 c -0.44 -0.104 -0.671 -0.697 -0.764 -1.354 c -0.199 -1.237 -0.07 -2.526 0.246 -3.786 z" stroke-linecap="round"/>
</g>
		<g transform="matrix(1.2222 0 0 1.2222 -152.9194 -152.993)" id="SvgjsG1008">
<path style="stroke: none; stroke-width: 1; stroke-dasharray: none; stroke-linecap: butt; stroke-dashoffset: 0; stroke-linejoin: miter; stroke-miterlimit: 4; is-custom-font: none; font-file-url: none; fill: rgb(213,225,250); fill-rule: nonzero; opacity: 1;" transform=" translate(-99.8848, -99.8244)" d="M 130.055 75.919 c 0.066 -1.272 1.153 -2.324 2.42 -2.342 a 0.965 0.965 0 0 1 0.22 0.012 a 0.923 0.923 0 0 1 0.219 0.028 c 1.804 0.241 2.965 1.825 3.263 3.296 c 0.331 1.58 0.082 3.059 -0.263 4.46 c -0.692 2.678 -2.003 5.004 -2.668 7.477 c -0.288 -0.294 -0.576 -0.572 -0.832 -0.851 c 0.682 -2.41 1.76 -4.623 2.257 -6.937 c 0.285 -1.291 0.428 -2.643 0.12 -3.815 c -0.052 -0.25 -0.15 -0.5 -0.265 -0.718 c -0.34 0.946 -1.247 1.65 -2.295 1.665 c -1.266 0.018 -2.243 -1.003 -2.176 -2.275 z M 69.173 119.995 c -0.3 -0.436 -0.68 -0.795 -1.057 -1.129 c 0.02 -0.132 0.04 -0.252 0.047 -0.382 c 0.112 -1.17 0.058 -2.392 -0.323 -3.542 a 3.228 3.228 0 0 0 -0.417 -0.859 c -0.198 -0.282 -0.538 -0.543 -0.934 -0.576 c -0.795 -0.079 -1.414 0.582 -1.554 1.21 c -0.151 0.645 -0.012 1.311 0.265 1.854 c 0.29 0.54 0.699 1 1.136 1.389 c 0.315 0.278 0.64 0.528 0.963 0.766 c 0.266 0.208 0.53 0.402 0.769 0.6 c 0.301 0.268 0.591 0.55 0.822 0.866 c 0.813 1.073 1.094 2.678 0.409 3.853 c -0.477 0.82 -1.832 1.355 -2.737 1.15 c -1.052 -0.223 -1.82 -1.16 -1.838 -2.155 c -0.047 -1.004 0.656 -1.974 1.695 -2.268 c 1.026 -0.292 2.33 0.14 3.023 1.27 l 0.012 -0.002 c -0.161 -1.337 -1.666 -2.491 -3.222 -2.251 c -0.77 0.086 -1.49 0.502 -2.017 1.084 c -0.522 0.607 -0.78 1.409 -0.778 2.199 a 3.32 3.32 0 0 0 0.924 2.158 l 0.015 0.011 c 0.89 0.881 2.317 1.088 3.416 0.5 c 1.283 -0.666 1.641 -1.496 1.652 -1.51 c 0.677 -1.317 0.593 -3.002 -0.27 -4.236 z m -1.802 -1.745 a 8.195 8.195 0 0 1 -0.733 -0.62 c -0.79 -0.74 -1.43 -1.786 -1.145 -2.76 c 0.125 -0.472 0.534 -0.79 0.921 -0.73 c 0.37 0.036 0.622 0.492 0.766 1.015 c 0.291 0.981 0.32 2.04 0.19 3.095 z" stroke-linecap="round"/>
</g>
		<g transform="matrix(1.2222 0 0 1.2222 -191.248 -122.3645)" id="SvgjsG1008">
<path style="stroke: none; stroke-width: 1; stroke-dasharray: none; stroke-linecap: butt; stroke-dashoffset: 0; stroke-linejoin: miter; stroke-miterlimit: 4; is-custom-font: none; font-file-url: none; fill: rgb(213,225,250); fill-rule: nonzero; opacity: 1;" transform=" translate(-68.5244, -124.8837)" d="M 71.25 128.865 c 0.078 1.038 -0.703 2.007 -1.738 2.157 c -0.064 0.01 -0.127 0.019 -0.18 0.014 a 0.767 0.767 0 0 1 -0.183 0 c -1.501 -0.001 -2.615 -1.16 -3.011 -2.32 c -0.435 -1.246 -0.384 -2.47 -0.247 -3.644 c 0.289 -2.244 1.12 -4.27 1.408 -6.346 c 0.266 0.208 0.53 0.402 0.769 0.6 c -0.309 2.028 -0.962 3.937 -1.128 5.866 c -0.1 1.076 -0.076 2.187 0.296 3.104 c 0.07 0.198 0.176 0.39 0.292 0.554 c 0.18 -0.804 0.85 -1.471 1.705 -1.596 a 1.741 1.741 0 0 1 2.017 1.61 z" stroke-linecap="round"/>
</g>
		<g transform="matrix(1.2222 0 0 1.2222 -19.1894 53.8631)" id="SvgjsG1008">
<path style="stroke: none; stroke-width: 1; stroke-dasharray: none; stroke-linecap: butt; stroke-dashoffset: 0; stroke-linejoin: miter; stroke-miterlimit: 4; is-custom-font: none; font-file-url: none; fill: rgb(90,200,250); fill-rule: nonzero; opacity: 0.5;" transform=" translate(-209.3002, -269.0702)" d="M 220.21 273.681 c 0.108 0.984 0.004 2.06 -0.287 3.008 c -1.102 3.62 -3.521 6.087 -6.971 7.572 c -0.993 0.427 -2.053 0.637 -3.126 0.572 c -2.675 -0.17 -4.305 -2.056 -4.183 -4.76 c 0.108 -2.15 0.968 -4.014 2.27 -5.668 c 1.455 -1.861 3.262 -3.274 5.536 -4.016 a 8.298 8.298 0 11.684 -0.356 c 0.55 -0.057 1.116 -0.02 1.788 -0.028 c -0.092 -0.464 -0.165 -0.901 -0.26 -1.342 c -0.731 -3.187 -1.463 -6.367 -2.186 -9.553 c -0.762 -3.337 -1.509 -6.672 -2.264 -10.007 c -0.088 -0.387 -0.007 -0.573 0.42 -0.732 c 1.98 -0.709 3.911 -0.571 5.698 0.453 c 1.681 0.963 3.27 2.095 4.88 3.17 c 1.556 1.043 3.09 2.13 4.995 2.393 c 0.672 0.098 1.38 0.003 2.136 -0.008 a 6.856 6.856 0 1 -2.87 0.54 c -1.653 -0.058 -3.14 -0.687 -4.611 -1.36 c -1.437 -0.653 -2.875 -1.298 -4.337 -1.886 c -0.908 -0.361 -1.895 -0.338 -2.87 -0.237 c -0.325 0.029 -0.42 0.16 -0.34 0.5 c 0.68 2.958 1.33 5.913 2.003 8.87 c 0.663 2.918 1.341 5.839 2.004 8.757 c 0.318 1.373 0.737 2.73 0.892 4.118 z M 192.358 254.668 c -0.431 -0.384 -0.986 -0.656 -1.515 -0.9 c -0.542 -0.255 -0.663 -0.159 -0.751 0.446 c -0.614 4.195 -1.287 8.374 -1.819 12.581 c -0.25 1.969 -1.248 3.317 -2.857 4.31 c -1.583 0.972 -3.28 1.418 -5.15 1.068 c -2.092 -0.398 -3.067 -2.44 -1.974 -4.277 c 1.567 -2.637 4.001 -3.692 6.975 -3.584 c 0.57 0.015 1.13 0.302 1.796 0.491 l 1.985 -13.563 c 1.516 -0.098 2.741 0.44 3.632 1.546 c 0.96 1.2 1.783 2.502 2.685 3.74 c 0.738 1 1.596 1.858 2.877 2.121 c -1.38 0.043 -2.46 -0.596 -3.407 -1.52 c -0.826 -0.815 -1.614 -1.685 -2.477 -2.46 z M 204.132 271.747 c 0.535 1.397 0.717 2.758 0.073 4.136 c -0.877 1.876 -2.174 3.288 -4.346 3.648 c -1.384 0.232 -2.637 -0.79 -2.606 -2.356 c 0.048 -2.57 1.368 -4.397 3.641 -5.551 c 0.24 -0.125 0.502 -0.201 0.763 -0.262 c 0.26 -0.061 0.536 -0.067 0.923 -0.11 c -1.095 -3.041 -2.162 -6.011 -3.27 -9.07 c -0.259 0.206 -0.467 0.38 -0.676 0.556 c -2.726 2.216 -5.451 4.425 -8.164 6.658 c -0.14 0.125 -0.237 0.47 -0.171 0.646 c 0.8 2.298 1.64 4.579 2.464 6.865 c 0.391 1.079 0.831 2.134 1.183 3.223 c 0.407 1.28 0.09 2.506 -0.525 3.636 c -0.78 1.419 -1.884 2.507 -3.483 3.013 c -1.256 0.403 -2.655 -0.145 -2.99 -1.193 c -0.3 -0.92 -0.34 -1.834 0.009 -2.766 c 0.704 -1.895 1.894 -3.306 3.825 -3.992 c 0.378 -0.135 0.785 -0.16 1.24 -0.246 c -0.324 -0.908 -0.636 -1.8 -0.957 -2.679 c -0.76 -2.1 -1.537 -4.19 -2.28 -6.296 c -0.055 -0.152 0.014 -0.463 0.134 -0.56 c 3.599 -2.965 7.21 -5.913 10.82 -8.861 c 0.026 -0.02 0.07 -0.005 0.171 -0.021 c 0.235 0.637 0.49 1.291 0.721 1.95 c 1.162 3.213 2.284 6.434 3.5 9.632 z M 238.386 276.927 c -0.276 0.768 -0.685 1.396 -1.442 1.737 c -1.03 0.464 -2.07 0.587 -3.096 -0.037 c -0.655 -0.396 -0.81 -1.265 -0.24 -1.902 c 0.935 -1.046 2.131 -1.333 3.482 -1.001 c 0.144 0.033 0.28 0.095 0.409 0.163 c 0.13 0.067 0.245 0.163 0.42 0.283 c 0.63 -1.648 1.246 -3.256 1.876 -4.916 c -0.18 -0.007 -0.329 -0.01 -0.478 -0.01 c -1.916 -0.054 -3.83 -0.11 -5.747 -0.152 c -0.102 0.002 -0.265 0.11 -0.3 0.207 c -0.487 1.235 -0.951 2.478 -1.424 3.717 c -0.222 0.586 -0.416 1.179 -0.658 1.754 c -0.286 0.675 -0.854 1.07 -1.51 1.318 c -0.828 0.31 -1.672 0.367 -2.514 0.007 c -0.663 -0.28 -1.047 -1.005 -0.813 -1.557 c 0.204 -0.488 0.512 -0.88 0.988 -1.142 c 0.966 -0.533 1.96 -0.693 3.004 -0.29 c 0.204 0.078 0.381 0.213 0.6 0.34 c 0.19 -0.492 0.378 -0.972 0.558 -1.45 c 0.433 -1.14 0.855 -2.28 1.297 -3.416 c 0.032 -0.082 0.17 -0.187 0.255 -0.183 c 2.544 0.053 5.087 0.118 7.63 0.184 c 0.017 0 0.03 0.022 0.078 0.052 c -0.13 0.347 -0.257 0.708 -0.396 1.063 c -0.662 1.743 -1.345 3.475 -1.979 5.23 z" stroke-linecap="round"/>
</g>
		<g transform="matrix(1.2222 0 0 1.2222 13.6244 36.2055)" id="SvgjsG1008">
<path style="stroke: none; stroke-width: 1; stroke-dasharray: none; stroke-linecap: butt; stroke-dashoffset: 0; stroke-linejoin: miter; stroke-miterlimit: 4; is-custom-font: none; font-file-url: none; fill: rgb(90,200,250); fill-rule: nonzero; opacity: 0.5;" transform=" translate(-236.1475, -254.6229)" d="M 250.473 243.571 c 0.025 -0.172 0.028 -0.347 0.049 -0.542 c -0.556 0.095 -1.038 0.161 -1.524 0.25 a 1.87 1.87 0 0 0 -0.136 0.041 l -1.83 0.365 l -1.781 0.35 l -0.055 0.007 l -1.743 0.347 l -1.766 0.344 l -0.974 0.193 l -1.601 0.314 l -0.023 -0.003 c -1.858 0.353 -3.715 0.745 -5.574 1.098 c -0.337 0.065 -0.394 0.247 -0.427 0.524 c -0.25 1.87 -0.502 3.74 -0.775 5.605 c -0.275 1.881 -0.58 3.758 -0.87 5.637 c -0.026 0.118 -0.081 0.24 -0.132 0.377 c -1.262 -0.596 -2.524 -0.727 -3.823 -0.445 c -2.331 0.505 -4.264 1.625 -5.32 3.834 c -0.647 1.354 -0.512 2.464 0.499 3.42 c 0.67 0.632 1.537 0.858 2.428 0.913 c 1.986 0.13 3.733 -0.499 5.29 -1.704 c 1.108 -0.852 1.946 -1.888 2.154 -3.314 c 0.442 -3.016 0.89 -6.03 1.293 -9.044 c 0.068 -0.516 0.298 -0.68 0.753 -0.767 c 1.652 -0.292 3.3 -0.615 4.941 -0.939 c 2.276 -0.444 4.548 -0.912 6.826 -1.364 c 0.573 -0.115 1.15 -0.206 1.776 -0.312 l -1.15 7.852 c -0.368 -0.137 -0.662 -0.264 -0.97 -0.355 c -0.322 -0.085 -0.658 -0.188 -0.993 -0.191 c -3 -0.073 -5.463 1.015 -7.027 3.63 c -1.17 1.948 -0.435 3.962 1.894 4.509 c 1.098 0.26 2.181 0.205 3.27 -0.101 a 8.394 8.394 0 0 0 3.535 -2.007 c 1.07 -1.01 1.447 -2.28 1.643 -3.724 c 0.661 -4.935 1.42 -9.864 2.143 -14.798 z m -2.905 3.746 c -1.944 0.363 -3.889 0.734 -5.835 1.113 l -7.561 1.493 c 0.098 -0.672 0.187 -1.223 0.252 -1.778 c 0.011 -0.074 0.029 -0.14 0.044 -0.192 l 0.007 0.001 l 14.19 -2.817 c 0.007 0.008 0.007 0.008 0.006 0.016 c -0.052 0.404 -0.11 0.807 -0.162 1.21 c -0.12 0.815 -0.126 0.806 -0.94 0.954 z" stroke-linecap="round"/>
</g>
		<g transform="matrix(1.2222 0 0 1.2222 109.2053 39.904)" id="SvgjsG1008">
<circle style="stroke: none; stroke-width: 1; stroke-dasharray: none; stroke-linecap: butt; stroke-dashoffset: 0; stroke-linejoin: miter; stroke-miterlimit: 4; is-custom-font: none; font-file-url: none; fill: rgb(254,107,77); fill-rule: nonzero; opacity: 1;" cx="0" cy="0" r="11.15"/>
</g>
		<g transform="matrix(1.2222 0 0 1.2222 110.3936 39.9043)" id="SvgjsG1008">
<path style="stroke: none; stroke-width: 1; stroke-dasharray: none; stroke-linecap: butt; stroke-dashoffset: 0; stroke-linejoin: miter; stroke-miterlimit: 4; is-custom-font: none; font-file-url: none; fill: rgb(255,255,255); fill-rule: nonzero; opacity: 1;" transform=" translate(-315.3221, -257.649)" d="m 319.324 258.06 l -7.46 4.814 c -0.344 0.208 -0.774 -0.019 -0.774 -0.41 v -9.628 c 0 -0.393 0.43 -0.62 0.775 -0.412 l 7.459 4.814 a 0.482 0.482 0 0 1 0 0.822 z" stroke-linecap="round"/>
</g>
		<g transform="matrix(1.2222 0 0 1.2222 149.5644 -105.8531)" id="SvgjsG1008">
<path style="stroke: none; stroke-width: 1; stroke-dasharray: none; stroke-linecap: butt; stroke-dashoffset: 0; stroke-linejoin: miter; stroke-miterlimit: 4; is-custom-font: none; font-file-url: none; fill: rgb(213,225,250); fill-rule: nonzero; opacity: 1;" transform=" translate(-347.3712, -138.3933)" d="M 366.617 138.752 c -0.102 0 -0.228 -0.496 -0.372 -1.469 a 24.084 24.084 0 0 0 -1.114 -4.244 a 18.347 18.347 0 0 0 -3.747 -6.142 c -0.955 -1.084 -2.162 -2.087 -3.537 -3.042 a 20.076 20.076 0 0 0 -4.864 -2.252 c -3.097 -0.891 -6.452 -1.063 -9.586 -0.234 c -3.154 0.748 -6.037 2.449 -8.35 4.708 c -2.258 2.315 -3.955 5.2 -4.702 8.355 c -0.827 3.134 -0.65 6.489 0.242 9.586 a 20.089 20.089 0 0 0 2.255 4.857 c 0.953 1.375 1.958 2.579 3.04 3.533 a 18.357 18.357 0 0 0 6.14 3.745 c 1.824 0.657 3.272 0.952 4.241 1.116 c 0.973 0.146 1.47 0.273 1.47 0.378 c 0 0.105 -0.498 0.182 -1.517 0.226 c -1.015 0.023 -2.558 -0.096 -4.551 -0.633 c -1.982 -0.543 -4.42 -1.611 -6.826 -3.63 c -1.22 -0.989 -2.37 -2.258 -3.462 -3.738 a 21.202 21.202 0 0 1 -2.626 -5.29 c -0.995 -3.436 -1.181 -7.137 -0.27 -10.612 c 0.83 -3.495 2.705 -6.692 5.206 -9.25 c 2.557 -2.504 5.752 -4.383 9.247 -5.215 c 3.475 -0.913 7.176 -0.733 10.611 0.262 c 2.013 0.66 3.777 1.59 5.299 2.623 c 1.48 1.093 2.753 2.242 3.74 3.463 c 2.022 2.408 3.091 4.847 3.634 6.83 c 0.537 1.994 0.656 3.537 0.63 4.553 c -0.045 1.02 -0.123 1.516 -0.23 1.516 z" stroke-linecap="round"/>
</g>
		<g transform="matrix(1.2222 0 0 1.2222 150.0825 -105.4139)" id="SvgjsG1008">
<path style="stroke: none; stroke-width: 1; stroke-dasharray: none; stroke-linecap: butt; stroke-dashoffset: 0; stroke-linejoin: miter; stroke-miterlimit: 4; is-custom-font: none; font-file-url: none; fill: rgb(63,196,189); fill-rule: nonzero; opacity: 1;" transform=" translate(-347.795, -138.7525)" d="M 360.591 138.759 c 0 7.062 -5.728 12.79 -12.796 12.79 c -3.922 0 -7.43 -1.76 -9.774 -4.533 c -0.119 -0.138 -0.23 -0.282 -0.342 -0.427 a 12.708 12.708 0 0 1 -2.68 -7.83 c 0 -7.068 5.728 -12.803 12.796 -12.803 c 4.178 0 7.89 1.997 10.221 5.098 c 0.19 0.256 0.375 0.512 0.539 0.781 a 12.706 12.706 0 0 1 2.036 6.924 z" stroke-linecap="round"/>
</g>
		<g transform="matrix(1.2222 0 0 1.2222 150.1589 -102.4512)" id="SvgjsG1008">
<path style="stroke: none; stroke-width: 1; stroke-dasharray: none; stroke-linecap: butt; stroke-dashoffset: 0; stroke-linejoin: miter; stroke-miterlimit: 4; is-custom-font: none; font-file-url: none; fill: rgb(50,181,179); fill-rule: nonzero; opacity: 1;" transform=" translate(-347.8575, -141.1765)" d="M 360.591 138.759 c 0 7.062 -5.728 12.79 -12.796 12.79 c -3.922 0 -7.43 -1.76 -9.774 -4.533 c -0.119 -0.138 -0.23 -0.282 -0.342 -0.427 a 12.69 12.69 0 0 1 -2.555 -6.043 a 12.768 12.768 0 0 0 10.024 4.841 c 7.068 0 12.796 -5.728 12.796 -12.79 c 0 -0.61 -0.04 -1.208 -0.125 -1.793 a 10.304 10.304 0 0 1 0.736 1.031 a 12.706 12.706 0 0 1 2.036 6.924 z" stroke-linecap="round"/>
</g>
		<g transform="matrix(1.2222 0 0 1.2222 151.1337 -105.9262)" id="SvgjsG1008">
<path style="stroke: none; stroke-width: 1; stroke-dasharray: none; stroke-linecap: butt; stroke-dashoffset: 0; stroke-linejoin: miter; stroke-miterlimit: 4; is-custom-font: none; font-file-url: none; fill: rgb(255,255,255); fill-rule: nonzero; opacity: 1;" transform=" translate(-348.6549, -138.3332)" d="M 356.324 133.36 c 0.322 0.398 -0.812 1.912 -3.56 4.412 l -3.663 2.966 l -1.832 1.484 l -0.457 0.37 l -0.23 0.186 l -0.196 0.157 a 2.236 2.236 0 0 1 -2.435 0.216 a 2.27 2.27 0 0 1 -0.75 -0.705 l -0.13 -0.203 l -0.078 -0.13 l -0.153 -0.255 l -0.287 -0.485 l -0.503 -0.876 c -0.303 -0.541 -0.542 -0.999 -0.72 -1.37 c -0.175 -0.367 -0.294 -0.657 -0.338 -0.84 a 0.776 0.776 0 0 0 -0.057 -0.213 c -0.012 -0.026 0.025 -0.04 0.044 -0.095 c 0.038 -0.056 0.048 -0.155 0.118 -0.235 c 0.083 -0.063 0.198 -0.064 0.348 -0.018 c 0.28 0.08 0.58 0.255 0.938 0.526 c 0.356 0.271 0.756 0.637 1.203 1.1 c 0.223 0.23 0.458 0.486 0.704 0.766 l 0.72 0.842 a 0.043 0.043 0 0 0 0.027 -0.022 l 6.215 -5.033 c 3.024 -2.16 4.733 -2.964 5.072 -2.546 z" stroke-linecap="round"/>
</g>
		<g transform="matrix(1.2222 0 0 1.2222 140.8075 -53.1432)" id="SvgjsG1008">
<path style="stroke: none; stroke-width: 1; stroke-dasharray: none; stroke-linecap: butt; stroke-dashoffset: 0; stroke-linejoin: miter; stroke-miterlimit: 4; is-custom-font: none; font-file-url: none; fill: rgb(225,235,255); fill-rule: nonzero; opacity: 1;" transform=" translate(-340.2062, -181.5193)" d="M 335.938 177.763 a 5.692 5.692 0 0 1 8.025 -0.512 a 5.692 5.692 0 0 1 0.511 8.025 a 5.693 5.693 0 0 1 -8.025 0.512 a 5.693 5.693 0 0 1 -0.511 -8.025 z m 6.636 5.84 a 3.158 3.158 0 0 0 -0.284 -4.452 a 3.158 3.158 0 0 0 -4.452 0.284 a 3.158 3.158 0 0 0 0.284 4.452 a 3.158 3.158 0 0 0 4.452 -0.283 z" stroke-linecap="round"/>
</g>
		<g transform="matrix(1.2222 0 0 1.2222 -69.9683 83.3781)" id="SvgjsG1008">
<path style="stroke: none; stroke-width: 1; stroke-dasharray: none; stroke-linecap: butt; stroke-dashoffset: 0; stroke-linejoin: miter; stroke-miterlimit: 4; is-custom-font: none; font-file-url: none; fill: rgb(64,82,242); fill-rule: nonzero; opacity: 0.5;" transform=" translate(-167.7534, -293.2186)" d="M 166.561 285.91 c 0.32 -0.053 0.66 0.017 0.943 0.221 l 7.049 5.072 c 0.567 0.408 0.696 1.2 0.288 1.767 l -5.072 7.048 c -0.408 0.567 -1.2 0.696 -1.767 0.288 l -7.048 -5.072 a 1.266 1.266 0 0 1 -0.288 -1.767 l 5.072 -7.048 c 0.204 -0.284 0.504 -0.458 0.823 -0.51 z m 5.486 6.608 l -4.994 -3.593 l -3.593 4.994 l 4.993 3.593 l 3.594 -4.994 z" stroke-linecap="round"/>
</g>
		<g transform="matrix(1.2222 0 0 1.2222 76.2184 83.1797)" id="SvgjsG1008">
<path style="stroke: none; stroke-width: 1; stroke-dasharray: none; stroke-linecap: butt; stroke-dashoffset: 0; stroke-linejoin: miter; stroke-miterlimit: 4; is-custom-font: none; font-file-url: none; fill: rgb(255,130,97); fill-rule: nonzero; opacity: 0.5;" transform=" translate(-287.3606, -293.0562)" d="M 288.386 286.903 a 1.088 1.088 0 0 1 1.331 0.772 l 2.712 10.203 a 1.088 1.088 0 0 1 -1.468 1.285 l -8.034 -3.328 a 1.088 1.088 0 0 1 -0.444 -1.671 l 5.322 -6.875 c 0.15 -0.193 0.355 -0.326 0.581 -0.386 z m 1.374 9.407 l -1.58 -5.95 l -3.104 4.01 l 4.684 1.94 z" stroke-linecap="round"/>
</g>
		<g transform="matrix(1.2222 0 0 1.2222 191.9632 29.6992)" id="SvgjsG1008">
<path style="stroke: none; stroke-width: 1; stroke-dasharray: none; stroke-linecap: butt; stroke-dashoffset: 0; stroke-linejoin: miter; stroke-miterlimit: 4; is-custom-font: none; font-file-url: none; fill: rgb(237,243,255); fill-rule: nonzero; opacity: 1;" transform=" translate(-382.061, -249.2995)" d="M 394.902 240.874 v 16.85 a 2.268 2.268 0 0 1 -2.266 2.267 h -21.15 a 2.268 2.268 0 0 1 -2.266 -2.266 v -16.85 a 2.268 2.268 0 0 1 2.266 -2.267 h 21.15 a 2.268 2.268 0 0 1 2.266 2.266 z" stroke-linecap="round"/>
</g>
		<g transform="matrix(1.2222 0 0 1.2222 204.5398 39.2331)" id="SvgjsG1008">
<path style="stroke: none; stroke-width: 1; stroke-dasharray: none; stroke-linecap: butt; stroke-dashoffset: 0; stroke-linejoin: miter; stroke-miterlimit: 4; is-custom-font: none; font-file-url: none; fill: rgb(213,225,250); fill-rule: nonzero; opacity: 1;" transform=" translate(-392.351, -257.1)" d="M 402.402 267.142 H 382.31 a 2.525 2.525 0 0 1 -2.527 -2.517 v -15.051 a 2.525 2.525 0 0 1 2.527 -2.516 h 20.092 a 2.52 2.52 0 0 1 2.517 2.516 v 15.051 a 2.52 2.52 0 0 1 -2.517 2.517 z m -20.092 -19.584 a 2.024 2.024 0 0 0 -2.027 2.016 v 15.051 c 0 1.112 0.91 2.017 2.027 2.017 h 20.092 a 2.019 2.019 0 0 0 2.017 -2.017 v -15.051 a 2.019 2.019 0 0 0 -2.017 -2.016 H 382.31 z" stroke-linecap="round"/>
</g>
		<g transform="matrix(1.2222 0 0 1.2222 -26.2744 129.7234)" id="SvgjsG1008">
<path style="stroke: none; stroke-width: 1; stroke-dasharray: none; stroke-linecap: butt; stroke-dashoffset: 0; stroke-linejoin: miter; stroke-miterlimit: 4; is-custom-font: none; font-file-url: none; fill: rgb(237,243,255); fill-rule: nonzero; opacity: 1;" transform=" translate(-203.503, -331.1375)" d="M 216.344 322.712 v 16.85 a 2.268 2.268 0 0 1 -2.267 2.267 h -21.149 a 2.268 2.268 0 0 1 -2.266 -2.266 v -16.85 a 2.268 2.268 0 0 1 2.266 -2.267 h 21.15 a 2.268 2.268 0 0 1 2.266 2.266 z" stroke-linecap="round"/>
</g>
		<g transform="matrix(1.2222 0 0 1.2222 -13.6977 139.2573)" id="SvgjsG1008">
<path style="stroke: none; stroke-width: 1; stroke-dasharray: none; stroke-linecap: butt; stroke-dashoffset: 0; stroke-linejoin: miter; stroke-miterlimit: 4; is-custom-font: none; font-file-url: none; fill: rgb(213,225,250); fill-rule: nonzero; opacity: 1;" transform=" translate(-213.793, -338.938)" d="M 223.844 348.98 h -20.092 a 2.525 2.525 0 0 1 -2.526 -2.516 v -15.052 a 2.525 2.525 0 0 1 2.526 -2.516 h 20.092 a 2.52 2.52 0 0 1 2.516 2.516 v 15.052 a 2.52 2.52 0 0 1 -2.516 2.516 z m -20.092 -19.584 a 2.024 2.024 0 0 0 -2.026 2.016 v 15.052 c 0 1.111 0.909 2.016 2.026 2.016 h 20.092 a 2.019 2.019 0 0 0 2.016 -2.016 v -15.052 a 2.019 2.019 0 0 0 -2.016 -2.016 h -20.092 z" stroke-linecap="round"/>
</g>
</g>
</g>
</svg>